<?xml version="1.0" encoding="utf-8"?>
<!-- Generator: Adobe Illustrator 21.0.0, SVG Export Plug-In . SVG Version: 6.00 Build 0)  -->
<svg version="1.1" id="圖層_1" xmlns="http://www.w3.org/2000/svg" xmlns:xlink="http://www.w3.org/1999/xlink" x="0px" y="0px"
	 viewBox="0 0 2000 1468" style="enable-background:new 0 0 2000 1468;" xml:space="preserve">
<style type="text/css">
	.st0{fill:#C79F63;}
	.st1{fill:#FFFFFF;}
</style>
<g>
	<g>
		<path class="st0" d="M984.1,76.7C969.3,78.6,804.2,78,796,75.9c0-6.2,0-12.7,0-19.3c-11.6,0-22,0-32.8,0c0,124.4,0,248.3,0,372.7
			c11,0,21.4,0,33.1,0c0-6.4,0-12.4,0-18.3c0.1-6,0.2-11.9,0.4-17.6c14.2-1.9,180-1.3,187.6,0.8c0,11.4,0,23.1,0,35.1
			c11.6,0,22.3,0,33.2,0c0-124.5,0-248.4,0-372.5c-11.3,0-22,0-33.4,0C984.1,63.6,984.1,69.9,984.1,76.7z M872,378.7
			c-24.6,0-49.3,0-75.1,0c0-45.4,0-89.9,0-135.1c25.3,0,50,0,74.6,0C873.6,250.8,874,367.2,872,378.7z M872.1,229.8
			c-25.1,0-49.6,0-74,0c-2.2-6.8-2.8-124.6-0.8-138.3c24.6,0,49.4,0,74.1,0C873.5,98.1,874.2,216.4,872.1,229.8z M983.5,379.3
			c-25.2,0.1-50.2,0.1-75.7-0.1c0-45.6,0-90.2,0-135.6c25.7,0,50.5,0,75.7,0C983.5,288.8,983.5,333.3,983.5,379.3z M983,230.1
			c-24.9,0.3-49.9,0.1-75.3,0.1c0-47,0-92.6,0-139.1c25.7,0,50.3,0,74.7,0C984.3,98.2,984.9,217,983,230.1z"/>
		<path class="st0" d="M1660.6,119.6c-10.5,0-21.1,0.1-31.6,0c-10.4-0.1-20.8,0.3-32.1-0.3c0-24.8,0-48.3,0-72.4
			c-11.6-0.1-22.3-0.3-33.9,0.1c0,24.8,0,48.3,0,72.6c-10.8,0-20.6,0-30.4,0c-9.6,0-19.2,0-28.8,0c-9.9,0-19.8-0.1-29.7,0
			c-9.8,0.1-19.6-0.4-29.2,0.3c0,4.7,0,8.1,0,12.8c39.5,0,78.6,0,118.1,0c0,35.7,0,70.1,0,105.1c-15.5,1.8-61.9,1.2-68.6-0.8
			c-0.3-4.3-0.6-8.7-1-13.8c-6,0-11.3,0-16.7,0c-5.6,0-11.2,0.1-16.7,0.1c0,68.3,0,135.3,0,202.8c11.6,0.4,22.5,0.7,34.5-0.2
			c0-10.1,0-19.2,0-29c60,0.1,118.9-0.3,178.9,0.2c0,10.5,0,19.6,0,29.2c11.8,0,22.4,0.4,32.9-0.2c0-68.3,0-135.3,0-203
			c-6,0-11.4,0-16.8,0c-5.3,0-10.6,0-16.1,0c-0.4,5.8-0.7,10.1-0.9,14.7c-25.2,0-49.9,0-74.5,0c-1.7-17.3-1-97.8,1.1-105.6
			c41.1,0,82.5,0,124.3,0c0-4.6,0-8.3,0-12.7c-11.1,0-21.6,0-32.1,0C1681,119.6,1670.8,119.6,1660.6,119.6z M1672.5,252.4
			c0,43.9,0,87.2,0,132c-59.2,0.1-118.3,0-178,0c0-44.4,0-87.7,0-131C1501.7,251.3,1647.2,250.4,1672.5,252.4z"/>
		<path class="st0" d="M1980.3,340.7c-2.6,6.6-5.2,13-7.8,19.5c-3.8,9.5-10.9,14.6-21.1,15.6c-1.9,0.2-3.8,0.2-5.7,0.2
			c-34.8,0-69.7,0-104.5,0c-2.2,0-4.3-0.2-8.8-0.5c3.4-3.6,5.3-5.7,7.2-7.7c21.8-22.9,44.2-45.3,65.4-68.8
			c22.8-25.2,43.2-52.2,58.1-82.9c9.9-20.4,15.2-41.9,14.5-64.8c-1.3-38.8-25.3-67.5-63.5-74.1c-10.9-1.9-22.3-2.1-33.4-1.3
			c-24.6,1.8-46.7,10.3-63.9,29c-14.1,15.3-21.7,33.7-25.3,53.9c-1,5.8-1.4,11.8-2.1,18.1c4.7,0,7.9,0,10.7,0c3-9,5.2-17.4,8.6-25.3
			c11.7-27.6,32.2-44,62.5-46.7c36.2-3.3,62.6,21.7,64.7,53.3c0.9,13.6-1.1,26.7-5.2,39.6c-6.9,21.8-18,41.6-30.3,60.7
			c-31.6,48.7-70.9,90.5-115.8,127.1c-7.9,6.5-8.7,13-6.7,22.1c66.5,0,132.8,0,199.7,0c7.5-22.3,14.8-44.3,22.4-67
			C1992.8,340.7,1986.8,340.7,1980.3,340.7z"/>
		<path class="st0" d="M527.6,229.5c-18.9-13.7-37.3-27-55.7-40.3c0-13.7,0-27.6,0-42.7c17.3,0,34,0,51.1,0c0-5.7,0-10.3,0-16.1
			c-17.3,0-34.1,0-51.6,0c0-10.4,0-19.7,0-28.9c0-8.9,0.1-17.9,0-26.8c-0.1-9.1,0.4-18.3-0.3-27.2c-11.1,0-20.8,0-31.9,0
			c0,27.8,0,55,0,83.4c-19,0-36.8,0-54.7,0c0,5.7,0,10.3,0,15.9c18.4,0,36.1,0,54.5,0c-7.4,69.5-22.6,135.5-55.9,196.4
			c6,2.9,8.4-0.5,10.8-4.1c13.5-19.8,27-39.6,40.5-59.4c1.1-1.6,2.4-3.2,3.7-4.7c0.5,0.2,1.1,0.4,1.6,0.5c0,51,0,102,0,153.5
			c11,0,21,0,30.7,0c0.4-1,0.6-1.3,0.6-1.6c0.1-0.6,0.3-1.2,0.3-1.9c0-70.3,0.1-140.6,0.1-210.9c0-1,0-1.9,0.1-2.9
			c0-0.3,0.1-0.6,0.2-0.9c0.1-0.2,0.3-0.5,0.5-0.6c0.3-0.1,0.6-0.1,1.2-0.3c3.8,6.6,7.4,13.3,11.4,19.8c4.1,6.5,8.3,12.9,13,19
			c4.5,5.9,8.1,12.7,15.3,17.5C518.1,253.5,522.8,241.7,527.6,229.5z"/>
		<path class="st0" d="M1079.6,272.6c10.7,0.8,10.9,1,14.1-2c25.4-24.2,43.6-51.8,42.3-88.8c-0.2-4.4,0.3-8.7,0.4-13.2
			c20.9,0,40.9,0,61.2,0c0.2,3.5,0.5,6.3,0.5,9.2c0,16.3-0.2,32.6,0.1,48.9c0.1,5.7-1.6,9.6-6.3,12.8c-4.5,3.1-9.2,6.1-13.6,11.2
			c15.5,0,29.4,0,44.3,0c0-33.8,0-66.9,0-100.5c19.6,0.5,32.6-10.4,44.9-22.1c13-12.3,17.1-28.6,17.9-46.1c13.7,0,26.7,0,40.4,0
			c0,5.4-0.1,10.2,0,14.9c0.1,6.7,0,13.5,0.7,20.1c1,8.7,4.8,13.1,13.5,13.4c15.2,0.6,30.5,0.2,46.2,0.2c0-7.6,0-14.4,0-22.2
			c-7.9,0-15.2,0.3-22.5-0.1c-7.1-0.3-9.7-3-9.9-10.2c-0.2-11.5-0.1-23-0.1-34.5c0-3.4,0-6.8,0-10.4c-9.8,0-18.3,0-27.2,0
			c-0.5,5.1-0.9,9.7-1.4,14.3c-13.6,0-26.5,0-39.7,0c-0.4-5-0.7-9.4-1-14.3c-8.9,0-17.3,0-26.5,0c-0.2,3.5-0.5,6.7-0.5,9.8
			c-0.1,11.2-0.1,22.4,0,33.6c0.3,21.4-10.2,36.3-28.2,46.6c-1.7,1-3.9,1.2-7.2,2.3c0-24,0-46.9,0-69.9c-8.6,0-16,0-23.4,0
			c-0.6,4.1-1.2,7.5-1.7,10.7c-20.6,0-40.6,0-60.7,0c0-2.5,0-4.3,0-6.4c16.1-3,24.3-13,27-29.4c-9.5-0.3-18.2-1.2-26.9,0.6
			c-2,7.9,0.9,15.9-3.5,23.3c-7.8,0.3-15.6,0.7-24.2,1.1c0,9.6,0,18.2,0,26.7c0,9,0.1,17.9,0,26.9c-0.1,8.5,0.4,17-0.5,26.2
			c-8.1,0-15.1,0-22.3,0c0,4.5,0,8.2,0,12.3c7.7,0.3,14.9,0.7,22.8,1c0,12-0.1,23.2,0,34.3c0.2,22.3-7,42-20.7,59.4
			C1085.7,265.4,1083,268.5,1079.6,272.6z M1136.5,100.6c20.5,0,40.5,0,61,0c0,17.8,0,35.2,0,54c-20.2,0.5-40.1,0.1-61,0.2
			C1136.5,136,1136.5,118.6,1136.5,100.6z"/>
		<path class="st0" d="M1097.4,294.7c19.3,0,38,0,57.1,0c0.4,6.7-2.9,11.2-5.3,15.9c-16.1,30.5-42.2,50.4-73.2,67
			c24.3,4.7,41.7-8.8,61.3-17.7c0,13.3,0,25.1,0,36.9c0,11.7,0,23.4,0,35c12.1,0,22.8,0,34.6,0c0-8.1,0-15.6,0-23.4
			c54.6,0,108,0,162.7,0c0,7.2,0,13.7,0,20.5c11.9,0,22.6,0,33.1,0c2.2-12.2,1.6-102.6-0.5-108.9c-10.8,0-21.5,0-32.3,0
			c-0.4,5.1-0.7,9.4-1.1,14.2c-53.1,0-105.6,0-159,0c5.2-6.7,10.2-12.4,14.2-18.7c4.1-6.4,7.1-13.5,11.1-21.3
			c61.8,0,123.9,0,186.3,0c0-4.2,0-7.3,0-11.1c-97.1,0-193.1,0-289.2,0C1097.4,287.1,1097.4,290.4,1097.4,294.7z M1172.2,349.3
			c7-2,142.9-2.9,161.2-1c2.2,7.2,0.8,14.9,1,22.4c0.2,7.6,0.1,15.3,0.1,22.7c-7.6,2.4-152.6,2.7-162.3,0.5
			C1172.2,379,1172.2,364.1,1172.2,349.3z"/>
		<path class="st0" d="M629.6,397.9c0-28.8,0-56.1,0-84.4c19.9,0,39.2,0,59.1,0c0-5.5,0-10.2,0-15.9c-19.9,0-39.2,0-59.7,0
			c0-21,0-40.9,0-61.1c-10.9,0-20.6,0-31.3,0c0,20.3,0,40,0,61.2c-12.4,0-23.2-0.1-34.1,0c-10.7,0.2-21.5-0.7-32,0.5
			c0,5.4,0,9.8,0,15.2c22.1,0,43.6,0,65.4,0c0,28.7,0,56.3,0,84.9c-29.7,0-58.7,0-87.9,0c0,5.6,0,10.1,0,15c65.1,0,129.6,0,194.4,0
			c0-5.2,0-9.8,0-15.1C678.5,397.9,654.1,398.6,629.6,397.9z"/>
		<path class="st0" d="M699.9,219.3c0-4.6,0-9.2,0-14.7c-24.9,0-49.1,0-74,0c0-26.4,0-51.2,0-77c21.2,0,41.9,0,63,0
			c0-5.6,0-10.2,0-15.4c-21.4-1-42.4,0.5-64.1-0.9c0-22.1,0-43,0-63.9c-10.8,0-20.5,0-31.3,0c0,21.6,0,42.5,0,64.6
			c-21.3,0-41.5,0-61.8,0c0,5.7,0,10.3,0,15.7c20.7,0,40.7,0,61.9,0c-0.2,25.9,0.5,50.9-0.5,76.9c-22.3,0-43.6,0-65.2,0
			c0,5.8,0,10.6,0,15.4C544.7,222,692.9,221.3,699.9,219.3z"/>
		<path class="st0" d="M1234.4,263.9c5.3-0.3,10.7-0.1,15.9-1.1c15.7-3.2,30.8-8.6,44.3-17.4c5.2-3.4,9.2-3.3,14.9-0.8
			c13.4,5.9,27,11.5,41,15.7c11.4,3.5,23.4,4.9,35.8,7.3c0-11.1,0-20.8,0-30.7c-20.1-1-39.2-3.5-58.9-10.7
			c30-20.5,43.3-47.8,41.1-83.4c-10.9,0-20.9-0.4-30.7,0.2c-0.5,4.1-0.9,6.9-1.4,10.7c-29.7,0-59.2,0-89.1,0c0,4.7,0,8.3,0,12.2
			c4.9,0.5,9.2,0.9,13.3,1.3c8.4,36.3,10.4,39.2,28.5,62.3C1280,239.9,1265.9,248.4,1234.4,263.9z M1270.5,167.3
			c21.9,0,43.8,0,66.6,0c-3.4,20.7-12.7,36.4-29,47.8C1287.9,205.5,1273.5,187.1,1270.5,167.3z"/>
		<path class="st0" d="M1153.1,175.3c-0.2,19.6,2,36.2,15.5,50.3c7.3-7.7,14-14.8,21-22.2C1177.5,194,1166.1,185.3,1153.1,175.3z"/>
		<path class="st0" d="M1167.1,149.6c5.4-6.7,10.1-12.6,15.1-18.8c-5.6-4.2-10.5-7.7-15.3-11.3c-4.9-3.7-9.7-7.5-15.9-12.4
			C1151.4,124.4,1153.7,138.6,1167.1,149.6z"/>
		<rect x="20.7" y="140.7" class="st0" width="8.6" height="253.3"/>
		<rect x="148.3" y="140.7" class="st0" width="8.6" height="253.3"/>
		<rect x="275.9" y="140.7" class="st0" width="8.6" height="253.3"/>
		<polygon class="st0" points="124.6,384 53,384 53,59.8 44.4,59.8 44.4,393.9 46,393.9 53,393.9 124.6,393.9 133.2,393.9 
			133.2,59.8 124.6,59.8 		"/>
		<polygon class="st0" points="98.2,368.7 107.2,368.7 108.1,368.7 108.1,34.2 98.2,34.2 98.2,366.1 79.8,366.1 79.8,34.2 
			69.9,34.2 69.9,366.1 69.9,368.7 79.8,368.7 		"/>
		<rect x="85" y="0.3" class="st0" width="8" height="33.9"/>
		<polygon class="st0" points="252.4,384 180.7,384 180.7,59.8 172.1,59.8 172.1,393.9 173.7,393.9 180.7,393.9 252.4,393.9 
			261,393.9 261,59.8 252.4,59.8 		"/>
		<polygon class="st0" points="226,368.7 234.9,368.7 235.9,368.7 235.9,34.2 226,34.2 226,366.1 207.6,366.1 207.6,34.2 
			197.7,34.2 197.7,366.1 197.7,368.7 207.6,368.7 		"/>
		<rect x="212.7" y="0.3" class="st0" width="8" height="33.9"/>
		<path class="st0" d="M30.1,437.6c-1.2,0.1-2.2,0.1-3.1,0.1c-0.9,0-2,0-3.2-0.1c-1.2-0.1-2.3-0.1-3.3-0.2c-0.1,0.3-0.1,0.6-0.1,0.8
			c0,0.2,0.1,0.4,0.2,0.6c0.1,0.2,0.3,0.3,0.6,0.4c1.3,0.2,2.2,0.4,2.8,0.8c0.6,0.4,0.8,1,0.8,1.9v7.9c-0.7,0.2-1.5,0.4-2.6,0.5
			c-1,0.1-2,0.2-3,0.2c-2,0-3.8-0.4-5.5-1.2c-1.7-0.8-3.1-1.9-4.4-3.4c-1.2-1.5-2.2-3.2-2.9-5.2c-0.7-2-1.1-4.2-1.1-6.6
			c0-2,0.3-3.9,0.8-5.7c0.6-1.7,1.4-3.2,2.5-4.5c1.1-1.3,2.5-2.3,4.1-3c1.7-0.7,3.6-1.1,5.8-1.1c2.8,0,4.9,0.5,6.4,1.5
			c1.5,1,2.5,2.7,3.2,5c0.1,0.4,0.5,0.7,1,0.7c0.1,0,0.3,0,0.5-0.1c0.2,0,0.3-0.1,0.4-0.2c-0.3-1.2-0.6-2.5-0.8-3.8
			c-0.2-1.3-0.3-2.5-0.4-3.8c-1.1-0.3-2.1-0.5-3.1-0.7c-1-0.2-1.9-0.4-2.8-0.5c-0.9-0.1-1.9-0.2-2.8-0.3c-1-0.1-1.9-0.1-3-0.1
			c-2.9,0-5.4,0.5-7.6,1.6c-2.2,1.1-4,2.4-5.4,4.1c-1.4,1.7-2.5,3.5-3.2,5.6c-0.7,2.1-1.1,4.1-1.1,6.2c0,2.5,0.4,4.8,1.1,6.9
			s1.8,4,3.2,5.5c1.5,1.6,3.3,2.8,5.5,3.7c2.2,0.9,4.8,1.3,7.7,1.3c2.2,0,4.1-0.1,5.7-0.2c1.6-0.2,3.2-0.4,4.8-0.6
			c0.8-0.1,1.3-0.3,1.5-0.5c0.2-0.2,0.3-0.5,0.3-0.8v-9.2c0-0.7,0.2-1.2,0.6-1.5c0.4-0.3,1.2-0.6,2.3-0.7c0.2,0,0.3-0.1,0.4-0.2
			c0.1-0.1,0.2-0.4,0.2-0.7c0-0.2,0-0.5-0.1-0.8C32.3,437.5,31.3,437.5,30.1,437.6z"/>
		<path class="st0" d="M80.5,450.9c-0.7-0.2-1.4-0.4-2.2-0.8c-0.8-0.3-1.5-1-2.2-1.9l-8.7-12c1.1-0.4,2.1-1,3-1.6
			c0.8-0.7,1.5-1.4,2.1-2.2c0.5-0.8,0.9-1.6,1.2-2.4c0.3-0.8,0.4-1.6,0.4-2.4c0-2.8-1-5-2.8-6.7c-1.9-1.6-4.7-2.5-8.4-2.5h-7
			c-1,0-2.1,0-3.2-0.1c-1.1-0.1-2.2-0.1-3.2-0.2c-0.1,0.3-0.1,0.6-0.1,0.8c0,0.6,0.2,0.8,0.5,0.9c1.5,0.2,2.4,0.4,2.9,0.8
			c0.5,0.3,0.8,0.8,0.8,1.5v26.4c0,0.7-0.3,1.2-0.8,1.5c-0.5,0.3-1.5,0.5-2.8,0.8c-0.4,0.1-0.6,0.3-0.6,0.8c0,0.2,0,0.5,0.1,0.8
			c1-0.1,2.1-0.1,3.3-0.2c1.2-0.1,2.2-0.1,3.1-0.1c1.3,0,2.6,0,3.9,0.1c1.3,0.1,2.5,0.1,3.4,0.2c0.1-0.3,0.1-0.6,0.1-0.9
			c0-0.5-0.2-0.8-0.6-0.9c-1.5-0.2-2.5-0.4-3.2-0.7c-0.7-0.3-1.1-0.8-1.1-1.6v-11.4h3.8l8.3,12c0.7,1,1.4,1.8,2.1,2.4
			c0.7,0.6,1.5,0.9,2.2,0.9c1,0,2,0,3.2,0.1c1.1,0.1,2.1,0.1,2.9,0.2c0.1-0.3,0.1-0.7,0.1-0.9C81,451.2,80.8,451,80.5,450.9z
			 M66.7,433.4c-1.3,1-3.2,1.5-5.6,1.5h-2.7v-14.3H61c1.4,0,2.6,0.2,3.6,0.6c1,0.4,1.8,0.9,2.4,1.6c0.6,0.7,1,1.4,1.3,2.3
			c0.3,0.9,0.4,1.9,0.4,3C68.7,430.6,68,432.4,66.7,433.4z"/>
		<path class="st0" d="M118.3,452.4c0.5,0,0.9,0.1,1.2,0.1c0.3,0,0.6-0.3,0.9-0.9c0.2-0.6,0.4-1.3,0.6-2.1c0.2-0.8,0.4-1.7,0.6-2.6
			c0.2-0.9,0.5-1.7,0.8-2.4c-0.2-0.1-0.4-0.2-0.5-0.3c-0.2-0.1-0.4-0.2-0.5-0.2c-0.4,0-0.7,0.1-0.8,0.4c-0.4,0.8-0.8,1.6-1.3,2.3
			c-0.4,0.7-1,1.3-1.5,1.8c-0.6,0.5-1.2,0.9-2,1.2c-0.7,0.3-1.6,0.4-2.6,0.4h-2.8c-2.1,0-3.7-0.1-4.6-0.4c-0.9-0.2-1.4-0.7-1.4-1.5
			V436h8.1c0.7,0,1.2,0.3,1.5,1c0.3,0.7,0.5,1.5,0.7,2.5c0.1,0.4,0.4,0.7,1,0.7c0.2,0,0.5,0,0.8-0.1c-0.1-1.1-0.2-2-0.2-2.9
			c0-0.8-0.1-1.6-0.1-2.1c0-0.7,0-1.6,0.1-2.5c0.1-1,0.1-1.8,0.2-2.6c-0.1,0-0.2-0.1-0.4-0.1c-0.2,0-0.3-0.1-0.4-0.1
			c-0.5,0-0.8,0.2-0.9,0.7c-0.2,1-0.4,1.8-0.7,2.5s-0.8,1-1.5,1h-8.1v-13.3h7.7c1,0,1.9,0.1,2.6,0.3c0.7,0.2,1.3,0.5,1.8,0.9
			c0.5,0.4,0.9,0.9,1.3,1.6c0.4,0.6,0.8,1.4,1.2,2.3c0.1,0.3,0.4,0.5,0.9,0.5c0.3,0,0.7-0.1,0.9-0.3c-0.4-0.6-0.6-1.4-0.8-2.3
			c-0.1-0.9-0.3-1.7-0.4-2.5c-0.1-0.8-0.2-1.5-0.4-2c-0.2-0.6-0.5-0.9-0.9-0.9c-0.4,0-1.1,0.1-2.3,0.2c-1.1,0.1-2.5,0.2-4,0.2h-10.2
			c-0.8,0-1.7,0-2.7-0.1c-1,0-2.2-0.1-3.7-0.2c0,0.1-0.1,0.3-0.1,0.4c0,0.1,0,0.3,0,0.4c0,0.5,0.2,0.8,0.5,0.9
			c1.5,0.3,2.4,0.5,2.9,0.8c0.5,0.3,0.8,0.7,0.8,1.4v26.4c0,0.7-0.3,1.2-0.9,1.5c-0.6,0.3-1.5,0.5-2.8,0.8c-0.3,0.1-0.5,0.3-0.5,0.8
			c0,0.2,0,0.5,0.1,0.8c1-0.1,2.1-0.1,3.3-0.2c1.1-0.1,2.2-0.1,3.2-0.1h11.3c0.4,0,1,0,1.6,0.1c0.6,0,1.2,0.1,1.8,0.1
			C117.2,452.3,117.8,452.4,118.3,452.4z"/>
		<path class="st0" d="M171.2,450.7c-0.7-0.1-1.4-0.3-2.1-0.6c-0.7-0.3-1.2-0.7-1.4-1.1l-12.5-31c-0.3-0.1-0.5-0.1-0.6-0.1
			c-0.4,0-0.7,0.3-1,0.9l-12.5,30c-0.2,0.6-0.6,1-1.2,1.2c-0.5,0.3-1.3,0.5-2.4,0.6c-0.3,0-0.5,0.1-0.5,0.3
			c-0.1,0.2-0.1,0.4-0.1,0.6c0,0.3,0,0.6,0.1,0.8c0.8-0.1,1.6-0.2,2.3-0.2c0.7,0,1.4-0.1,2.1-0.1c1,0,2,0,3.1,0.1c1,0.1,2,0.1,3,0.2
			c0.1-0.3,0.1-0.6,0.1-0.8c0-0.2,0-0.4-0.1-0.5c-0.1-0.2-0.3-0.3-0.5-0.3c-2.1-0.3-3.2-0.8-3.2-1.6c0-0.3,0.1-0.6,0.3-1l3.3-8.3
			h11.6l3.3,8.5c0.1,0.3,0.2,0.6,0.2,0.8c0,0.4-0.3,0.8-0.8,1c-0.6,0.2-1.3,0.4-2.2,0.6c-0.1,0-0.2,0.1-0.3,0.2
			c-0.1,0.1-0.2,0.3-0.2,0.6c0,0.2,0,0.5,0.1,0.8c1-0.1,2.1-0.1,3.4-0.2c1.2-0.1,2.3-0.1,3.3-0.1c0.9,0,1.9,0,3,0.1
			c1.1,0.1,2.2,0.1,3.3,0.2c0.1-0.3,0.1-0.6,0.1-0.8c0-0.3-0.1-0.5-0.2-0.6C171.6,450.8,171.4,450.7,171.2,450.7z M148.1,437.7
			l5-12.7l4.8,12.7H148.1z"/>
		<path class="st0" d="M212.1,425.8c0.1,0.2,0.2,0.3,0.4,0.4c0.2,0.1,0.3,0.1,0.5,0.1c0.2,0,0.4,0,0.5-0.1c0.2-0.1,0.3-0.1,0.5-0.2
			c-0.4-1.2-0.6-2.2-0.8-3.2c-0.2-1-0.3-1.8-0.4-2.4c-0.1-0.7-0.3-1.2-0.4-1.5c-0.2-0.4-0.4-0.5-0.8-0.5c-0.3,0-0.6,0-1.1,0.1
			c-0.4,0-0.9,0.1-1.4,0.1c-0.5,0-1,0.1-1.6,0.1c-0.5,0-1,0.1-1.4,0.1h-17.3c-0.4,0-0.9,0-1.5-0.1c-0.5,0-1-0.1-1.5-0.1
			c-0.5,0-1-0.1-1.4-0.1c-0.4,0-0.8-0.1-1-0.1c-0.3,0-0.6,0.2-0.8,0.5c-0.2,0.3-0.3,0.8-0.4,1.5c-0.1,0.6-0.3,1.4-0.5,2.4
			c-0.2,1-0.4,2.1-0.8,3.3c0.3,0.2,0.6,0.3,1,0.3c0.1,0,0.3,0,0.4-0.1c0.2-0.1,0.3-0.2,0.3-0.4c0.4-0.9,0.8-1.6,1.2-2.3
			c0.4-0.7,0.8-1.2,1.3-1.6c0.5-0.4,1.1-0.7,1.8-0.9c0.7-0.2,1.6-0.3,2.6-0.3h5.3v27.7c0,0.8-0.3,1.3-1,1.7
			c-0.7,0.3-1.8,0.6-3.4,0.8c-0.3,0.1-0.5,0.3-0.5,0.8c0,0.2,0,0.5,0.1,0.9c1.1-0.1,2.3-0.1,3.5-0.2c1.3-0.1,2.5-0.1,3.7-0.1
			c1.2,0,2.5,0,3.7,0.1c1.2,0.1,2.4,0.1,3.5,0.2c0.1-0.3,0.1-0.6,0.1-0.9c0-0.6-0.2-0.8-0.6-0.8c-1.6-0.2-2.7-0.4-3.3-0.8
			c-0.7-0.3-1-0.9-1-1.7v-27.7h5.3c1,0,1.9,0.1,2.6,0.3c0.7,0.2,1.3,0.5,1.8,0.9c0.5,0.4,0.9,1,1.3,1.6
			C211.3,424.1,211.7,424.9,212.1,425.8z"/>
		<path class="st0" d="M255,444c-0.4,0-0.7,0.1-0.8,0.4c-0.4,0.8-0.8,1.6-1.3,2.3c-0.4,0.7-1,1.3-1.5,1.8c-0.6,0.5-1.2,0.9-2,1.2
			c-0.7,0.3-1.6,0.4-2.6,0.4H244c-2.1,0-3.7-0.1-4.6-0.4c-0.9-0.2-1.4-0.7-1.4-1.5V436h8.1c0.7,0,1.2,0.3,1.5,1
			c0.3,0.7,0.5,1.5,0.7,2.5c0.1,0.4,0.4,0.7,1,0.7c0.2,0,0.5,0,0.8-0.1c-0.1-1.1-0.2-2-0.2-2.9c0-0.8-0.1-1.6-0.1-2.1
			c0-0.7,0-1.6,0.1-2.5c0.1-1,0.1-1.8,0.2-2.6c-0.1,0-0.2-0.1-0.4-0.1c-0.2,0-0.3-0.1-0.4-0.1c-0.5,0-0.8,0.2-0.9,0.7
			c-0.2,1-0.4,1.8-0.7,2.5s-0.8,1-1.5,1H238v-13.3h7.7c1,0,1.9,0.1,2.6,0.3c0.7,0.2,1.3,0.5,1.8,0.9c0.5,0.4,0.9,0.9,1.3,1.6
			c0.4,0.6,0.8,1.4,1.2,2.3c0.1,0.3,0.4,0.5,0.9,0.5c0.3,0,0.7-0.1,0.9-0.3c-0.4-0.6-0.6-1.4-0.8-2.3c-0.1-0.9-0.3-1.7-0.4-2.5
			c-0.1-0.8-0.2-1.5-0.4-2c-0.2-0.6-0.5-0.9-0.9-0.9c-0.4,0-1.1,0.1-2.3,0.2c-1.1,0.1-2.5,0.2-4,0.2h-10.2c-0.8,0-1.7,0-2.7-0.1
			c-1,0-2.2-0.1-3.7-0.2c0,0.1-0.1,0.3-0.1,0.4c0,0.1,0,0.3,0,0.4c0,0.5,0.2,0.8,0.5,0.9c1.5,0.3,2.4,0.5,2.9,0.8
			c0.5,0.3,0.8,0.7,0.8,1.4v26.4c0,0.7-0.3,1.2-0.9,1.5c-0.6,0.3-1.5,0.5-2.8,0.8c-0.3,0.1-0.5,0.3-0.5,0.8c0,0.2,0,0.5,0.1,0.8
			c1-0.1,2.1-0.1,3.3-0.2c1.1-0.1,2.2-0.1,3.2-0.1h11.3c0.4,0,1,0,1.6,0.1c0.6,0,1.2,0.1,1.8,0.1c0.6,0,1.2,0,1.7,0.1
			c0.5,0,0.9,0.1,1.2,0.1c0.3,0,0.6-0.3,0.9-0.9c0.2-0.6,0.4-1.3,0.6-2.1c0.2-0.8,0.4-1.7,0.6-2.6c0.2-0.9,0.5-1.7,0.8-2.4
			c-0.2-0.1-0.4-0.2-0.5-0.3C255.4,444,255.2,444,255,444z"/>
		<path class="st0" d="M302.9,418.4c-0.8,0.1-1.6,0.1-2.4,0.1c-0.8,0-1.6,0-2.5-0.1c-0.9-0.1-1.8-0.1-2.6-0.2
			c-0.1,0.3-0.1,0.6-0.1,0.8c0,0.6,0.2,0.8,0.6,0.9c1.3,0.2,2.2,0.4,2.8,0.7c0.6,0.3,0.8,0.8,0.8,1.6v21.7l-18.6-24.8
			c-0.2-0.3-0.5-0.4-0.8-0.5c-0.3-0.1-1-0.1-2-0.1c-0.5,0-1,0-1.7,0c-0.6,0-1.2,0-1.8-0.1c-0.6,0-1.3-0.1-2-0.2
			c0,0.1-0.1,0.3-0.1,0.4c0,0.1-0.1,0.3-0.1,0.5c0,0.5,0.2,0.8,0.6,0.9c1.2,0.2,2.1,0.4,2.5,0.7c0.4,0.3,0.6,0.7,0.6,1.3v26.6
			c0,0.7-0.2,1.2-0.6,1.5c-0.4,0.3-1.3,0.5-2.5,0.8c-0.4,0.1-0.6,0.3-0.6,0.8c0,0.2,0,0.5,0.1,0.8c0.8-0.1,1.6-0.1,2.5-0.2
			c0.9-0.1,1.7-0.1,2.4-0.1c0.8,0,1.6,0,2.5,0.1c0.9,0.1,1.8,0.1,2.6,0.2c0.1-0.3,0.1-0.6,0.1-0.8c0-0.5-0.2-0.8-0.5-0.8
			c-1.4-0.2-2.3-0.5-2.8-0.8c-0.5-0.3-0.7-0.8-0.7-1.5v-24.4l21,27.7c0.3,0.4,0.5,0.6,0.7,0.8c0.2,0.1,0.4,0.2,0.7,0.2
			c0.1,0,0.2,0,0.4,0c0.2,0,0.3,0,0.4-0.1v-30.5c0-0.7,0.2-1.2,0.6-1.5c0.4-0.3,1.2-0.6,2.4-0.7c0.3,0,0.5-0.3,0.5-0.9
			c0-0.2,0-0.5-0.1-0.8C304.5,418.3,303.7,418.4,302.9,418.4z"/>
		<path class="st0" d="M100.8,478.1c-0.3,0-0.6,0-1,0c-0.3,0-0.7,0-1,0c-0.3,0-0.6,0-0.8,0s-0.5,0-0.8,0c-0.3,0-0.7,0-1,0
			c-0.4,0-0.7,0-1,0c-0.3,0-0.6,0-0.9-0.1c0,0.1,0,0.1,0,0.2c0,0.1,0,0.2,0,0.2c0,0.1,0,0.2,0.1,0.3c0.1,0.1,0.2,0.2,0.3,0.2
			c0.7,0.1,1.2,0.2,1.4,0.4c0.3,0.2,0.4,0.5,0.4,1v3.9c-0.3,0.1-0.6,0.2-0.9,0.2c-0.3,0-0.6,0.1-1,0.1c-1.1,0-2-0.2-2.8-0.6
			c-0.8-0.4-1.5-1-2.1-1.7c-0.6-0.7-1-1.6-1.3-2.6c-0.3-1-0.4-2.1-0.4-3.3c0-1.1,0.1-2.1,0.4-2.9c0.3-0.9,0.6-1.6,1.1-2.2
			c0.5-0.6,1.1-1.1,1.9-1.4c0.7-0.3,1.6-0.5,2.6-0.5c1.3,0,2.3,0.2,3.2,0.7c0.9,0.5,1.5,1.3,1.9,2.5c0,0.1,0.1,0.2,0.2,0.3
			c0.1,0,0.2,0.1,0.4,0.1c0.1,0,0.2,0,0.3,0c0.1,0,0.2,0,0.3-0.1c-0.2-0.7-0.3-1.5-0.5-2.2c-0.1-0.8-0.2-1.4-0.2-1.9
			c-1-0.3-2-0.5-3.1-0.6c-1.1-0.2-2.1-0.2-3.2-0.2c-1.5,0-2.8,0.3-3.9,0.8c-1.1,0.5-2.1,1.3-2.8,2.1c-0.7,0.9-1.3,1.8-1.7,2.9
			c-0.4,1.1-0.5,2.1-0.5,3.2c0,1.4,0.2,2.6,0.6,3.7c0.4,1.1,0.9,2.1,1.7,2.9s1.7,1.4,2.9,1.8s2.6,0.6,4.2,0.6c0.6,0,1.2,0,1.7,0
			c0.5,0,0.9,0,1.3-0.1c0.4,0,0.8-0.1,1.2-0.1c0.4-0.1,0.8-0.1,1.2-0.2c0.4-0.1,0.7-0.2,0.8-0.3c0.1-0.1,0.1-0.2,0.1-0.4v-4.7
			c0-0.4,0.1-0.6,0.3-0.8c0.2-0.2,0.6-0.3,1.2-0.3c0.1,0,0.2-0.1,0.2-0.2s0.1-0.2,0.1-0.4c0-0.1,0-0.1,0-0.2c0-0.1,0-0.2-0.1-0.3
			C101.4,478,101.2,478.1,100.8,478.1z"/>
		<path class="st0" d="M132.3,484.9c-0.4-0.1-0.7-0.2-1.2-0.4c-0.4-0.2-0.8-0.5-1.1-1l-4.2-6.2c1-0.4,1.8-1,2.4-1.8
			c0.6-0.8,0.9-1.6,0.9-2.6c0-0.7-0.1-1.4-0.4-2c-0.3-0.6-0.7-1.1-1.2-1.5c-0.5-0.4-1.2-0.8-1.9-1c-0.8-0.2-1.6-0.3-2.6-0.3h-4.1
			c-0.5,0-1.1,0-1.8,0c-0.7,0-1.2-0.1-1.7-0.1c0,0.1-0.1,0.1-0.1,0.2c0,0.1,0,0.2,0,0.2c0,0.2,0,0.3,0.1,0.4
			c0.1,0.1,0.1,0.1,0.2,0.2c0.7,0.1,1.2,0.2,1.5,0.4c0.3,0.2,0.4,0.4,0.4,0.8v13.5c0,0.2,0,0.3-0.1,0.4c0,0.1-0.1,0.2-0.3,0.3
			s-0.3,0.2-0.5,0.2c-0.2,0.1-0.5,0.1-0.9,0.2c-0.2,0-0.3,0.2-0.3,0.5c0,0.1,0,0.1,0,0.2c0,0.1,0,0.2,0.1,0.2c0.5,0,1.1-0.1,1.7-0.1
			c0.6,0,1.2,0,1.9,0c0.9,0,1.8,0,2.5,0c0.8,0,1.4,0.1,1.9,0.1c0-0.2,0.1-0.3,0.1-0.5c0-0.3-0.1-0.5-0.4-0.5
			c-0.8-0.1-1.4-0.2-1.8-0.4c-0.3-0.2-0.5-0.5-0.5-0.9v-5.6h1.2l4.2,6.2c0.4,0.5,0.7,0.9,1.1,1.2c0.4,0.3,0.8,0.5,1.1,0.5
			c0.3,0,0.6,0,1,0c0.4,0,0.8,0,1.2,0c0.4,0,0.8,0,1.1,0c0.4,0,0.6,0,0.8,0c0-0.1,0.1-0.2,0.1-0.3c0-0.1,0-0.2,0-0.2
			c0-0.2,0-0.3-0.1-0.3C132.4,485,132.4,484.9,132.3,484.9z M125.1,474.8c-0.2,0.4-0.4,0.8-0.7,1c-0.3,0.3-0.7,0.4-1.2,0.6
			c-0.4,0.1-0.9,0.2-1.5,0.2h-0.8v-7h0.8c1.4,0,2.3,0.3,2.8,1c0.5,0.6,0.8,1.5,0.8,2.6C125.4,473.8,125.3,474.4,125.1,474.8z"/>
		<path class="st0" d="M161.4,470.4c-0.8-0.8-1.8-1.4-2.9-1.9c-1.1-0.4-2.3-0.7-3.6-0.7c-1.3,0-2.4,0.2-3.5,0.7
			c-1.1,0.5-2.1,1.1-2.9,1.9c-0.8,0.8-1.5,1.8-1.9,2.9c-0.5,1.1-0.7,2.3-0.7,3.5c0,1.3,0.2,2.5,0.7,3.6c0.5,1.1,1.1,2.1,1.9,2.9
			c0.8,0.8,1.8,1.4,2.9,1.9c1.1,0.4,2.3,0.7,3.6,0.7c1.3,0,2.4-0.2,3.5-0.7c1.1-0.5,2.1-1.1,2.9-1.9c0.8-0.8,1.5-1.8,1.9-2.9
			c0.5-1.1,0.7-2.3,0.7-3.5c0-1.3-0.2-2.5-0.7-3.6C162.9,472.2,162.3,471.3,161.4,470.4z M160,480.7c-0.2,0.8-0.6,1.4-1,2
			c-0.4,0.6-1,1-1.6,1.4c-0.6,0.3-1.3,0.5-2,0.5c-0.9,0-1.7-0.2-2.4-0.7c-0.7-0.5-1.3-1.1-1.8-1.9c-0.5-0.8-0.9-1.8-1.1-2.9
			c-0.3-1.1-0.4-2.4-0.4-3.7c0-0.9,0.1-1.8,0.4-2.6c0.3-0.8,0.6-1.4,1.1-1.9c0.4-0.5,1-0.9,1.6-1.2c0.6-0.3,1.2-0.4,1.8-0.4
			c1,0,1.8,0.2,2.6,0.7c0.7,0.5,1.4,1.1,1.9,1.9c0.5,0.8,0.9,1.7,1.1,2.8c0.2,1.1,0.4,2.3,0.4,3.5C160.3,479.1,160.2,480,160,480.7z
			"/>
		<path class="st0" d="M195.8,468.1c-0.4,0.1-0.9,0.1-1.3,0.1c-0.4,0-1,0-1.5,0c-0.5,0-1,0-1.4,0c-0.4,0-0.9-0.1-1.4-0.1
			c0,0.1,0,0.2,0,0.3c0,0.1,0,0.2,0,0.2c0,0.3,0.1,0.5,0.3,0.5c0.7,0.1,1.2,0.2,1.4,0.4c0.3,0.2,0.4,0.4,0.4,0.8v8.2
			c0,2-0.4,3.5-1.1,4.4c-0.7,0.9-1.9,1.4-3.7,1.4c-1.7,0-2.9-0.5-3.6-1.5c-0.7-1-1-2.4-1-4.2v-8.3c0-0.4,0.1-0.6,0.4-0.8
			c0.3-0.2,0.8-0.3,1.5-0.4c0.2,0,0.3-0.2,0.3-0.5c0-0.1,0-0.1,0-0.2c0-0.1,0-0.2,0-0.3c-0.5,0-1.1,0.1-1.8,0.1c-0.7,0-1.3,0-2,0
			c-0.8,0-1.5,0-2.1,0c-0.6,0-1.1-0.1-1.7-0.1c0,0.1-0.1,0.2-0.1,0.3c0,0.1,0,0.2,0,0.2c0,0.3,0.1,0.5,0.3,0.5
			c0.7,0.1,1.2,0.2,1.4,0.4c0.2,0.2,0.3,0.4,0.3,0.8v8.9c0,0.9,0.1,1.8,0.3,2.7c0.2,0.8,0.5,1.6,1.1,2.2c0.5,0.6,1.3,1.1,2.3,1.5
			c1,0.4,2.3,0.5,3.9,0.5c1.3,0,2.5-0.2,3.3-0.5c0.9-0.3,1.6-0.8,2.1-1.4c0.5-0.6,0.9-1.4,1.1-2.2c0.2-0.9,0.3-1.8,0.3-2.8v-8.8
			c0-0.4,0.1-0.6,0.4-0.8c0.3-0.2,0.7-0.3,1.4-0.4c0.2-0.1,0.3-0.2,0.3-0.5c0-0.1,0-0.1,0-0.2C195.8,468.3,195.8,468.2,195.8,468.1z
			"/>
		<path class="st0" d="M217.5,468.2h-4.1c-0.5,0-1.1,0-1.8,0c-0.7,0-1.2-0.1-1.7-0.1c0,0.1-0.1,0.1-0.1,0.2c0,0.1,0,0.2,0,0.2
			c0,0.2,0,0.3,0.1,0.4c0.1,0.1,0.1,0.1,0.2,0.2c0.7,0.1,1.2,0.2,1.5,0.4c0.3,0.2,0.4,0.4,0.4,0.8v13.5c0,0.2,0,0.3-0.1,0.4
			c0,0.1-0.1,0.2-0.3,0.3s-0.3,0.2-0.5,0.2c-0.2,0.1-0.5,0.1-0.9,0.2c-0.2,0-0.3,0.2-0.3,0.5c0,0.1,0,0.1,0,0.2c0,0.1,0,0.2,0.1,0.2
			c0.5,0,1.1-0.1,1.7-0.1c0.6,0,1.2,0,1.9,0c0.9,0,1.8,0,2.5,0c0.8,0,1.4,0.1,1.9,0.1c0-0.2,0.1-0.3,0.1-0.5c0-0.3-0.1-0.5-0.4-0.5
			c-0.8-0.1-1.4-0.2-1.8-0.4c-0.3-0.2-0.5-0.5-0.5-0.9v-5.2h2c1,0,1.8-0.1,2.6-0.4c0.8-0.3,1.4-0.7,1.9-1.1c0.5-0.5,0.9-1,1.2-1.7
			c0.3-0.6,0.4-1.3,0.4-2c0-1.5-0.5-2.7-1.6-3.6C220.9,468.6,219.4,468.2,217.5,468.2z M218.9,476.2c-0.7,0.6-1.6,0.8-2.6,0.8h-0.8
			v-7.4h0.8c1.4,0,2.3,0.3,2.9,1c0.5,0.7,0.8,1.6,0.8,2.8C219.9,474.7,219.5,475.6,218.9,476.2z"/>
	</g>
	<g>
		<path class="st1" d="M201.5,659.8v-5.8h138.8v5.8H201.5z"/>
		<path class="st1" d="M482.3,613.4l3.8-5.4c2.6-3.7,4.2-5.6,4.7-5.6c0.9,0,3.5,1.9,7.8,5.6c4.3,3.8,6.4,6.2,6.4,7.2
			c-0.4,1.5-1.5,2.3-3.5,2.3h-51v35.4c1.6,3.6,3.8,7.7,6.6,12.1c2.5-4.6,4.6-8.8,6.1-12.8c1.7-4.3,3.1-9.4,4.1-15.5
			c1-6,1.4-11.2,1.2-15.3c11.6,2.9,17.3,5,17.3,6.3c0,0.4-0.4,0.8-1.1,1.1l-2.3,1.1c-1,3.5-2.4,7.6-4.3,12.1
			c10.6,3.8,17.1,9.1,19.5,16c1.5,4.3,1.2,7.6-1.1,10c-2.4,2.5-5.2,2.5-8.7,0c-1.4-6-5.3-13.2-11.9-21.5c-4.6,9-10.3,16.1-17.1,21.3
			c6,8.4,13.2,15.7,21.8,22c8.5,6.3,17.4,10.9,26.6,13.8l-0.3,1.6c-2.5,0.6-4.7,1.9-6.6,4.1s-3.2,4.9-3.9,8.2
			c-21.2-11.1-36.5-30.4-45.9-57.9v25.1c0.2,12.1,0.5,23.5,1.1,34.4c-0.6,1.3-2.1,2.7-4.5,4c-2.4,1.3-4.7,2-6.9,2
			c-2.4,0-3.7-1-3.7-2.9c0.6-8.8,1-18.5,1.2-29v-16.1c-6.8,8.4-14.9,16.2-24.4,23.4c-9.5,7.2-19.5,13-30,17.4l-0.9-2.1
			c11.7-6.9,22.7-16.4,32.7-28.3c10.1-11.9,17.6-24.6,22.6-37.9v-32h-29.7c-6,0.1-12.9,0.8-20.9,2.1l-3.8-7.4
			c5.1,0.6,11.2,1,18.6,1.1h35.8c0-10.1-0.5-18.3-1.4-24.5c11.7,3,17.6,5.3,17.6,6.7c0.1,0.4-0.3,0.9-1.1,1.4l-2.4,1.6v14.8H482.3z
			 M414.3,647.1c-6.4,12.1-14.4,21.2-23.9,27.4l-1.8-1.4c4.3-5.4,8.4-12.3,12.1-20.7c1.9-4.3,3.6-9.5,5-15.6
			c1.4-6.1,2.2-11.2,2.3-15.3c11.2,3.5,16.9,5.9,16.9,7.1c0,0.4-0.4,0.8-1.2,1.1l-2.4,1.1c-0.7,2.3-2.3,6-4.6,11.3
			c8,3.5,12.6,8,13.8,13.4c0.8,3.6,0,6.3-2.4,8c-2.4,1.7-5,1.3-7.9-1.1C419.7,657.8,417.7,652.7,414.3,647.1z"/>
		<path class="st1" d="M576.6,614.7H612l3-4.1c2.3-2.8,3.7-4.1,4.2-4.1c0.9,0,3.3,1.8,7.3,5.3c4,3.5,6,5.8,6,6.8
			c-1,1.2-2.9,2.2-5.8,3v62.9c0.2,9.4,0.6,20.9,1.2,34.4c-0.8,1-2.5,2.2-5.1,3.4c-2.6,1.2-5.1,1.9-7.3,1.9c-1.7,0-2.6-1-2.6-3
			c0-0.2,0.2-1.5,0.5-3.9v-3.6h-58v5.6c0,0.9-1.2,2.1-3.5,3.4c-2.3,1.3-4.8,1.9-7.4,1.9c-1.1,0-2-0.3-2.6-0.9c-0.7-0.6-1-1.2-1-2
			c0.8-12.5,1.3-25.2,1.5-38.1v-46.2c0-12.3-0.6-22.3-1.8-30l15.7,7.3h15.3c2.3-9.7,3.1-18.5,2.4-26.4l21.7,4.6
			c-0.5,2.2-2,3.3-4.7,3.4C586.6,603,581.8,609.1,576.6,614.7z M613.3,645.5V619h-58v26.5H613.3z M613.3,677.3v-27.5h-58v27.5H613.3
			z M555.3,681.3v28.2h58v-28.2H555.3z"/>
		<path class="st1" d="M694.1,635.8c10.7-0.3,31.6-1.1,62.9-2.4c-6.7-9.5-13.6-17.3-20.6-23.4l1.4-1.1c18.4,6.4,30.9,15.1,37.4,26.1
			c3.7,6.4,4.7,11.8,2.8,16.3c-1.4,3.4-3.9,4.7-7.3,3.7c-1.1-0.3-2.2-0.8-3.3-1.6c-1.4-4.7-4.1-10-8-16.1
			c-19.2,3.7-48.2,8.4-87.1,14.1c-1,1.8-2.4,2.9-4.1,3.1l-4.2-18c2,0,5.7-0.1,11.2-0.2c5.5-0.1,9.6-0.2,12.5-0.2
			c9.8-19.1,15.9-35.6,18.3-49.4l21.4,8.3c-0.6,2.1-2.4,3-5.2,2.7C714,611.4,704.6,624.1,694.1,635.8z M693.7,711.3v3
			c0.1,0.9,0.2,1.7,0.2,2.4c0,0.8,0.1,1.4,0.1,1.8s0,0.8,0.1,1.2c-0.2,1-1.5,2.2-4,3.4c-2.5,1.2-5,1.9-7.5,1.9c-1.9,0-2.8-1-2.8-2.9
			c0.4-5.3,0.7-12.6,0.9-21.7v-12.3c0-11.7-0.6-21.7-1.9-30l15.7,7h55.6l3-3.9c0.3-0.3,0.6-0.7,0.9-1.1c0.4-0.5,0.7-0.9,0.9-1.1
			c0.2-0.3,0.5-0.6,0.7-0.9c0.3-0.3,0.5-0.6,0.8-0.7c0.3-0.1,0.5-0.2,0.7-0.2c0.9,0,3.4,1.7,7.5,5.1c4.1,3.4,6.1,5.7,6.1,6.7
			c-0.9,1.4-2.9,2.5-6,3.3v16c0.2,13.2,0.5,23.5,0.9,31c-0.6,0.9-2.3,1.8-4.9,2.8s-5,1.5-7.1,1.5c-1.8,0-2.7-1-2.7-3
			c0.1-0.5,0.2-1,0.2-1.4c0-0.5,0.1-1.1,0.1-1.8c0-0.7,0.1-1.4,0.2-2.1v-4H693.7z M693.7,669.5v37.7h57.7v-37.7H693.7z"/>
		<path class="st1" d="M899.6,631.7l2.7-3.9c0.3-0.3,0.6-0.7,1.1-1.4c0.5-0.6,0.8-1.1,1-1.4c0.2-0.3,0.5-0.6,0.8-0.9
			c0.3-0.3,0.6-0.4,0.9-0.4c0.9,0,3.3,1.7,7.2,5c3.9,3.3,5.9,5.5,5.9,6.6c-1.4,1.5-3.3,2.5-5.7,3v69.3c0,5.5-1.1,9.6-3.4,12.2
			c-2.3,2.6-7.1,4.3-14.5,5.1c-0.5-4.8-1.5-8-3.3-9.7c-2.4-2.3-6.5-3.9-12.3-4.7v-2.3c9.6,0.9,15.5,1.3,17.8,1.3c2,0,3-1.1,3-3.3
			v-70.5h-79v49.1c0.2,12.1,0.5,23.5,1.1,34.4c-0.6,1.2-2.1,2.5-4.5,3.7c-2.4,1.2-4.8,1.9-7.3,1.9c-1,0-1.8-0.3-2.5-0.9
			c-0.7-0.6-1-1.2-1-2c0.8-12.5,1.3-25.2,1.5-38.1v-29.5c0-12.2-0.6-22.1-1.8-29.8l15.6,7.1h31.3V614h-31.6
			c-6.5,0.1-13.4,0.8-20.7,2l-3.5-7.4c5.1,0.6,11.2,1,18.4,1.1h37.4c0-8.2-0.4-15.1-1.2-20.8c11.7,2.9,17.5,5,17.5,6.4
			c0.1,0.4-0.3,0.9-1.1,1.4l-2.4,1.6v11.4h32.8l3.8-5.7c0.3-0.4,0.7-0.9,1.2-1.6c0.5-0.7,0.9-1.2,1.2-1.6c0.3-0.3,0.7-0.7,1-1.2
			c0.4-0.5,0.7-0.8,0.9-1c0.3-0.2,0.5-0.3,0.7-0.3c0.9,0,3.5,2,7.9,5.8c4.4,3.9,6.6,6.4,6.6,7.4c-0.2,1.6-1.4,2.4-3.7,2.4h-52.4
			v17.7H899.6z M877.3,684.9l2.8-4.3c0.3-0.3,0.6-0.7,0.9-1.2c0.4-0.5,0.7-0.9,0.9-1.3c0.2-0.3,0.5-0.7,0.7-1
			c0.3-0.3,0.5-0.6,0.8-0.8c0.3-0.2,0.5-0.3,0.7-0.3c0.9,0,3.1,1.5,6.6,4.6c3.5,3.1,5.3,5.2,5.3,6.2c-0.3,1.5-1.4,2.3-3.5,2.3h-26.4
			v9.7c0.3,9.9,0.5,16.1,0.7,18.5c-0.5,0.9-1.7,1.7-3.6,2.6c-1.9,0.9-4.3,1.3-7.1,1.3c-2.1,0-3.1-1-3.1-2.9
			c0.5-4.7,0.8-10.8,0.9-18.4v-10.8h-8.9c-4.5,0.1-9.8,0.8-15.9,2.1l-3.5-7.6c5.1,0.6,11.2,1,18.4,1.1h9.9v-17.8h-8.3
			c-4.6,0.1-9.6,0.8-14.9,2l-3.7-7.4c5.1,0.6,11.2,1,18.4,1.1h19.1c3.3-8.9,5.2-17.6,5.7-26c10.6,3.3,15.9,5.6,15.9,6.8
			c0,0.4-0.4,0.7-1.2,1l-2.4,0.9c-3.8,5.5-8.5,11.3-14.2,17.3h9.5l2.6-3.9c1.9-2.6,3.1-3.9,3.7-3.9c0.9,0,3,1.3,6.2,4
			c3.2,2.7,4.8,4.5,4.8,5.6c-0.5,1.6-1.6,2.4-3.5,2.4h-25.3v17.8H877.3z M836,639.2l1.4-0.9c9.2,2.9,14.6,7.3,16.3,13.1
			c1.2,3.7,0.5,6.6-2,8.7c-2.7,2.2-5.6,1.9-8.5-0.9C842.8,652.2,840.4,645.5,836,639.2z"/>
		<path class="st1" d="M993.1,664.2c-1.9-2-2.8-4.4-2.8-7.3c0-2.9,0.9-5.3,2.8-7.3c1.9-2,4.2-3,6.9-3s5,1,6.9,3
			c1.9,2,2.8,4.4,2.8,7.3c0,2.9-0.9,5.3-2.8,7.3c-1.9,2-4.2,3-6.9,3S995,666.2,993.1,664.2z"/>
		<path class="st1" d="M1167,669.1l3.5-5.3c0.3-0.4,0.6-0.9,1.1-1.6c0.5-0.7,0.8-1.2,1.1-1.5c0.3-0.3,0.6-0.7,0.9-1.1
			c0.4-0.4,0.7-0.7,0.9-0.9c0.3-0.2,0.5-0.3,0.7-0.3c0.9,0,3.5,1.8,7.9,5.5c4.3,3.7,6.5,6,6.5,7.1c-0.5,1.6-1.7,2.4-3.8,2.4h-40.1
			v34.1c5.7,0.9,13.4,1.3,23,1.3c16.4,0,27.2-0.1,32.7-0.3v2c-4.1,1-6.3,4.8-6.6,11.4h-26.7c-16.5,0-29.2-2.5-38-7.4
			c-8.8-4.9-15.7-14.4-20.7-28.2c-8,16.8-19,29.7-33.1,38.5l-1.2-1.4c9.7-9.6,17.3-22.7,22.9-39.4c3.4-9.8,5.1-19.4,4.9-28.7
			c12.1,2.9,18.2,4.9,18.2,6.1c0,0.4-0.4,0.8-1.2,1.1l-2.6,1.3c-1.5,6.2-3.7,12.5-6.4,18.8c5.2,10.7,12.5,17.8,22.1,21.5v-30
			c0-12.3-0.6-22.3-1.8-30c12,3.1,18,5.4,18,6.7c0,0.4-0.4,0.9-1.1,1.4l-2.4,1.6v15.1H1167z M1177.4,640.1l3.5-5.4
			c0.3-0.4,0.6-0.9,1.1-1.6c0.5-0.7,0.8-1.2,1.1-1.5c0.3-0.3,0.6-0.7,0.9-1.1c0.4-0.4,0.7-0.7,0.9-0.9c0.3-0.2,0.5-0.3,0.7-0.3
			c0.9,0,3.5,1.8,7.9,5.5c4.3,3.7,6.5,6,6.5,7.1c-0.3,1.6-1.5,2.4-3.8,2.4h-94.6c-6.7,0.1-13.6,0.8-20.9,2l-3.7-7.3
			c5.1,0.6,11.2,1,18.6,1.1h36.3v-23.5h-17.5c-6,0.1-12.9,0.8-20.9,2.1l-3.5-7.6c6.1,0.8,12.3,1.2,18.4,1.3h23.4
			c0-9.7-0.5-17.6-1.4-23.7c11.7,2.9,17.5,5,17.5,6.4c0.1,0.4-0.3,0.9-1.1,1.4l-2.3,1.6v14.3h22l3.5-5.3c0.3-0.4,0.6-0.9,1.1-1.5
			c0.5-0.6,0.8-1.1,1.1-1.5c0.3-0.4,0.6-0.8,0.9-1.2c0.3-0.4,0.6-0.7,0.9-0.9c0.3-0.2,0.5-0.3,0.7-0.3c0.9,0,3.5,1.8,7.7,5.5
			c4.2,3.7,6.3,6,6.3,7.1c-0.4,1.5-1.6,2.3-3.8,2.3h-40.3v23.5H1177.4z"/>
		<path class="st1" d="M1267.3,616.8h50.8l2.7-3.7c0.3-0.3,0.6-0.7,1.1-1.4c0.5-0.6,0.8-1.1,1-1.4c0.2-0.3,0.5-0.6,0.8-0.9
			c0.3-0.3,0.6-0.4,0.9-0.4c0.9,0,3.3,1.6,7.1,4.9c3.8,3.2,5.8,5.4,5.8,6.4c-1,1.4-2.8,2.4-5.4,3V707c0,5.6-1.2,9.8-3.5,12.5
			c-2.4,2.7-7.4,4.4-15,5.2c-0.6-4.9-1.9-8.1-3.7-9.8c-2.4-2.3-6.9-3.9-13.4-5v-2.3c10.8,0.9,17.3,1.3,19.7,1.3
			c1.3,0,2.1-0.2,2.6-0.7c0.5-0.5,0.7-1.3,0.7-2.6V621h-82.9v63.6c0.2,12.1,0.5,23.5,1.1,34.4c-0.6,1.3-2.1,2.6-4.3,3.9
			c-2.3,1.2-4.7,1.9-7.2,1.9c-1.1,0-2-0.3-2.7-0.9c-0.7-0.6-1.1-1.2-1.1-2c0.9-14.3,1.4-27,1.6-38.1v-44.1c0-11.7-0.6-21.7-1.9-30
			l15.6,7.1h23.6c3.6-10.3,5.6-19.8,6.1-28.5l21.3,6.4c-0.7,1.9-2.4,2.9-5.2,2.9C1277.3,605.5,1272,611.9,1267.3,616.8z
			 M1289.2,642.7l2.6-4c0.2-0.3,0.5-0.7,0.8-1.2c0.4-0.5,0.7-0.9,0.9-1.1c0.2-0.2,0.5-0.5,0.7-0.9c0.3-0.3,0.5-0.6,0.7-0.7
			c0.2-0.1,0.4-0.2,0.6-0.2c0.9,0,3.2,1.7,6.8,5c3.7,3.3,5.5,5.5,5.5,6.6c-1.2,1.4-3,2.5-5.6,3.1v13.7c0.3,11.5,0.6,20.4,0.9,26.5
			c-0.5,1-2,2-4.4,3.1c-2.4,1.1-4.5,1.6-6.4,1.6c-1.7,0-2.6-0.9-2.6-2.9l0.5-5.1V682h-26v4.1c0.3,4.3,0.5,6.7,0.5,7.1
			c-0.3,1.1-1.5,2.3-3.7,3.4c-2.2,1.1-4.4,1.6-6.6,1.6c-0.9,0-1.6-0.3-2.1-0.9c-0.5-0.6-0.7-1.3-0.7-2.1c0.5-4.7,0.8-10.8,0.9-18.4
			v-10.7c0-11.7-0.6-21.7-1.9-30l14.1,6.4H1289.2z M1264.4,646.8v31.1h26v-31.1H1264.4z"/>
		<path class="st1" d="M1373.2,714.1v5.7c0,0.9-1.1,2-3.2,3.3c-2.1,1.2-4.4,1.9-6.8,1.9c-0.9,0-1.7-0.3-2.4-0.9
			c-0.7-0.6-1.1-1.2-1.1-2c0.8-12.5,1.3-25.2,1.5-38.1v-62.5c0-12.3-0.6-22.3-1.8-30l14.9,6.8h83.6l2.8-3.7c0.2-0.3,0.5-0.7,0.8-1.1
			c0.4-0.5,0.7-0.8,0.9-1.1c0.2-0.2,0.5-0.5,0.7-0.8c0.3-0.3,0.5-0.5,0.7-0.6c0.2-0.1,0.4-0.2,0.6-0.2c0.9,0,3.2,1.6,6.8,4.8
			c3.7,3.2,5.5,5.3,5.5,6.3c-1.1,1.4-2.9,2.4-5.4,3v79.2c0.2,12.1,0.5,23.5,1.1,34.4c-0.6,1.1-2.2,2.3-4.6,3.5
			c-2.4,1.2-4.7,1.8-6.8,1.8c-1.7,0-2.6-1-2.6-3l0.5-3.4v-3.3H1373.2z M1373.2,602.7V710h85.9V602.7H1373.2z M1431.4,661.9
			c4.4-9.6,7-19,7.6-28.1c9.8,4.3,14.8,7.1,14.8,8.4c0.1,0.4-0.3,0.7-1.2,1l-2.6,0.7c-3.9,11.5-8.8,21.4-14.6,29.7
			c2.4,5.1,5.5,9.6,9.1,13.4c0.7,1,1.3,1.4,1.8,1.4c0.5,0,0.9-0.6,1.4-1.8c2.2-4.9,3.8-9.7,5-14.3l1.6,0.3l-2,19.5
			c3,5.3,3.8,8.8,2.4,10.4c-1.3,1.6-2.9,2.3-4.9,2.1c-2-0.2-4-0.9-5.9-2.1c-1.9-1.1-3.7-2.6-5.4-4.3c-3.8-4.3-7.3-9.4-10.4-15.3
			c-8.1,9.2-18.1,16.5-30,21.8l-1.1-2c10.5-7,19.6-16.5,27.4-28.5c-4.3-11.3-7.2-26.4-8.5-45.4h-15.7c-5.9,0.1-12.8,0.8-20.7,2.1
			l-3.7-7.6c6.1,0.8,12.3,1.2,18.4,1.3h21.4c-0.2-4.3-0.4-10.9-0.5-19.8c9.6,1.5,14.3,2.9,14.2,4.1c0,0.4-0.4,0.8-1.1,1.3l-2.2,1.3
			c0,2.9,0.1,7.2,0.3,13.1h13.7l3-4.1c-0.7-0.2-1.5-0.5-2.3-1c-0.8-2.3-2.1-4.7-3.9-7.2c-1.8-2.5-3.6-4.5-5.4-5.9l1.1-1.4
			c3,0.2,5.6,0.7,7.9,1.4c2.3,0.8,4,1.6,5.2,2.6c1.2,1,2.1,2.1,2.6,3.3c0.6,1.2,0.9,2.3,0.8,3.4c0,1-0.3,2-0.9,2.9
			c4.1,3.5,6.9,6.2,8.4,8c-0.4,1.5-1.5,2.3-3.5,2.3h-26.4C1427.2,642.2,1428.9,653.2,1431.4,661.9z M1383,696.2
			c-2.3-4.8-4.5-9.6-6.8-14.4c9.4-1.1,22.9-3.5,40.7-7.1l0.3,2c-7.4,4.3-17.8,9.7-31,16.1C1385.5,694.6,1384.4,695.7,1383,696.2z
			 M1401.4,639.8l2.2-2.9c0.2-0.2,0.4-0.5,0.6-0.9c0.2-0.4,0.4-0.7,0.6-0.9c0.2-0.2,0.4-0.4,0.5-0.6c0.2-0.2,0.4-0.4,0.6-0.5
			c0.2-0.1,0.4-0.1,0.6-0.1c0.9,0,2.7,1.2,5.4,3.6c2.7,2.4,4.1,4.2,4.1,5.2c-0.9,1.1-2.3,1.9-4.2,2.1v7.4c0.3,7.4,0.5,12,0.7,13.8
			c-0.5,1-1.6,1.9-3.5,2.9c-1.9,1-3.5,1.4-5.1,1.4h-1.5v-4.6h-10.8v4.3c0,0.3-0.4,0.7-1.1,1.1c-0.7,0.5-1.7,0.9-3,1.4
			c-1.3,0.4-2.5,0.6-3.7,0.6c-1.4,0-2.2-1-2.2-3c0.2-1.4,0.4-4.6,0.7-9.6v-6.6c0-8.2-0.4-14.7-1.1-19.5l11,5.1H1401.4z
			 M1391.7,644.1v17.7h10.8v-17.7H1391.7z"/>
		<path class="st1" d="M1509.7,686v11.7c0.2,9.4,0.5,16.8,0.8,22.3c-0.5,1-1.7,2.1-3.6,3.2c-1.9,1.1-4,1.6-6.6,1.6
			c-0.9,0-1.7-0.3-2.4-0.9c-0.7-0.6-1.1-1.2-1.1-2c0.8-12.5,1.3-25.2,1.5-38.1v-61.5c0-12.3-0.6-22.3-1.8-30l14.6,6.4h9.4l3-3.3
			c0.3-0.3,0.6-0.7,1.1-1.2c0.5-0.5,0.8-0.9,1.1-1.2c0.3-0.3,0.6-0.5,0.9-0.8c0.3-0.2,0.6-0.4,0.9-0.4c0.8,0,2.9,1.8,6.4,5.4
			c3.4,3.6,5.2,5.9,5.2,7c-0.9,1.2-2.8,1.9-5.7,1.9c-7,16.1-12.7,27.6-16.8,34.5c10.9,10.3,16.4,22.2,16.4,35.7
			c0.1,7.2-1.2,12.6-3.7,16.1c-2.6,3.5-6.9,5.4-12.9,5.6c0-4.8-0.5-7.9-1.5-9.6C1513.8,687.6,1512.2,686.7,1509.7,686z
			 M1516.5,683.8c2.1,0,3.5-0.8,4.3-2.5c0.8-1.7,1.2-4.2,1.2-7.6c0-12.5-2.9-23.3-8.8-32.4c3.4-13.2,6.1-25.9,8.1-38.1h-11.7v80.6
			H1516.5z M1562.2,604.2c2.7-2.9,4.7-5.4,6.1-7.6l10.3,10.7c-0.9-3.7-1.6-7.9-2.2-12.7l2-1.1c2.5,12.8,7.6,24.2,15.2,34
			c3.4-7.8,5.9-14.5,7.3-20h-5c-2.6,0.1-5.4,0.8-8.3,2l-3.8-7.4c3.2,0.6,7,1,11.4,1.1h5.3l2.8-3.4c2.1-2.2,3.4-3.3,3.9-3.3
			c0.8,0,2.8,1.7,6,5.1c3.2,3.4,4.7,5.6,4.7,6.6c-0.8,0.8-2.5,1.3-5.2,1.6c-3.7,6.4-9.4,13.1-17.1,20.3c7,7.9,14.8,13.9,23.6,18.1
			l-0.3,1.7c-5.2,0.8-8.6,4.3-10.4,10.6c-14.9-11.6-24.9-29-30-52.1c-0.7,0.7-2.4,1.1-4.9,1.4c-7.2,24.9-21.2,42.8-42,53.5l-1.2-2
			c15.6-11.7,26.3-29.3,32-52.8h-12.1c-0.5,1.1-1.3,2.9-2.6,5.1c6.1,1.4,9.4,3.9,10,7.4c0.5,2.3-0.3,3.9-2.2,4.9
			c-1.7,0.9-3.5,0.5-5.3-1c-0.4-2.6-1.9-5.3-4.5-8.3c-1.8,2.9-3.7,5.8-5.8,8.6c6,2.2,9.3,5.2,9.9,9.1c0.5,2.6-0.3,4.3-2.3,5.3
			c-1.7,0.9-3.4,0.5-5.2-1c-0.5-2.9-2-6.4-4.6-10.7c-3.8,4.7-7.7,8.5-11.7,11.6l-1.6-1.4c4-4.6,8-11.1,12.2-19.7
			c2-4.3,3.7-9.3,5.2-15.1c1.4-5.8,2.3-10.7,2.4-14.8c10.1,2.6,15.2,4.4,15.2,5.6c0,0.3-0.4,0.5-1.1,0.7l-2.4,0.6
			c-0.4,1-1,2.6-1.8,4.7c-0.9,2.1-1.4,3.5-1.7,4.3H1562.2z M1554.8,684.3c4.5,2,6.6,3.4,6.2,4.3c-0.1,0.3-0.5,0.5-1.2,0.6l-2.3,0.1
			c-3,4.9-7.4,9.7-13.2,14.6c-5.8,4.9-11.9,8.9-18.1,11.9l-1.4-2.1c3.4-3,6.1-5.8,8-8.3c3-3.7,5.7-8,8.3-13c2.5-4.9,4.2-9.4,5-13.3
			L1554.8,684.3z M1592.8,669.6l3.1-5c2.3-3.3,3.7-5,4.2-5c0.9,0,3.1,1.7,6.7,5.1c3.6,3.4,5.4,5.7,5.4,6.7c-0.5,1.6-1.6,2.4-3.5,2.4
			h-28.9v34.7c0,5.1-1.1,9-3.2,11.6c-2.1,2.6-6.5,4.1-13.1,4.7c-0.2-4.2-0.9-7-2.3-8.4c-1.9-2.1-5.3-3.5-10.2-4.3v-2
			c7.8,0.6,12.5,0.9,14.1,0.9c1.7,0,2.6-0.9,2.6-2.6v-34.5h-9.1c-5.2,0.1-10.8,0.8-16.7,2l-3.5-7.4c5.1,0.6,11.2,1,18.4,1.1H1592.8z
			 M1592.5,653.7h-26.3c-3.3,0.1-7.1,0.8-11.7,2.1l-3.7-7.6c6.1,0.8,12.1,1.2,18.3,1.3h8.9l2.7-4.6c2.1-3.1,3.4-4.7,3.9-4.7
			c0.9,0,3,1.6,6.2,4.8c3.3,3.2,4.9,5.3,4.9,6.3C1595.6,652.9,1594.5,653.7,1592.5,653.7z M1586.4,682.6l1.4-1
			c13.3,4.9,21.8,11.3,25.5,19.4c2.3,4.9,2.3,8.8,0.1,11.7c-1.9,2.7-4.6,2.9-8,0.7c-0.3-0.1-0.5-0.2-0.7-0.4
			C1602.2,704.6,1596.1,694.5,1586.4,682.6z"/>
		<path class="st1" d="M1659.7,659.8v-5.8h138.8v5.8H1659.7z"/>
	</g>
	<g>
		<g>
			<path class="st1" d="M117.2,1103.4l-2.7,10.8c-1.3,6.2-4.2,9.3-8.7,9.3c-3.6,0-6-1.7-7.2-5c1-7.1,4.2-12.6,9.6-16.3
				c5.4-3.7,11.9-5.6,19.7-5.6c9.2,0,16.4,2.4,21.7,7.1c5.2,4.8,7.9,11.1,7.9,19.1c0,6.3-1.9,11.8-5.7,16.5s-9.4,8.2-16.7,10.3
				c8.6,1.6,15,4.9,19.1,10c4.2,5,6.2,11.3,6.2,18.8c0,8.8-3.2,16.1-9.6,21.8c-6.4,5.7-14.8,8.5-25.3,8.5c-8.6,0-15.5-1.9-20.7-5.7
				c-5.2-3.8-8.3-9.6-9.4-17.3c1.4-3.6,3.8-5.4,7.5-5.4c2.3,0,4.2,0.8,5.4,2.4c1.3,1.6,2.3,4.4,3.3,8.3l2.4,10.8
				c2.5,0.7,5.2,1,8.1,1c7.2,0,12.9-2.2,16.9-6.7c4-4.5,6-10.5,6-18c0-8-2-14.2-6-18.5c-4-4.4-9.8-6.6-17.3-6.6H115v-6.4h5.7
				c6.8,0,12.1-2,16-6.1c3.9-4,5.8-9.8,5.8-17.2c0-6.8-1.6-11.9-4.8-15.5c-3.2-3.6-7.7-5.4-13.6-5.4
				C121.9,1102.5,119.6,1102.8,117.2,1103.4z"/>
			<path class="st1" d="M206.2,1097c9.3,0,17.1,4.5,23.3,13.6c6.2,9.1,9.4,22.9,9.4,41.6c0,19.2-3.1,33.5-9.4,42.7
				c-6.2,9.3-14,13.9-23.3,13.9c-9.5,0-17.4-4.6-23.6-13.9c-6.3-9.3-9.4-23.5-9.4-42.7c0-18.6,3.2-32.5,9.5-41.6
				C189,1101.5,196.8,1097,206.2,1097z M188.5,1152.2c0,33.9,5.9,50.8,17.8,50.8c11.7,0,17.5-16.9,17.5-50.8
				c0-33-5.8-49.5-17.5-49.5C194.4,1102.7,188.5,1119.2,188.5,1152.2z"/>
			<path class="st1" d="M353.1,1091.6l2.7-4.1c2-2.7,3.3-4,3.8-4c0.9,0,3.3,1.7,7,5.1c3.8,3.4,5.7,5.6,5.7,6.6c-1.2,1.4-3,2.4-5.6,3
				v6.3c0.3,7.1,0.5,11,0.5,11.7c-0.4,0.9-1.8,1.8-4.3,2.9c-2.5,1-4.7,1.6-6.7,1.6h-1.9v-6h-76.4v13.7c0,6.1-0.1,12.6-0.4,19.7
				c2.5-2.6,5.2-5.7,8.1-9.3v-0.1l0.4-0.3c5.6-7.4,9.2-14.2,10.8-20.3c10,6,15,9.6,14.9,10.7c-0.1,0.4-0.5,0.6-1.1,0.6l-2,0.1
				c-2.5,3-6.6,6.7-12.1,10.8l1.2,0.6h50.4l1.2-1.6c-3.6-4.1-6.2-8.3-7.9-12.6h-9.5c-5.5,0.1-11.3,0.8-17.5,2l-3.7-7.4
				c5.1,0.6,11.2,1,18.6,1.1h8.9l3.9-6.8l11.1,8c-1.3,1.8-4.2,2.9-8.8,3.1c2.6,3,6.8,5.7,12.5,8.1c5.7,2.3,12,4.1,18.8,5.2v1.9
				c-2.2,0.8-4.1,2.1-5.8,4c-1.7,1.9-2.8,4.1-3.4,6.7c-2.4-1.2-4.4-2.4-6-3.4v22.7c-0.1,0.5-1.1,1.1-3,2s-3.8,1.4-5.6,1.6
				c6.1,4.5,9.1,7.4,9.1,8.7c0,0.5-0.4,0.9-1.2,1.3l-2.3,1v9.7c0.3,9.9,0.5,16.1,0.7,18.5c-0.5,0.9-1.9,1.8-4.3,2.8
				c-2.4,1-4.5,1.5-6.4,1.5h-2.2v-7h-44.7v3.6c0,0.4-0.5,0.9-1.4,1.5c-0.9,0.6-2.3,1.2-3.9,1.7c-1.7,0.5-3.3,0.8-4.8,0.8
				c-0.7,0-1.4-0.3-1.9-0.9c-0.5-0.6-0.8-1.2-0.8-2c0.6-10.3,1-18.7,1.2-25.3v-14.1c-0.5,0.1-1.1,0.1-2,0.1h-1.6v-29.8
				c-3.9,2.2-6.7,3.7-8.4,4.6c-2.1,28.9-10.3,50.9-24.5,66.1l-1.6-1.1c5.9-11.9,9.8-25,11.7-39.4c1.9-14.4,2.8-30.8,2.8-49.2V1107
				c0-8.1-0.5-15.5-1.4-22.1l15.6,6.7H353.1z M354.5,1110.4v-14.7h-76.4v14.7H354.5z M292.8,1176.3l9.1,4h42.7l4.7-5.3v-3.4h-52.2v2
				C297.2,1174.3,295.7,1175.2,292.8,1176.3z M318.3,1167.4V1145h-21.1v22.4H318.3z M301.1,1147.9l1.6-0.7c7,3.1,10.7,7,11.1,11.7
				c0.3,2.9-0.7,4.8-2.8,5.8c-2,1-3.9,0.4-5.7-1.6C305.6,1158.3,304.2,1153.2,301.1,1147.9z M301.1,1193.8h44.7v-9.4h-44.7V1193.8z
				 M301.1,1198v9.6h44.7v-9.6H301.1z M349.3,1152.6c-0.8,0.9-2,1.2-3.7,1c-2.6,3.4-6.4,7.4-11.2,12l-1.4-0.7
				c2.2-8,3.3-14.4,3.3-19.3l13,5.3v-5.8h-21.3v22.4h21.3V1152.6z"/>
			<path class="st1" d="M425.1,1148.6l6.4-9.6c4.3,4.3,7.9,8,10.6,11.1v-32.7c0-12.3-0.6-22.3-1.8-30l12.9,6.1h45l2.3-3.4
				c0.2-0.2,0.6-0.7,1.2-1.6c0.6-0.9,1-1.4,1.4-1.7c0.3-0.3,0.7-0.4,1-0.4c0.9,0,3.1,1.5,6.7,4.5c3.6,3,5.4,5,5.4,6.1
				c-1.3,1.5-3.2,2.5-5.7,2.9v102.7c0,5.2-1,9.1-3,11.6c-2,2.5-6.3,4-12.9,4.7c-0.5-4.2-1.4-7.1-3-8.7c-2.3-2.2-6.1-3.7-11.4-4.6
				v-2.3c8.9,0.8,14.3,1.1,16.1,1.1c2.1,0,3.1-1,3.1-3.1v-65.9c-0.6,0.5-1.4,0.7-2.4,0.7h-17.3v48.2h6.8v-9.3
				c0-11.7-0.6-21.7-1.9-30c7.5,2.7,11.2,4.6,11.1,5.8c0,0.3-0.2,0.6-0.5,0.9l-1.4,0.9v41.5c0,0.6-0.6,1.2-1.9,1.9
				c-1.3,0.7-2.5,1-3.8,1h-1.6v-8.6h-21.5v7.8c0,0.6-0.7,1.2-2.1,2c-1.4,0.8-2.7,1.1-4,1.1h-1.4v-27c0-10.4-0.6-19.5-1.8-27.4
				c7.5,2.7,11.2,4.6,11.1,5.8c0,0.3-0.2,0.6-0.5,0.9l-1.4,0.9v31.7h6.8v-48.2h-5.4c-2.6,0.1-5.7,0.8-9.4,2.1l-3.5-7.3
				c5.1,0.6,11.2,1,18.4,1.1h13.1l5.6-8.3c3.5,3.4,6.5,6.5,8.9,9.1v-35.2h-47v81.7c0.2,11.9,0.5,23.3,1.1,34.2
				c-0.6,1.2-1.8,2.4-3.6,3.5c-1.8,1.1-3.7,1.6-5.9,1.6c-1.8,0-2.7-1-2.7-2.9c0.4-3.8,0.6-8.8,0.8-14.8v-8.8
				c-13.2,7.7-26.7,15.2-40.4,22.4c-0.5,1.9-1.4,3.1-3,3.6l-8-15.4c6-1.1,12.8-2.7,20.5-4.7v-45.4h-5.8c-3,0.1-6.4,0.8-10.3,2.1
				l-3.7-7.6c3.7,0.6,8.2,1,13.4,1.1h6.4v-18.3h-9.5l-0.9-3.9c-3.4,4.1-7,7.6-10.6,10.6l-1.6-1.4c4-5.5,8.2-13.6,12.7-24.4
				c4.2-10.2,6.5-19.7,6.8-28.5c11,3.8,16.5,6.3,16.5,7.6c0,0.4-0.4,0.8-1.2,1.1l-2.6,1c11.7,4.2,18.6,9.5,20.5,15.8
				c1.2,3.5,0.5,6.2-1.9,8.1c-2.3,1.9-4.7,1.8-7.3-0.4c-2.4-6.6-6.6-13.3-12.6-20.3c-4.8,11.2-10.9,21.4-18.4,30.5h20.3l2.8-4.6
				c0.2-0.3,0.5-0.7,0.8-1.3c0.4-0.6,0.7-1,0.9-1.4c0.2-0.3,0.5-0.7,0.7-1.1c0.3-0.4,0.5-0.6,0.7-0.8c0.2-0.1,0.4-0.2,0.6-0.2
				c0.8,0,2.8,1.6,5.8,4.8c3.1,3.2,4.6,5.3,4.6,6.3c-0.1,1.5-1.2,2.3-3.3,2.3h-13.6v18.3H425.1z M395.1,1160.2l1.8-0.4
				c7.5,7.8,11,15.6,10.6,23.4c-0.2,4.6-1.5,7.4-3.9,8.6c-2,0.9-3.9,0.1-5.7-2.3C398.8,1180.7,397.9,1170.9,395.1,1160.2z
				 M442,1151.6c-0.5,0.9-1.4,1.3-3,1.3h-17.5v42.7c3.1-0.8,9.9-2.7,20.5-5.7V1151.6z M435.1,1161.3c4.9,1,6.7,2.1,5.4,3.3
				c-0.2,0.3-0.5,0.5-0.9,0.7l-2.4,1.1c-4.1,10.4-7.7,17.9-10.8,22.7l-2.3-0.9v-0.3c2-10.9,2.8-21,2.6-30.1L435.1,1161.3z
				 M458.3,1103.5l1.6-0.7c7.9,5.5,12.1,11.5,12.5,18c0.2,3.8-0.9,6.3-3.3,7.6c-2.1,1.1-4.2,0.5-6.2-1.9
				C463.2,1119.8,461.6,1112.1,458.3,1103.5z M490.4,1104.7c5.1,1.4,7,2.7,5.8,3.9c-0.3,0.3-0.6,0.5-1.1,0.7l-2.2,0.9
				c-3.6,6.8-8.1,13.7-13.4,20.7l-1.6-0.9c2.6-10.6,3.9-20.3,3.9-29.1L490.4,1104.7z"/>
			<path class="st1" d="M611.7,1091.3l3-4.3c0.3-0.3,0.6-0.7,0.9-1.1c0.4-0.5,0.7-0.9,0.9-1.1c0.2-0.3,0.5-0.6,0.7-0.9
				c0.3-0.3,0.5-0.6,0.8-0.7s0.5-0.2,0.7-0.2c0.9,0,3.2,1.7,6.8,5.1c3.7,3.4,5.5,5.6,5.5,6.6c-0.9,1.3-2.7,2.3-5.4,2.9v32.7h8.5
				l3.1-3.7c2.3-2.6,3.7-3.9,4.2-3.9c0.8,0,3,1.9,6.4,5.6c3.5,3.7,5.2,6.1,5.2,7.1c-1,1-2.7,1.6-5,1.7c-5.2,5.6-10.3,10.4-15.5,14.3
				l-1.5-1c1-3.7,2.2-9,3.7-16h-85.2c0.8,8.8-0.7,15.4-4.6,19.5c-1.7,1.8-3.8,2.6-6.4,2.4c-2.5-0.2-4.2-1.5-5.2-3.8
				c-0.8-2.3-0.9-4.4-0.1-6.3c0.7-1.9,2-3.5,3.9-4.9c2.1-2,3.9-4.9,5.4-8.8c1.5-3.9,2.1-7.8,1.7-11.7h2c1.4,4.1,2.2,7.2,2.6,9.4h9.4
				v-15.7c0-12.3-0.6-22.3-1.8-30l15.9,6.8H611.7z M571.3,1188.4v8.6c0.3,7.1,0.5,12.6,0.8,16.5c-0.4,1.1-1.7,2.3-4.1,3.5
				c-2.4,1.2-4.8,1.8-7.3,1.8c-0.9,0-1.7-0.3-2.3-0.9c-0.6-0.6-0.9-1.2-0.9-2c0.6-8.8,1-18.5,1.2-29v-16c0-12.3-0.6-22.3-1.8-30
				l15.3,7h39l2.7-3.7c0.2-0.3,0.6-0.9,1.2-1.7c0.6-0.9,1.1-1.4,1.4-1.7c0.3-0.3,0.7-0.4,1-0.4c0.9,0,3.3,1.6,7.3,4.9
				c3.9,3.2,5.9,5.4,5.9,6.4c-0.9,1.4-2.7,2.4-5.3,2.9v48.2c0,5.2-1.1,9.1-3.3,11.6c-2.2,2.5-6.9,4.1-14.1,4.8c-0.5-4.4-1.4-7.4-3-9
				c-2.2-2.3-5.9-3.9-11.1-4.7v-2.1c8.5,0.7,13.8,1,15.9,1c1.9,0,2.8-0.9,2.8-2.9v-13.1H571.3z M613.2,1095.4h-42.7v34.7h15.9
				c0-10.7-0.5-19.8-1.6-27.1l14.1,6.4h14.4V1095.4z M612.8,1165.7v-13.4h-41.5v13.4H612.8z M571.3,1170v14.1h41.5V1170H571.3z
				 M613.2,1113.5h-15.7v16.5h15.7V1113.5z"/>
			<path class="st1" d="M670.4,1128.1c2.3-5.5,4.5-12.3,6.4-20.3c1.9-8,2.9-15,2.9-20.8c11.2,3.3,16.8,5.7,16.8,7
				c0,0.4-0.4,0.8-1.1,1.1l-2.6,1.1c-1,2.7-2.9,6.8-5.8,12.6h13.7c0-10.6-0.5-19-1.5-25.3c11.1,2.9,16.7,5.1,16.8,6.6
				c0,0.4-0.4,0.9-1.2,1.4l-2.3,1.6v15.7h11.8l3-5c2.3-3.3,3.7-5,4.2-5c0.9,0,3.2,1.7,6.8,5.1c3.6,3.4,5.4,5.7,5.4,6.7
				c-0.3,1.6-1.4,2.4-3.5,2.4h-27.6v19.3h15l3.3-5c2.3-3.3,3.7-5,4.2-5c0.9,0,3.2,1.7,6.9,5.1c3.7,3.4,5.6,5.6,5.6,6.6
				c-0.4,1.5-1.6,2.3-3.7,2.3h-31.3v17.4h13.3l2.4-3.4c0.3-0.3,0.7-0.8,1.2-1.6c0.5-0.8,0.9-1.3,1.2-1.6c0.3-0.3,0.7-0.5,1-0.5
				c0.9,0,3.3,1.5,7,4.5s5.7,5,5.7,6.1c-1,1.4-2.8,2.4-5.6,3v32c0,5-0.9,8.8-2.6,11.1c-1.7,2.4-5.4,3.9-11,4.4
				c-0.2-4.4-0.7-7.4-1.6-9.2c-0.9-1.8-3-3-6.2-3.6v-2.1c4,0.3,6.5,0.4,7.7,0.4c1.3,0,1.9-0.8,1.9-2.4v-32.8h-14.5v21.1
				c0.2,12.1,0.5,23.5,1.1,34.4c-0.5,1.3-1.9,2.6-4.1,3.8c-2.2,1.2-4.4,1.8-6.6,1.8c-1.1,0-1.9-0.3-2.6-0.9c-0.6-0.6-0.9-1.2-0.9-2
				c0.7-13.7,1.2-26.3,1.4-37.8v-20.4h-14.5v15.5c0.2,12.8,0.5,22.9,0.9,30.1c-0.5,1-1.9,2.1-4,3.2c-2.1,1.1-4.3,1.6-6.6,1.6
				c-0.8,0-1.5-0.3-2-0.9c-0.5-0.6-0.8-1.2-0.8-2c0.4-4.3,0.7-10.2,0.9-17.8v-10.4c0-12.3-0.6-22.3-1.8-30l14.1,6.4h13.7v-17.4
				h-10.6c-5.7,0.1-12.2,0.8-19.7,2.1l-3.7-7.3c5.1,0.6,11.2,1,18.4,1.1h15.4v-19.3h-16c-3.9,6.4-8,11.8-12.3,16.3L670.4,1128.1z
				 M751.2,1157v-32.8c0-11.6-0.6-21.5-1.9-29.8c10.9,2.9,16.4,5.1,16.4,6.4c0,0.4-0.4,0.8-1.1,1.3l-2.3,1.6v45.1
				c0.2,9.4,0.6,20.9,1.2,34.4c-0.5,1.1-1.9,2.2-4,3.2c-2.1,1-4.2,1.5-6.3,1.5c-1,0-1.8-0.3-2.4-0.9c-0.6-0.6-0.9-1.3-0.9-2.1
				C750.5,1174.7,751,1165.4,751.2,1157z M770.4,1219.1c-0.4-4.9-1.5-8.3-3.3-10.1c-1.9-1.8-5.4-3.1-10.5-3.9v-2.3
				c8.5,0.8,13.7,1.1,15.7,1.1c1.9,0,2.8-1,2.8-3v-85.7c0-11.7-0.6-21.7-1.9-30c11.5,3,17.2,5.2,17.1,6.6c0,0.4-0.4,0.8-1.1,1.3
				l-2.3,1.7V1202c0,5.5-1,9.6-3.1,12.1C781.8,1216.7,777.3,1218.3,770.4,1219.1z"/>
			<path class="st1" d="M909.5,1175.6l3-4.4c0.2-0.3,0.5-0.7,0.9-1.3c0.4-0.6,0.7-1,1-1.3c0.3-0.3,0.5-0.6,0.8-1
				c0.3-0.4,0.5-0.6,0.8-0.8c0.3-0.1,0.5-0.2,0.7-0.2c0.9,0,3.1,1.5,6.7,4.6c3.6,3.1,5.4,5.2,5.4,6.2c-0.3,1.6-1.4,2.4-3.3,2.4
				h-15.7c6.9,4.2,10.3,6.8,10.3,7.8c0,0.4-0.5,0.6-1.4,0.7l-2.4,0.1c-5.6,3-12.7,5.8-21.3,8.4c9,4,21.3,6.6,36.7,7.7v1.6
				c-4.9,1.6-7.9,5.8-9.1,12.6c-13.6-2.9-24.4-7.2-32.5-13.1c-8.1-5.8-14.3-14.5-18.6-25.9h-13.1v22.1c4.7-0.6,12.2-1.5,22.5-2.9
				l0.3,2.3c-13.1,5.1-26.9,10.2-41.5,15.1c-0.7,1.7-1.9,2.7-3.4,3l-6.1-14.4c1.1-0.1,2.4-0.2,4.1-0.4c1.6-0.2,3.6-0.4,6-0.6
				c2.4-0.2,4.4-0.5,6.2-0.6v-23.5h-12.9c-2.8,17.1-11.2,29.9-25.2,38.2l-1.2-1.4c6.1-7.1,10.3-15,12.3-23.6
				c2.1-8.6,3.1-18.1,3.1-28.5v-11.3c0-4.9-0.2-8.9-0.7-11.8l14.6,6.7h69.9l3-4.1c0.2-0.3,0.4-0.6,0.7-1.1c0.3-0.4,0.6-0.8,0.8-1.1
				c0.2-0.3,0.5-0.6,0.7-0.9c0.2-0.3,0.4-0.5,0.6-0.7c0.2-0.2,0.4-0.4,0.6-0.5c0.2-0.1,0.4-0.2,0.6-0.2c0.9,0,3.1,1.5,6.5,4.5
				c3.4,3,5.1,5,5.1,6.1c-0.4,1.5-1.6,2.3-3.7,2.3h-86.9v12c0,3.9-0.2,7.6-0.5,11.1H909.5z M896.3,1121.2l5.3-6.6
				c3.8,2.9,7,5.7,9.6,8.3c0-0.2,0.4-1.8,1.1-4.9c0.7-3.1,1.3-5.4,1.6-6.9h-38.8v10c0.2,8.1,0.5,14.5,0.8,19.1
				c-0.5,0.9-1.8,1.7-3.8,2.6c-2,0.9-4.4,1.4-7.3,1.4c-1,0-1.7-0.3-2.2-0.9c-0.5-0.6-0.7-1.3-0.7-2.1c0.5-4.8,0.8-11.1,0.9-19v-11.1
				h-36.3c0.4,4.3-0.2,8-1.6,11.2c-1.4,3.2-3.2,5.4-5.5,6.8c-1.9,1-3.9,1.3-5.9,0.9c-2-0.5-3.4-1.8-4-3.9c-1.2-4,0.4-7.1,4.6-9.4
				c2.3-1.2,4.3-3.4,5.9-6.3c1.6-3,2.2-6.2,1.8-9.6l2.2-0.1c0.8,2.7,1.4,4.8,1.8,6.4h37v-10.6h-17.2c-6.7,0.1-13.6,0.8-20.9,2
				l-3.5-7.3c5.1,0.6,11.2,1,18.4,1.1h61.5l3.1-4.6c2.2-3,3.6-4.6,4.2-4.6c0.9,0,3.2,1.5,7,4.6c3.7,3.1,5.6,5.2,5.6,6.2
				c-0.3,1.6-1.5,2.4-3.7,2.4h-42.3v10.6h37.9l3-3.7c0.2-0.2,0.6-0.7,1.4-1.6c0.7-0.9,1.3-1.4,1.6-1.7c0.4-0.3,0.7-0.4,1.1-0.4
				c0.8,0,2.9,1.8,6.2,5.3c3.3,3.6,4.9,5.9,4.9,6.9c-0.7,0.9-2.4,1.4-5,1.7c-4.6,5.1-9.3,9.2-14.1,12.1l-1.5-1v-0.3
				c-0.5,0.8-1.4,1.1-2.7,1.1h-9.5c-5.4,0.1-11.1,0.8-16.9,2l-3.7-7.4c3.5,0.6,7.7,1,12.6,1.1H896.3z M845.2,1134.9l2.3-3.1
				c1.9-2.2,3.1-3.3,3.5-3.3c0.9,0,2.7,1.1,5.4,3.4c2.7,2.3,4,3.9,4,5c-0.4,1.5-1.5,2.3-3.4,2.3h-10.3c-6,0.1-12.2,0.8-18.6,2
				l-3.7-7.4c4,0.6,8.7,1,14.2,1.1H845.2z M856.5,1125.5h-18.2c-2.5,0.1-5.1,0.8-7.6,2l-3.5-7.4c3.4,0.6,7.5,1,12.2,1.1h5.7l2.3-3.3
				c1.6-2.1,2.8-3.1,3.4-3.1c0.9,0,2.6,1.1,5.2,3.4c2.5,2.2,3.8,3.9,3.8,4.9C859.5,1124.7,858.4,1125.5,856.5,1125.5z M899.3,1161.7
				l3-4c0.3-0.3,0.6-0.7,1.1-1.4c0.5-0.6,0.8-1.1,1-1.4c0.2-0.3,0.5-0.6,0.8-0.9c0.3-0.3,0.6-0.4,0.9-0.4c0.9,0,3,1.4,6.4,4.1
				c3.3,2.8,5,4.7,5,5.7c-0.4,1.5-1.5,2.3-3.4,2.3h-52.6c-6,0.1-12.9,0.8-20.9,2.1l-3.7-7.6c6.1,0.7,12.2,1.1,18.6,1.3H899.3z
				 M907,1179.9h-32.4c3.7,6.1,9.3,11.2,16.7,15.3C897,1190.7,902.2,1185.6,907,1179.9z M911.8,1139.2h-21.3c-2.8,0.1-5.9,0.8-9.2,2
				l-3.7-7.4c4.1,0.6,9,1,14.8,1.1h7l2.6-3.3c0.3-0.3,0.6-0.7,0.9-1.2c0.4-0.5,0.7-0.9,0.9-1.2c0.2-0.3,0.5-0.5,0.7-0.8
				c0.3-0.2,0.5-0.4,0.8-0.4c0.9,0,2.8,1.2,5.6,3.6s4.3,4.2,4.3,5.2C914.9,1138.4,913.8,1139.2,911.8,1139.2z"/>
			<path class="st1" d="M1001.5,1158.5c-1.9-2-2.8-4.4-2.8-7.3c0-2.9,0.9-5.3,2.8-7.3c1.9-2,4.2-3,6.9-3c2.7,0,5,1,6.9,3
				c1.9,2,2.8,4.4,2.8,7.3c0,2.9-0.9,5.3-2.8,7.3c-1.9,2-4.2,3-6.9,3C1005.7,1161.5,1003.4,1160.5,1001.5,1158.5z"/>
			<path class="st1" d="M1140.3,1106c-17.5,1.7-32.3,2.6-44.5,2.6l-0.3-2.6c15-1.8,30.7-4.8,47.1-8.8c16.4-4.1,29.4-8.2,39-12.4
				l13.4,13.8c-1.4,1.4-4.2,1.4-8.3-0.1c-10.3,2.4-21.2,4.4-32.8,6v38.8h31.4l3.9-6.1c2.6-4.1,4.3-6.1,5-6.1c0.9,0,3.6,2.1,8.2,6.3
				c4.6,4.2,6.8,6.8,6.8,7.8c-0.4,1.5-1.6,2.3-3.8,2.3H1154v32.4c0.2,11.9,0.5,23.3,1.1,34.2c-0.7,1.1-2.2,2.3-4.5,3.4
				c-2.3,1.1-4.9,1.7-7.9,1.7c-1.2,0-2.1-0.3-2.8-0.9c-0.7-0.6-1.1-1.2-1.1-2c0.8-12.5,1.3-25.2,1.5-38.1v-30.8h-30.9
				c-5.9,0.1-12.8,0.8-20.7,2.1l-3.7-7.6c6.1,0.8,12.3,1.2,18.4,1.3h36.9V1106z"/>
			<path class="st1" d="M1255.2,1126.6l2.7-5.4c2.1-3.6,3.4-5.4,3.9-5.4c0.8,0,2.8,1.9,5.9,5.6c3.1,3.7,4.7,6.1,4.7,7.1
				c-0.3,1.6-1.4,2.4-3.5,2.4h-16.9v45.9c6.8-2.3,14.1-4.8,22-7.4l0.4,1.7c-15.8,11.1-30,20.4-42.4,27.8c-0.6,2-1.7,3.3-3.1,4
				l-6.2-16.7c2.3-0.6,8.1-2.3,17.2-5.3v-50.1h-5c-2.8,0.1-5.6,0.8-8.5,2l-3.5-7.4c3.3,0.6,7.2,1,11.7,1.1h5.4v-10
				c0-12.3-0.6-22.3-1.8-30c11.7,2.9,17.5,5.2,17.6,6.7c0,0.4-0.4,0.8-1.1,1.3l-2.6,1.6v30.4H1255.2z M1325.5,1095.7l3.3-5.6
				c2.4-3.7,3.9-5.6,4.5-5.6c0.9,0,3.3,1.9,7.2,5.7c3.9,3.8,5.8,6.2,5.8,7.3c-0.4,1.5-1.6,2.3-3.7,2.3h-30.5v60.2h16.3l3.7-5.7
				c2.6-3.8,4.2-5.7,4.7-5.7c0.9,0,3.4,2,7.4,5.9c4,3.9,6,6.4,6,7.5c-0.4,1.5-1.6,2.3-3.8,2.3h-34.3v17.1
				c0.2,11.6,0.5,22.6,1.1,33.1c-0.8,1.1-2.3,2.2-4.3,3.2c-2.1,1-4.5,1.5-7.3,1.5c-1,0-1.8-0.3-2.5-0.9c-0.7-0.6-1-1.2-1-2
				c0.7-12.1,1.2-23.3,1.4-33.7v-18.4h-13c-6.7,0.1-13.6,0.8-20.9,2l-3.5-7.4c5.1,0.6,11.2,1,18.4,1.1h19v-60.2h-10.4
				c-5.5,0.1-11.9,0.8-19.2,2.1l-3.4-7.4c5.1,0.6,11.2,1,18.4,1.1H1325.5z M1289.8,1111c5.4,1.3,7.9,2.6,7.6,3.7
				c-0.1,0.4-0.5,0.8-1.4,1.1l-2.6,1c-6.8,16.1-15,28.4-24.8,36.9l-1.6-1.1c2.5-5.4,4.6-10.3,6.1-14.7c3.8-10.6,5.9-20.9,6.2-31
				L1289.8,1111z M1317.9,1110.2l1.6-0.9c12.1,6.7,19.7,14.5,22.9,23.5c2.1,5.8,1.9,10.3-0.5,13.6c-2.2,2.9-4.9,3.3-8.1,1
				c-0.5-0.3-1-0.7-1.5-1.1C1331,1135.9,1326.2,1123.8,1317.9,1110.2z"/>
			<path class="st1" d="M1442.1,1154.6l3.1-4.4c0.3-0.4,0.7-1,1.4-2c0.6-0.9,1.1-1.6,1.5-2c0.4-0.4,0.7-0.6,1.1-0.6
				c0.9,0,3.1,1.5,6.6,4.6c3.5,3.1,5.3,5.2,5.3,6.2c-0.4,1.5-1.5,2.3-3.5,2.3h-22.6c2.5,7.4,6.4,14.2,11.7,20.3
				c8.4-7.2,14.4-14.1,18-20.5c8.6,6.9,12.9,11,12.9,12.3c0,0.4-0.4,0.6-1.2,0.7l-2.6,0.1c-7.6,4.1-15.7,7.5-24.4,10.3
				c8.8,8.8,20.6,15.4,35.6,19.5l-0.1,1.4c-5,1.1-8.4,5.2-10.3,12.1c-11.3-5.5-20.4-12.7-27.2-21.5c-6.9-8.8-11.9-20.4-15.2-34.7
				h-4.1c-2.5,1.8-5.4,3.4-8.5,4.9c5.7,4.9,9.9,10.9,12.7,17.8c2.8,6.9,4,13.3,3.6,19.1c-0.4,5.8-1.8,10.3-4.3,13.4
				c-2.5,3.3-7.9,5-16,5c-0.1-3.4-0.9-6-2.6-7.7c-1.5-1.3-4.8-2.6-9.8-3.9v-2c5.8,0.6,11.1,0.9,15.9,0.9c1.4,0,2.3-0.4,2.8-1.1
				c1.8-2.7,2.6-7,2.4-13.1c-17.3,10.3-37,17.6-59.1,22.1l-0.8-2.4c10.7-3.2,21.3-7.8,32-13.6c10.7-5.8,19.4-11.9,26.3-18.3
				c-0.6-2.1-1.1-3.4-1.4-4c-15.5,9-33.3,15.5-53.4,19.4l-0.8-2.6c9.1-2.6,18.3-6.3,27.6-11.1c9.3-4.8,16.8-9.8,22.6-14.9l-1.2-1.7
				c-12.7,5.7-28,9.7-45.8,12l-0.9-2.1c15.2-4,28.3-9.4,39.4-16.1h-6.9c-3.9,0.1-8,0.8-12.5,2l-3.5-7.3c5.1,0.6,11.2,1,18.4,1.1
				H1442.1z M1467.4,1140.9l3.1-3.4c2.3-2.5,3.7-3.7,4.2-3.7c0.8,0,2.9,1.8,6.3,5.4c3.4,3.6,5.1,5.9,5.1,7c-0.7,0.8-2.4,1.2-5,1.4
				c-5.7,4.7-11.2,8.3-16.7,11l-1.4-1c2-5,3.5-9.2,4.5-12.4h-84.4c0.1,4.6-0.6,8.4-2,11.6c-1.4,3.1-3.4,5.4-5.8,6.7
				c-2.1,1.1-4.2,1.4-6.4,0.8c-2.2-0.6-3.6-2-4.2-4.2c-1.1-4.2,0.6-7.3,5-9.4c2.5-1.3,4.7-3.6,6.6-6.7c1.9-3.1,2.6-6.5,2.4-10.1
				l1.9-0.1c0.9,2.6,1.6,5,2,7.3H1467.4z M1462.8,1099.8l3.4-5.3c0.3-0.4,0.6-0.9,1.1-1.6c0.5-0.7,0.8-1.2,1.1-1.6
				c0.3-0.4,0.6-0.8,0.9-1.2c0.3-0.4,0.6-0.7,0.9-0.9c0.3-0.2,0.5-0.3,0.7-0.3c0.9,0,3.4,1.9,7.5,5.6c4.1,3.8,6.1,6.2,6.1,7.2
				c-0.4,1.5-1.5,2.3-3.4,2.3h-92c-6.7,0.1-13.6,0.8-20.9,2l-3.4-7.4c5.1,0.6,11.2,1,18.4,1.1h34.6c0-7-0.3-12.8-0.9-17.4
				c11.6,2.8,17.3,4.9,17.3,6.3c0.1,0.4-0.3,0.9-1.1,1.4l-2.4,1.6v8.1H1462.8z M1447.1,1112.7l2.6-4c0.3-0.3,0.6-0.7,1.1-1.4
				c0.5-0.6,0.8-1.1,1-1.4c0.2-0.3,0.5-0.6,0.8-0.9c0.3-0.3,0.6-0.4,0.9-0.4c0.9,0,3.2,1.6,6.8,4.8c3.6,3.2,5.4,5.3,5.4,6.3
				c-1,1.2-2.5,2.1-4.6,2.7v5c0.3,5.7,0.5,8.8,0.5,9.4c-0.4,0.8-1.8,1.6-4.4,2.6c-2.6,1-4.9,1.5-6.8,1.5h-2v-4.3h-46.9v1.6
				c0,0.4-0.5,0.9-1.6,1.6c-1.1,0.7-2.5,1.3-4.3,1.8c-1.8,0.5-3.5,0.8-5.1,0.8c-1.5,0-2.3-1-2.3-3c0.2-0.9,0.4-3.5,0.7-7.6v-5.4
				c0-6.7-0.3-12.2-0.9-16.5l14.4,6.7H1447.1z M1401.4,1116.7v11.8h46.9v-11.8H1401.4z"/>
			<path class="st1" d="M1524.2,1177.4c5.1-0.9,13.5-2.7,25.2-5.1l0.3,2c-10.9,6.2-23.8,12.8-38.5,20c-0.7,1.7-1.9,2.9-3.4,3.4
				l-6.9-16c5.9-0.9,9.7-1.6,11.4-1.9v-58.6c0-12.3-0.6-22.3-1.8-30l16.3,8.4c15.3-5.6,26.9-11,35-16.1l13.6,13.6
				c-1.4,1.4-4,1.4-7.9,0c-4.2,1.1-8.5,2.1-12.9,2.9c-0.5,11.1-0.4,22.5,0.4,34.1h6.1l2.8-4.7c2.1-3.1,3.4-4.7,3.9-4.7
				c0.8,0,2.9,1.6,6.2,4.9c3.3,3.2,4.9,5.4,4.9,6.4c-0.5,1.6-1.6,2.4-3.5,2.4h-20.2c1.7,18.4,5.2,31.3,10.3,38.9
				c1.3,1.9,2.3,1.8,3-0.4c1.4-2.5,3-7,4.9-13.6l1.6,0.3l-1.9,19.8c1.4,3.3,2.1,5.8,2.4,7.6c0.2,1.7-0.2,3.2-1.3,4.6
				c-2.7,1.9-5.5,2.2-8.5,0.9s-5.4-3.4-7.2-6.5c-7.8-11.8-12.6-29-14.4-51.6h-19.9V1177.4z M1565.1,1211.2h-37.3
				c-5.4,0.1-11.1,0.8-16.9,2l-3.5-7.4c5.1,0.6,11.2,0.9,18.4,1.1h22.5l3.4-5.3c0.3-0.4,0.6-0.9,1-1.5c0.4-0.6,0.7-1.1,1-1.5
				c0.3-0.4,0.5-0.8,0.8-1.2c0.3-0.4,0.5-0.7,0.8-0.9c0.3-0.2,0.5-0.3,0.7-0.3c0.9,0,3.2,1.8,7,5.5c3.7,3.7,5.6,6,5.6,7.1
				C1568.4,1210.4,1567.2,1211.2,1565.1,1211.2z M1542.8,1102.3c-6.7,1.1-12.9,2-18.6,2.4v29.4h19.7
				C1543.1,1124.8,1542.8,1114.2,1542.8,1102.3z M1608.9,1099.5h-17.6v80.3c0.2,11.9,0.5,23.3,1.1,34.2c-0.7,1.1-2,2.3-3.9,3.4
				c-1.9,1.1-4.2,1.6-6.8,1.6c-1.1,0-2-0.3-2.7-0.9c-0.7-0.6-1.1-1.2-1.1-2c0.9-14.3,1.4-27,1.6-38.1v-60.8c0-11.7-0.6-21.7-1.9-30
				l15.3,8h15.2l3.1-3.9c2.4-2.6,3.9-3.9,4.3-3.9c0.8,0,3.2,2,7,6.1c3.9,4,5.8,6.6,5.8,7.6c-0.9,1-2.9,1.7-6.1,1.9
				c-7.1,16.2-13.4,28.4-18.8,36.7c13.7,10.7,20.6,23.3,20.6,37.9c0.1,7.7-1.3,13.4-4.3,17.2c-2.9,3.8-8,5.7-15.1,5.9
				c0-5.6-0.6-9.2-1.9-10.8c-1-1.5-3.2-2.6-6.5-3.1v-2.3h9.4c1.4,0,2.4-0.2,3.1-0.7c2.2-1.5,3.3-4.7,3.3-9.6
				c0-12.5-3.9-23.8-11.8-34.1C1603.8,1126.7,1606.7,1113.1,1608.9,1099.5z"/>
			<path class="st1" d="M1723,1172.9l2.4-3.7c1.9-2.6,3.1-3.9,3.7-3.9c0.9,0,3.1,1.5,6.5,4.6c3.4,3.1,5.2,5.2,5.2,6.2
				c-0.7,1-2,1.8-3.9,2.3v12c0.2,9.9,0.5,17.6,0.8,23.3c-0.5,0.9-2.1,2-4.6,3.2c-2.5,1.2-4.8,1.8-6.9,1.8h-2.2v-7h-43.9v3.1
				c0,0.8-1.2,1.7-3.6,2.8c-2.4,1.1-4.8,1.6-7.3,1.6c-0.8,0-1.5-0.3-2.1-0.9c-0.6-0.6-0.9-1.2-0.9-2c0.6-9.4,1-19.9,1.2-31.5v-17.1
				c-2,1.3-4.2,2-6.8,2h-2.2v-40.7c-6.7,3.2-12.3,5.7-16.8,7.3l-0.9-2c14.1-7.4,27.2-17.7,39.2-30.8c7-7.6,11.2-15.1,12.9-22.4
				l21.4,6.7c-0.4,1.6-2.4,2.6-6.1,3c5.8,6,13.8,11.3,24.1,15.8c10.3,4.6,20.9,8.2,32.1,10.8v2.3c-2.6,0.8-4.8,2.4-6.6,4.9
				c-1.8,2.5-2.9,5.1-3.4,8c-4.6-1.9-9.4-4.3-14.2-7.1c7,5.3,9.7,8.4,8.3,9.1c-0.2,0.1-0.4,0.2-0.5,0.3l-1.8,0.6v9.6
				c0.3,9.8,0.5,15.9,0.7,18.3c-0.5,0.9-1.8,1.8-4.1,2.9c-2.3,1-4.4,1.6-6.2,1.6h-2v-4.6h-64.4v1.7c0,0.8-0.6,1.6-1.9,2.4l12.7,5.6
				H1723z M1663.3,1126.6l8.4,3.7h61.7l5.2-5.7c-14.7-8.8-25.5-19.6-32.4-32.2C1697,1104.6,1682.7,1116,1663.3,1126.6z
				 M1696.6,1134.5h-26.7v24.4h26.7V1134.5z M1674.9,1137.1l1.6-1c7.9,3.4,12.4,7.8,13.4,13c0.6,3.3-0.1,5.8-2.3,7.4
				c-2.3,1.5-4.6,1-6.9-1.4C1680.7,1149.6,1678.8,1143.6,1674.9,1137.1z M1721,1122.2h-25.9c-3.6,0.1-7.4,0.8-11.4,2l-3.7-7.4
				c5.1,0.6,11.2,1,18.3,1.1h8.9l2.7-3.9c2.1-2.8,3.4-4.1,3.9-4.1c0.9,0,2.9,1.4,5.9,4.2c3,2.8,4.5,4.7,4.5,5.8
				C1724,1121.5,1722.9,1122.2,1721,1122.2z M1724,1190.1V1177h-43.9v13.1H1724z M1680.1,1194.4v13h43.9v-13H1680.1z M1707.4,1158.9
				h5.2c3.3-8.9,5.3-16.9,5.8-23.8c9.2,3.2,13.9,5.5,14,6.8c0,0.4-0.5,0.8-1.4,1.1l-2.4,0.9c-2.8,4.1-7,9.1-12.6,15h18.3v-24.4
				h-26.8V1158.9z"/>
			<path class="st1" d="M1821.8,1121.9l2.6-4.3c0.2-0.3,0.5-0.7,0.8-1.2c0.4-0.5,0.7-0.9,0.9-1.1c0.2-0.2,0.5-0.5,0.7-0.9
				c0.3-0.3,0.5-0.6,0.7-0.7c0.2-0.1,0.4-0.2,0.6-0.2c0.9,0,3.3,1.7,7,5.2c3.8,3.5,5.7,5.7,5.7,6.8c-1,1.4-2.8,2.4-5.6,3v13.6
				c0.3,11.6,0.6,20.4,0.9,26.5c-0.5,0.9-2.1,1.8-4.6,2.8c-2.5,1-4.8,1.5-6.8,1.5c-1.7,0-2.6-0.9-2.6-2.9c0-0.1,0.2-1,0.5-2.7v-3
				H1800c-1.5,24-8.2,42.4-19.9,55.2l-1.8-1.4c3.1-6.9,5.4-15.2,7-24.8c1.6-9.6,2.6-17.8,2.8-24.8c0.3-6.9,0.4-15.9,0.4-26.8v-22.8
				c0-9.7-0.5-17.6-1.4-23.7l12.2,4.6c11.3-6.1,19.6-11.5,24.9-16.1c7.9,6.7,12,10.7,12.1,12c0,0.6-0.7,0.8-2.2,0.7l-3.8-0.3
				c-8.6,2.9-18.5,5.5-29.8,7.6v18.3H1821.8z M1800.3,1160h22.6v-33.8h-22.2v15.8C1800.7,1149.9,1800.6,1155.8,1800.3,1160z
				 M1858,1133.1h26.6l3.1-5.1c0.3-0.4,0.6-0.9,1-1.5c0.4-0.6,0.7-1.1,0.9-1.5c0.2-0.4,0.5-0.8,0.8-1.1c0.3-0.4,0.6-0.7,0.9-0.9
				c0.3-0.2,0.5-0.3,0.7-0.3c0.9,0,3.2,1.8,6.9,5.3c3.7,3.5,5.6,5.8,5.6,6.8c-0.5,1.6-1.7,2.4-3.7,2.4h-12.6v42.9
				c0.2,11.9,0.5,23.3,1.1,34.2c-0.7,1-2.1,2.1-4.2,3.1c-2.1,1-4.5,1.6-7.3,1.6c-1.1,0-2-0.3-2.6-0.9c-0.7-0.6-1-1.2-1-2
				c0.8-12.5,1.3-25.2,1.5-38.1v-40.9H1858c-0.1,6.1-0.4,11.7-0.8,16.7c-0.5,5-1.4,10.7-2.8,17c-1.4,6.3-3.4,12.1-5.8,17.3
				c-2.4,5.2-5.8,10.5-10.1,15.8c-4.3,5.3-9.4,10.1-15.2,14.3l-1.4-1.6c5-5.8,9.1-12.1,12.4-19c3.3-6.8,5.7-14,7.3-21.4
				c1.6-7.4,2.6-14.4,3.2-20.8c0.5-6.5,0.8-13.7,0.8-21.8v-20c0-8.1-0.4-15-1.2-20.7l15,5.8c11.7-5.6,20.7-10.7,27.2-15.4l14.4,13.6
				c-1.6,1.4-4.2,1.5-7.9,0.1c-11.4,3-23.1,5.3-35.1,6.8V1133.1z"/>
		</g>
		<g>
			<path class="st1" d="M106.5,1436.5h54.1v13.7H96.3v-10.6c2-2.4,5.7-6.8,11.2-13.3c5.5-6.5,9.5-11.3,12-14.3
				c7.8-9.2,13.3-17,16.7-23.4c3.4-6.4,5.1-12.8,5.1-19.4c0-6.9-1.7-12.5-4.9-16.8c-3.3-4.2-7.8-6.3-13.5-6.3c-2.4,0-4.9,0.3-7.3,1
				l-3.4,12.4c-1.4,7-4.3,10.6-8.7,10.6c-3.5,0-6.1-1.8-7.7-5.3c0.8-7.8,4.2-13.8,10.2-18.1c6-4.3,13.2-6.4,21.6-6.4
				c9.7,0,17,2.6,21.9,7.8c4.9,5.2,7.4,12.2,7.4,21c0,6.7-2.3,13.2-6.8,19.6c-4.5,6.4-13.1,16.2-25.9,29.3c-1.5,1.5-4.4,4.5-8.5,8.9
				C111.5,1431.2,108.5,1434.5,106.5,1436.5z"/>
			<path class="st1" d="M173,1414.3v-9.6h36.6v9.6H173z"/>
			<path class="st1" d="M291.1,1407.5v10.8h-15.9v31.8h-14v-31.8H220v-8.8l45-68.2h10.2v66.2H291.1z M227.8,1407.5h33.5v-51.2
				L227.8,1407.5z"/>
			<path class="st1" d="M399.6,1356.4l2.7-4.1c0.3-0.4,0.7-1,1.3-1.9c0.6-0.9,1-1.5,1.4-1.9c0.3-0.3,0.7-0.5,1-0.5
				c0.9,0,3.3,1.7,7.2,5.1c3.9,3.4,5.8,5.6,5.8,6.6c-0.8,1.4-2.5,2.4-5.1,3v7.4c0.3,7.4,0.5,12,0.7,13.8c-0.5,1-2,2-4.5,3.1
				c-2.6,1.1-4.9,1.6-7,1.6h-1.9v-6.3h-71.8c0,6.2-0.3,12.5-0.8,18.8h33.6c0-6.8-0.3-12.6-0.9-17.1c10.8,2.9,16.1,4.9,16,6.3
				c0,0.3-0.3,0.6-0.8,1l-1.8,1.4v8.4h30.4l3.3-4.7c0.3-0.4,0.6-0.8,0.9-1.4c0.4-0.5,0.7-1,0.9-1.4c0.2-0.4,0.5-0.7,0.7-1.1
				c0.3-0.3,0.5-0.6,0.8-0.8c0.3-0.2,0.5-0.3,0.7-0.3c0.9,0,3.2,1.6,7,4.9c3.7,3.3,5.6,5.4,5.6,6.5c-0.5,1.6-1.7,2.4-3.7,2.4h-51.1
				c-0.5,4.9-1.3,9.4-2.2,13.4h27.6l2.8-3.4c2.1-2.2,3.4-3.3,3.9-3.3c0.9,0,3.1,1.5,6.7,4.6c3.6,3.1,5.4,5.2,5.4,6.2
				c-1,1.1-2.8,1.9-5.3,2.1c-1.4,18.1-4.8,29.1-10.4,33.2c-4.2,2.7-9.1,4-14.9,4c0-4.4-0.8-7.4-2.4-9c-2.3-2.2-6.3-3.8-12.1-4.7
				v-2.3c10.6,0.9,16.2,1.3,16.9,1.3c2,0,3.5-0.4,4.6-1.3c2.5-2.2,4.4-9.9,5.7-23.3h-29.8c-2.7,8.2-7.7,15.5-15,22
				c-7.3,6.5-18.1,12.2-32.4,17l-1.4-2c6.4-3.2,11.9-6.7,16.6-10.4c4.7-3.7,8.3-7.2,10.9-10.6c2.6-3.3,4.7-7.1,6.3-11.3
				c1.6-4.2,2.6-7.9,3.1-11.1c0.5-3.2,0.8-7,1-11.4h-27.6c-3.1,24.6-11.9,43.2-26.6,55.6l-1.6-1.3c6.8-10.6,11.3-22.3,13.5-35.4
				c2.2-13,3.3-28,3.3-44.9v-21.7c0-8.8-0.4-16.3-1.2-22.4l12.9,5.7c29.9-3.8,54.1-8.7,72.6-14.7l12.5,14c-1.6,1.4-4.3,1.3-8.1-0.4
				c-25.7,2.9-51,4.3-76.2,4v12.4H399.6z M401.1,1378.1v-17.7h-71.8v17.7H401.1z"/>
			<path class="st0" d="M499.4,1467.7v-146.1h5.4v146.1H499.4z"/>
			<path class="st0" d="M597.8,1451.9v5.7c0,0.9-1.1,2-3.2,3.3c-2.1,1.2-4.4,1.9-6.8,1.9c-0.9,0-1.7-0.3-2.4-0.9
				c-0.7-0.6-1.1-1.2-1.1-2c0.8-12.5,1.3-25.2,1.5-38.1v-62.5c0-12.3-0.6-22.3-1.8-30l14.9,6.8h83.6l2.8-3.7
				c0.2-0.3,0.5-0.7,0.8-1.1c0.4-0.5,0.7-0.8,0.9-1.1c0.2-0.2,0.5-0.5,0.7-0.8s0.5-0.5,0.7-0.6c0.2-0.1,0.4-0.2,0.6-0.2
				c0.9,0,3.2,1.6,6.8,4.8c3.7,3.2,5.5,5.3,5.5,6.3c-1.1,1.4-2.9,2.4-5.4,3v79.2c0.2,12.1,0.5,23.5,1.1,34.4
				c-0.6,1.1-2.2,2.3-4.6,3.5c-2.4,1.2-4.7,1.8-6.8,1.8c-1.7,0-2.6-1-2.6-3l0.5-3.4v-3.3H597.8z M597.8,1340.4v107.3h85.9v-107.3
				H597.8z M655.9,1399.6c4.4-9.6,7-19,7.6-28.1c9.8,4.3,14.8,7.1,14.8,8.4c0.1,0.4-0.3,0.7-1.2,1l-2.6,0.7
				c-3.9,11.5-8.8,21.4-14.6,29.7c2.4,5.1,5.5,9.6,9.1,13.4c0.7,1,1.3,1.4,1.8,1.4c0.5,0,0.9-0.6,1.4-1.8c2.2-4.9,3.8-9.7,5-14.3
				l1.6,0.3l-2,19.5c3,5.3,3.8,8.8,2.4,10.4c-1.3,1.6-2.9,2.3-4.9,2.1c-2-0.2-4-0.9-5.9-2.1c-1.9-1.1-3.7-2.6-5.4-4.3
				c-3.8-4.3-7.3-9.4-10.4-15.3c-8.1,9.2-18.1,16.5-30,21.8l-1.1-2c10.5-7,19.6-16.5,27.4-28.5c-4.3-11.3-7.2-26.4-8.5-45.4h-15.7
				c-5.9,0.1-12.8,0.8-20.7,2.1l-3.7-7.6c6.1,0.8,12.3,1.2,18.4,1.3H640c-0.2-4.3-0.4-10.9-0.5-19.8c9.6,1.5,14.3,2.9,14.2,4.1
				c0,0.4-0.4,0.8-1.1,1.3l-2.2,1.3c0,2.9,0.1,7.2,0.3,13.1h13.7l3-4.1c-0.7-0.2-1.5-0.5-2.3-1c-0.8-2.3-2.1-4.7-3.9-7.2
				c-1.8-2.5-3.6-4.5-5.4-5.9l1.1-1.4c3,0.2,5.6,0.7,7.9,1.4c2.3,0.8,4,1.6,5.2,2.6c1.2,1,2.1,2.1,2.6,3.3c0.6,1.2,0.9,2.3,0.8,3.4
				c0,1-0.3,2-0.9,2.9c4.1,3.5,6.9,6.2,8.4,8c-0.4,1.5-1.5,2.3-3.5,2.3h-26.4C651.7,1379.9,653.4,1390.9,655.9,1399.6z
				 M607.5,1433.9c-2.3-4.8-4.5-9.6-6.8-14.4c9.4-1.1,22.9-3.5,40.7-7.1l0.3,2c-7.4,4.3-17.8,9.7-31,16.1
				C610,1432.3,609,1433.4,607.5,1433.9z M625.9,1377.5l2.2-2.9c0.2-0.2,0.4-0.5,0.6-0.9c0.2-0.4,0.4-0.7,0.6-0.9
				c0.2-0.2,0.4-0.4,0.5-0.6c0.2-0.2,0.4-0.4,0.6-0.5c0.2-0.1,0.4-0.1,0.6-0.1c0.9,0,2.7,1.2,5.4,3.6c2.7,2.4,4.1,4.2,4.1,5.2
				c-0.9,1.1-2.3,1.9-4.2,2.1v7.4c0.3,7.4,0.5,12,0.7,13.8c-0.5,1-1.6,1.9-3.5,2.9c-1.9,1-3.5,1.4-5.1,1.4H627v-4.6h-10.8v4.3
				c0,0.3-0.4,0.7-1.1,1.1c-0.7,0.5-1.7,0.9-3,1.4c-1.3,0.4-2.5,0.6-3.7,0.6c-1.4,0-2.2-1-2.2-3c0.2-1.4,0.4-4.6,0.7-9.6v-6.6
				c0-8.2-0.4-14.7-1.1-19.5l11,5.1H625.9z M616.2,1381.8v17.7H627v-17.7H616.2z"/>
			<path class="st0" d="M734.2,1423.8v11.7c0.2,9.4,0.5,16.8,0.8,22.3c-0.5,1-1.7,2.1-3.6,3.2c-1.9,1.1-4,1.6-6.6,1.6
				c-0.9,0-1.7-0.3-2.4-0.9c-0.7-0.6-1.1-1.2-1.1-2c0.8-12.5,1.3-25.2,1.5-38.1v-61.5c0-12.3-0.6-22.3-1.8-30l14.6,6.4h9.4l3-3.3
				c0.3-0.3,0.6-0.7,1.1-1.2c0.5-0.5,0.8-0.9,1.1-1.2c0.3-0.3,0.6-0.5,0.9-0.8c0.3-0.2,0.6-0.4,0.9-0.4c0.8,0,2.9,1.8,6.4,5.4
				c3.4,3.6,5.2,5.9,5.2,7c-0.9,1.2-2.8,1.9-5.7,1.9c-7,16.1-12.7,27.6-16.8,34.5c10.9,10.3,16.4,22.2,16.4,35.7
				c0.1,7.2-1.2,12.6-3.7,16.1c-2.6,3.5-6.9,5.4-12.9,5.6c0-4.8-0.5-7.9-1.5-9.6C738.3,1425.3,736.7,1424.4,734.2,1423.8z
				 M741,1421.5c2.1,0,3.5-0.8,4.3-2.5c0.8-1.7,1.2-4.2,1.2-7.6c0-12.5-2.9-23.3-8.8-32.4c3.4-13.2,6.1-25.9,8.1-38.1h-11.7v80.6
				H741z M786.7,1341.9c2.7-2.9,4.7-5.4,6.1-7.6l10.3,10.7c-0.9-3.7-1.6-7.9-2.2-12.7l2-1.1c2.5,12.8,7.6,24.2,15.2,34
				c3.4-7.8,5.9-14.5,7.3-20h-5c-2.6,0.1-5.4,0.8-8.3,2l-3.8-7.4c3.2,0.6,7,1,11.4,1.1h5.3l2.8-3.4c2.1-2.2,3.4-3.3,3.9-3.3
				c0.8,0,2.8,1.7,6,5.1c3.2,3.4,4.7,5.6,4.7,6.6c-0.8,0.8-2.5,1.3-5.2,1.6c-3.7,6.4-9.4,13.1-17.1,20.3c7,7.9,14.8,13.9,23.6,18.1
				l-0.3,1.7c-5.2,0.8-8.6,4.3-10.4,10.6c-14.9-11.6-24.9-29-30-52.1c-0.7,0.7-2.4,1.1-4.9,1.4c-7.2,24.9-21.2,42.8-42,53.5l-1.2-2
				c15.6-11.7,26.3-29.3,32-52.8H775c-0.5,1.1-1.3,2.9-2.6,5.1c6.1,1.4,9.4,3.9,10,7.4c0.5,2.3-0.3,3.9-2.2,4.9
				c-1.7,0.9-3.5,0.5-5.3-1c-0.4-2.6-1.9-5.3-4.5-8.3c-1.8,2.9-3.8,5.8-5.8,8.6c6,2.2,9.3,5.2,9.9,9.1c0.5,2.6-0.3,4.3-2.3,5.3
				c-1.7,0.9-3.4,0.5-5.2-1c-0.5-2.9-2-6.4-4.6-10.7c-3.8,4.7-7.7,8.5-11.7,11.6l-1.6-1.4c4-4.6,8-11.1,12.2-19.7
				c2-4.3,3.7-9.3,5.2-15.1c1.4-5.8,2.3-10.7,2.4-14.8c10.1,2.6,15.2,4.4,15.2,5.6c0,0.3-0.4,0.5-1.1,0.7l-2.4,0.6
				c-0.4,1-1,2.6-1.8,4.7c-0.9,2.1-1.4,3.5-1.7,4.3H786.7z M779.4,1422c4.5,2,6.6,3.4,6.2,4.3c-0.1,0.3-0.5,0.5-1.2,0.6l-2.3,0.1
				c-3,4.9-7.4,9.7-13.2,14.6c-5.8,4.9-11.9,8.9-18.1,11.9l-1.4-2.1c3.4-3,6.1-5.8,8-8.3c3-3.7,5.7-8,8.3-13c2.5-4.9,4.2-9.4,5-13.3
				L779.4,1422z M817.3,1407.4l3.1-5c2.3-3.3,3.7-5,4.2-5c0.9,0,3.1,1.7,6.7,5.1c3.6,3.4,5.4,5.7,5.4,6.7c-0.5,1.6-1.6,2.4-3.5,2.4
				h-28.9v34.7c0,5.1-1.1,9-3.2,11.6c-2.1,2.6-6.5,4.1-13.1,4.7c-0.2-4.2-0.9-7-2.3-8.4c-1.9-2.1-5.3-3.5-10.2-4.3v-2
				c7.8,0.6,12.5,0.9,14.1,0.9c1.7,0,2.6-0.9,2.6-2.6v-34.5h-9.1c-5.2,0.1-10.8,0.8-16.7,2l-3.5-7.4c5.1,0.6,11.2,1,18.4,1.1H817.3z
				 M817,1391.4h-26.3c-3.3,0.1-7.1,0.8-11.7,2.1l-3.7-7.6c6.1,0.8,12.2,1.2,18.3,1.3h8.9l2.7-4.6c2.1-3.1,3.4-4.7,3.9-4.7
				c0.9,0,3,1.6,6.2,4.8c3.3,3.2,4.9,5.3,4.9,6.3C820.2,1390.6,819,1391.4,817,1391.4z M810.9,1420.3l1.4-1
				c13.3,4.9,21.8,11.3,25.5,19.4c2.3,4.9,2.3,8.8,0.1,11.7c-1.9,2.7-4.6,2.9-8,0.7c-0.3-0.1-0.5-0.2-0.7-0.4
				C826.7,1442.4,820.6,1432.2,810.9,1420.3z"/>
			<path class="st0" d="M956.8,1369.4l2.7-3.9c0.3-0.3,0.6-0.7,1.1-1.4c0.5-0.6,0.8-1.1,1-1.4c0.2-0.3,0.5-0.6,0.8-0.9
				c0.3-0.3,0.6-0.4,0.9-0.4c0.9,0,3.3,1.7,7.3,5c3.9,3.3,5.9,5.5,5.9,6.6c-1.4,1.5-3.3,2.5-5.7,3v69.3c0,5.5-1.1,9.6-3.4,12.2
				c-2.3,2.6-7.1,4.3-14.5,5.1c-0.5-4.8-1.5-8-3.3-9.7c-2.4-2.3-6.5-3.9-12.3-4.7v-2.3c9.6,0.9,15.5,1.3,17.8,1.3c2,0,3-1.1,3-3.3
				v-70.5h-79v49.1c0.2,12.1,0.5,23.5,1.1,34.4c-0.6,1.2-2.1,2.5-4.5,3.7c-2.4,1.2-4.8,1.9-7.3,1.9c-1,0-1.8-0.3-2.5-0.9
				c-0.7-0.6-1-1.2-1-2c0.8-12.5,1.3-25.2,1.5-38.1v-29.5c0-12.2-0.6-22.1-1.8-29.8l15.6,7.1h31.3v-17.7h-31.6
				c-6.5,0.1-13.4,0.8-20.7,2l-3.5-7.4c5.1,0.6,11.2,1,18.4,1.1h37.4c0-8.2-0.4-15.1-1.2-20.8c11.7,2.9,17.5,5,17.5,6.4
				c0.1,0.4-0.3,0.9-1.1,1.4l-2.4,1.6v11.4h32.8l3.8-5.7c0.3-0.4,0.7-0.9,1.2-1.6c0.5-0.7,0.9-1.2,1.2-1.6c0.3-0.3,0.7-0.7,1-1.2
				c0.4-0.5,0.7-0.8,0.9-1c0.3-0.2,0.5-0.3,0.7-0.3c0.9,0,3.5,2,7.9,5.8c4.4,3.9,6.6,6.4,6.6,7.4c-0.2,1.6-1.4,2.4-3.7,2.4h-52.4
				v17.7H956.8z M934.5,1422.6l2.8-4.3c0.3-0.3,0.6-0.7,0.9-1.2c0.4-0.5,0.7-0.9,0.9-1.3c0.2-0.3,0.5-0.7,0.7-1
				c0.3-0.3,0.5-0.6,0.8-0.8c0.3-0.2,0.5-0.3,0.7-0.3c0.9,0,3.1,1.5,6.6,4.6c3.5,3.1,5.3,5.2,5.3,6.2c-0.3,1.5-1.4,2.3-3.5,2.3
				h-26.4v9.7c0.3,9.9,0.5,16.1,0.7,18.5c-0.5,0.9-1.7,1.7-3.6,2.6c-1.9,0.9-4.3,1.3-7.1,1.3c-2.1,0-3.1-1-3.1-2.9
				c0.5-4.7,0.8-10.8,0.9-18.4v-10.8h-8.9c-4.5,0.1-9.8,0.8-15.9,2.1l-3.5-7.6c5.1,0.6,11.2,1,18.4,1.1h9.9v-17.8H903
				c-4.6,0.1-9.6,0.8-14.9,2l-3.7-7.4c5.1,0.6,11.2,1,18.4,1.1h19.1c3.3-8.9,5.2-17.6,5.7-26c10.6,3.3,15.9,5.6,15.9,6.8
				c0,0.4-0.4,0.7-1.2,1l-2.4,0.9c-3.8,5.5-8.5,11.3-14.2,17.3h9.5l2.6-3.9c1.9-2.6,3.1-3.9,3.7-3.9c0.9,0,3,1.3,6.2,4
				c3.2,2.7,4.8,4.5,4.8,5.6c-0.5,1.6-1.6,2.4-3.5,2.4h-25.3v17.8H934.5z M893.2,1377l1.4-0.9c9.2,2.9,14.6,7.3,16.3,13.1
				c1.2,3.7,0.5,6.6-2,8.7c-2.7,2.2-5.6,1.9-8.5-0.9C900,1389.9,897.6,1383.2,893.2,1377z"/>
			<path class="st0" d="M1035.2,1371.5l3-5c0.3-0.4,0.6-0.9,0.9-1.4c0.4-0.6,0.7-1,0.9-1.4c0.2-0.4,0.5-0.7,0.7-1.1
				c0.3-0.3,0.5-0.6,0.7-0.8c0.2-0.2,0.4-0.3,0.6-0.3c0.8,0,2.9,1.7,6.3,5.1s5.1,5.7,5.1,6.7c-0.5,1.6-1.6,2.4-3.5,2.4h-19v8.8
				c10.5,4.2,16.8,9.6,19.1,16.3c1.4,4,0.9,7-1.5,9c-2.3,2-4.9,1.8-7.9-0.7c-1.2-6-4.4-12.8-9.8-20.5v35c0.2,9.2,0.6,20.6,1.2,34.2
				c-0.7,1-2.1,2.1-4.2,3.1c-2.1,1-4.5,1.6-7.2,1.6c-0.9,0-1.7-0.3-2.4-0.9c-0.7-0.6-1-1.2-1-2c0.7-12.9,1.2-24.9,1.4-35.8v-19.5
				c-6.5,11.6-14.4,21.7-23.7,30.2l-1.8-1.7c10.5-14.7,18.3-33.8,23.4-57.1h-6.6c-3.6,0.1-7.4,0.8-11.4,2l-3.7-7.4
				c4.4,0.6,9.8,1,16.1,1.1h7.6v-24c-7.9,1.5-15.4,2.6-22.5,3.1l-0.5-2.1c7.4-2.5,15.1-5.7,23.1-9.8c8-4,14.3-7.9,18.9-11.5
				l14.4,13.7c-1.5,1.4-4.2,1.5-7.9,0.1c-4.8,1.6-9.2,2.9-13.3,3.9v26.5H1035.2z M1101.1,1412.1l3.3-0.7l2.6-6.1
				c1.8-4.1,3-6.1,3.5-6.1c0.9,0,3.1,1.4,6.5,4.3c3.4,2.9,5.2,4.8,5.2,5.8c0,1.8-0.9,2.9-2.8,3.1l-18.2,3.7v14
				c0.3,11.7,0.6,20.6,0.9,26.7c-0.5,1.2-1.9,2.4-4.2,3.6c-2.3,1.2-4.5,1.8-6.6,1.8c-1.2,0-2.1-0.3-2.7-0.9
				c-0.6-0.6-0.9-1.3-0.9-2.1c0.5-8.6,0.9-17.2,1.1-26v-14.4l-43.9,9.3l-1.9-3.9l45.8-9.7v-55.2c0-12.3-0.6-22.3-1.8-30
				c11.7,3.1,17.5,5.4,17.6,6.7c0,0.5-0.4,1-1.1,1.4l-2.3,1.7V1412.1z M1052.7,1378.7l1.2-1c12.3,1.9,20.1,6.2,23.4,13
				c2,3.8,1.9,7.1-0.1,9.9c-2.1,2.8-4.8,3.3-8.1,1.4c-0.5-0.2-0.9-0.4-1.2-0.7c-1-3.6-3-7.5-5.9-11.8
				C1059.1,1385.2,1056,1381.6,1052.7,1378.7z M1055.6,1343.3l1.2-1.1c12.2,2.4,19.9,7,23,13.8c1.9,4,1.8,7.4-0.4,10.1
				c-2.1,2.6-4.8,2.9-8.1,1c-0.4-0.2-0.7-0.4-1.1-0.7c-0.8-3.8-2.6-7.9-5.5-12.2C1061.9,1349.9,1058.8,1346.2,1055.6,1343.3z"/>
		</g>
		<g>
			<path class="st1" d="M1225.8,1343.6l-2.1,36c6.3-2,12.8-3.1,19.6-3.1c12.5,0,22.5,3.5,29.9,10.6c7.4,7.1,11,17,11,29.7
				c0,12.8-4,22.9-12.1,30.4c-8.1,7.5-18.7,11.3-31.9,11.3c-9.8,0-17.8-2.4-23.9-7.1c-6.1-4.7-9.8-11.5-11.2-20.4
				c1.4-4.3,4.4-6.5,8.9-6.5c2.8,0,5,0.9,6.6,2.7c1.6,1.8,2.8,5,3.8,9.6l2.8,13.2c3.6,1,7.2,1.5,11,1.5c8.7,0,15.4-3,20.2-8.9
				c4.8-5.9,7.2-14.1,7.2-24.6c0-10-2.5-17.9-7.5-23.5c-5-5.6-11.8-8.5-20.4-8.5c-5.6,0-11.5,1-17.7,3.1l-4.9-1.9l3.9-60.3h61.5
				v16.6H1225.8z"/>
			<path class="st1" d="M1349,1386c9.7,4.9,16.9,10.4,21.3,16.4c4.5,6,6.7,13.3,6.7,21.7c0,10.4-3.6,18.7-10.8,25
				c-7.2,6.3-16.7,9.5-28.5,9.5c-11.7,0-20.9-2.8-27.7-8.3c-6.8-5.5-10.1-13.2-10.1-23c0-14.1,8.9-25.3,26.8-33.5
				c-15.5-8.8-23.2-21.1-23.2-36.9c0-9.8,3.4-17.7,10.1-23.7c6.8-6,15.2-9,25.4-9c10.2,0,18.2,2.8,24.1,8.5
				c5.9,5.6,8.8,12.8,8.8,21.6C1372,1367.1,1364.4,1377.6,1349,1386z M1338.8,1451.8c6.6,0,11.8-2.1,15.7-6.4
				c3.8-4.3,5.8-9.9,5.8-17c0-6.4-2.1-12-6.2-16.8c-4.2-4.8-11.6-9.8-22.2-14.9c-5.5,4-9.5,8.2-11.9,12.6c-2.4,4.4-3.7,9.8-3.7,16.1
				c0,8.2,2,14.7,6.1,19.4C1326.4,1449.4,1331.9,1451.8,1338.8,1451.8z M1338.8,1331.5c-5.3,0-9.9,1.9-13.7,5.8
				c-3.8,3.9-5.8,8.9-5.8,15c0,12.9,8.2,23.3,24.7,31.3c4.8-4.3,8.1-8.8,10.1-13.3c1.9-4.6,2.9-10,2.9-16.2c0-6.5-1.6-11.9-4.8-16.1
				C1349,1333.7,1344.5,1331.5,1338.8,1331.5z"/>
			<path class="st1" d="M1419.4,1332.4l-3.2,13c-1.5,7.4-5,11.1-10.4,11.1c-4.3,0-7.2-2-8.6-6c1.2-8.5,5-15,11.4-19.5
				c6.4-4.4,14.3-6.7,23.6-6.7c11,0,19.7,2.8,26,8.5c6.3,5.7,9.4,13.3,9.4,22.9c0,7.5-2.3,14.1-6.8,19.7c-4.5,5.6-11.2,9.8-20,12.4
				c10.3,1.9,17.9,5.9,22.9,12c5,6,7.5,13.6,7.5,22.5c0,10.6-3.8,19.3-11.4,26.1c-7.6,6.8-17.7,10.2-30.3,10.2
				c-10.3,0-18.5-2.3-24.7-6.8c-6.2-4.6-10-11.4-11.3-20.7c1.6-4.3,4.6-6.5,8.9-6.5c2.8,0,5,0.9,6.5,2.8c1.5,1.9,2.8,5.2,3.9,10
				l2.9,13c3,0.8,6.3,1.2,9.7,1.2c8.7,0,15.4-2.7,20.2-8c4.8-5.4,7.2-12.5,7.2-21.5c0-9.6-2.4-17-7.1-22.2
				c-4.8-5.2-11.7-7.9-20.8-7.9h-8.1v-7.7h6.8c8.1,0,14.5-2.4,19.1-7.3c4.7-4.8,7-11.7,7-20.6c0-8.1-1.9-14.3-5.8-18.6
				c-3.8-4.3-9.3-6.5-16.3-6.5C1425.1,1331.3,1422.4,1331.7,1419.4,1332.4z"/>
			<path class="st1" d="M1495.4,1459.5l-1.1-5.5c15-5.5,26.6-13,34.6-22.5c8.1-9.5,13.2-21.4,15.5-35.6c-6.3,5.9-14.2,8.9-23.7,8.9
				c-10.4,0-19-3.5-25.7-10.5c-6.8-7-10.1-16.4-10.1-28.1c0.1-12.8,3.9-22.9,11.4-30.5c7.5-7.6,16.9-11.4,28.4-11.4
				c12.4,0,22.2,4.7,29.2,14.1c7,9.4,10.5,22.2,10.5,38.4c0,20.2-5.9,37.6-17.6,52.4C1535,1444,1517.9,1454.1,1495.4,1459.5z
				 M1527.2,1395.6c6.9,0,13-2.3,18.2-7c0.3-4,0.5-7.9,0.5-11.8c0-15.4-1.9-26.8-5.8-34.3c-3.9-7.5-9.1-11.2-15.7-11.2
				c-6.2,0-11.3,2.8-15.3,8.4c-4,5.6-6,13.6-6,24.1c0,10.2,2.2,18.1,6.7,23.6C1514.1,1392.8,1520,1395.6,1527.2,1395.6z"/>
			<path class="st1" d="M1579.9,1413.2v-11.4h43.8v11.4H1579.9z"/>
			<path class="st1" d="M1711.1,1324.3l1,5c-33.1,8.1-51.3,28.1-54.7,60c7.7-8.1,16.8-12.1,27.3-12.1c10.1,0,18.1,3.6,24.2,10.7
				c6.1,7.1,9.1,16.5,9.1,28.3c0,13.1-3.5,23.5-10.6,31.1c-7.1,7.6-16.4,11.4-28,11.4c-12.8,0-22.8-4.8-30.1-14.5
				c-7.3-9.7-11-23.1-11-40.3c0-20.6,6.6-38.3,19.7-53.1C1671.1,1335.8,1688.8,1327.1,1711.1,1324.3z M1679.4,1451.6
				c6.2,0,11.1-2.8,14.7-8.3c3.6-5.5,5.4-13.7,5.4-24.5c0-10.5-1.8-18.3-5.4-23.6c-3.6-5.2-8.7-7.9-15.3-7.9c-8.7,0-16,2.8-21.9,8.5
				c-0.1,1.1-0.2,2.8-0.2,5c0,16.7,2,29.4,6,37.9C1666.7,1447.3,1672.3,1451.6,1679.4,1451.6z"/>
			<path class="st1" d="M1758.8,1332.4l-3.2,13c-1.5,7.4-5,11.1-10.4,11.1c-4.3,0-7.2-2-8.6-6c1.2-8.5,5-15,11.4-19.5
				c6.4-4.4,14.3-6.7,23.6-6.7c11,0,19.7,2.8,26,8.5c6.3,5.7,9.4,13.3,9.4,22.9c0,7.5-2.3,14.1-6.8,19.7c-4.5,5.6-11.2,9.8-20,12.4
				c10.3,1.9,17.9,5.9,22.9,12c5,6,7.5,13.6,7.5,22.5c0,10.6-3.8,19.3-11.4,26.1c-7.6,6.8-17.7,10.2-30.3,10.2
				c-10.3,0-18.5-2.3-24.7-6.8c-6.2-4.6-10-11.4-11.3-20.7c1.6-4.3,4.6-6.5,8.9-6.5c2.8,0,5,0.9,6.5,2.8c1.5,1.9,2.8,5.2,3.9,10
				l2.9,13c3,0.8,6.3,1.2,9.7,1.2c8.7,0,15.4-2.7,20.2-8c4.8-5.4,7.2-12.5,7.2-21.5c0-9.6-2.4-17-7.1-22.2
				c-4.8-5.2-11.7-7.9-20.8-7.9h-8.1v-7.7h6.8c8.1,0,14.5-2.4,19.1-7.3c4.7-4.8,7-11.7,7-20.6c0-8.1-1.9-14.3-5.8-18.6
				c-3.8-4.3-9.3-6.5-16.3-6.5C1764.5,1331.3,1761.7,1331.7,1758.8,1332.4z"/>
			<path class="st1" d="M1834.7,1459.5l-1.1-5.5c15-5.5,26.6-13,34.6-22.5c8.1-9.5,13.2-21.4,15.5-35.6c-6.3,5.9-14.2,8.9-23.7,8.9
				c-10.4,0-19-3.5-25.7-10.5c-6.8-7-10.1-16.4-10.1-28.1c0.1-12.8,3.9-22.9,11.4-30.5c7.5-7.6,16.9-11.4,28.4-11.4
				c12.4,0,22.2,4.7,29.2,14.1c7,9.4,10.5,22.2,10.5,38.4c0,20.2-5.9,37.6-17.6,52.4C1874.4,1444,1857.2,1454.1,1834.7,1459.5z
				 M1866.6,1395.6c6.9,0,13-2.3,18.2-7c0.3-4,0.5-7.9,0.5-11.8c0-15.4-1.9-26.8-5.8-34.3c-3.9-7.5-9.1-11.2-15.7-11.2
				c-6.2,0-11.3,2.8-15.3,8.4c-4,5.6-6,13.6-6,24.1c0,10.2,2.2,18.1,6.7,23.6C1853.5,1392.8,1859.3,1395.6,1866.6,1395.6z"/>
		</g>
	</g>
</g>
</svg>
