<?xml version="1.0" encoding="utf-8"?>
<!-- Generator: Adobe Illustrator 21.0.0, SVG Export Plug-In . SVG Version: 6.00 Build 0)  -->
<svg version="1.1" id="圖層_1" xmlns="http://www.w3.org/2000/svg" xmlns:xlink="http://www.w3.org/1999/xlink" x="0px" y="0px"
	 viewBox="0 0 5442.5 6519.7" style="enable-background:new 0 0 5442.5 6519.7;" xml:space="preserve">
<style type="text/css">
	.st0{fill:#C79F63;}
	.st1{fill:#FFFFFF;}
</style>
<g>
	<g>
		<path class="st0" d="M2714.7,2989.9c-6.1,0.8-73.9,0.5-77.3-0.3c0-2.5,0-5.2,0-7.9c-4.8,0-9,0-13.5,0c0,51.1,0,102,0,153.1
			c4.5,0,8.8,0,13.6,0c0-2.6,0-5.1,0-7.5c0-2.4,0.1-4.9,0.1-7.2c5.8-0.8,73.9-0.5,77.1,0.3c0,4.7,0,9.5,0,14.4c4.8,0,9.2,0,13.6,0
			c0-51.2,0-102,0-153c-4.7,0-9,0-13.7,0C2714.7,2984.5,2714.7,2987.1,2714.7,2989.9z M2668.7,3113.9c-10.1,0-20.3,0-30.8,0
			c0-18.6,0-36.9,0-55.5c10.4,0,20.5,0,30.7,0C2669.3,3061.4,2669.5,3109.2,2668.7,3113.9z M2668.7,3052.7c-10.3,0-20.4,0-30.4,0
			c-0.9-2.8-1.2-51.2-0.3-56.8c10.1,0,20.3,0,30.4,0C2669.3,2998.6,2669.6,3047.2,2668.7,3052.7z M2714.5,3114.2
			c-10.4,0-20.6,0-31.1,0c0-18.7,0-37,0-55.7c10.6,0,20.7,0,31.1,0C2714.5,3077,2714.5,3095.3,2714.5,3114.2z M2714.3,3052.9
			c-10.2,0.1-20.5,0-30.9,0.1c0-19.3,0-38,0-57.1c10.6,0,20.6,0,30.7,0C2714.8,2998.7,2715,3047.5,2714.3,3052.9z"/>
		<path class="st0" d="M2992.6,3007.5c-4.3,0-8.7,0-13,0c-4.3,0-8.6,0.1-13.2-0.1c0-10.2,0-19.8,0-29.7c-4.8-0.1-9.2-0.1-13.9,0.1
			c0,10.2,0,19.8,0,29.8c-4.4,0-8.5,0-12.5,0c-3.9,0-7.9,0-11.8,0c-4.1,0-8.1,0-12.2,0c-4,0-8-0.2-12,0.1c0,1.9,0,3.3,0,5.3
			c16.2,0,32.3,0,48.5,0c0,14.7,0,28.8,0,43.2c-6.4,0.7-25.4,0.5-28.2-0.3c-0.1-1.8-0.3-3.6-0.4-5.7c-2.5,0-4.7,0-6.9,0
			c-2.3,0-4.6,0-6.9,0.1c0,28.1,0,55.6,0,83.3c4.8,0.2,9.3,0.3,14.2-0.1c0-4.1,0-7.9,0-11.9c24.6,0.1,48.8-0.1,73.5,0.1
			c0,4.3,0,8,0,12c4.8,0,9.2,0.2,13.5-0.1c0-28,0-55.6,0-83.4c-2.5,0-4.7,0-6.9,0c-2.2,0-4.4,0-6.6,0c-0.2,2.4-0.3,4.2-0.4,6
			c-10.3,0-20.5,0-30.6,0c-0.7-7.1-0.4-40.2,0.4-43.4c16.9,0,33.9,0,51,0c0-1.9,0-3.4,0-5.2c-4.6,0-8.9,0-13.2,0
			C3001,3007.5,2996.8,3007.5,2992.6,3007.5z M2997.5,3062c0,18,0,35.8,0,54.2c-24.3,0-48.6,0-73.1,0c0-18.2,0-36,0-53.8
			C2927.3,3061.6,2987.1,3061.2,2997.5,3062z"/>
		<path class="st0" d="M3123.9,3098.3c-1.1,2.7-2.2,5.4-3.2,8c-1.6,3.9-4.5,6-8.7,6.4c-0.8,0.1-1.6,0.1-2.4,0.1
			c-14.3,0-28.6,0-42.9,0c-0.9,0-1.8-0.1-3.6-0.2c1.4-1.5,2.2-2.3,3-3.2c9-9.4,18.1-18.6,26.9-28.2c9.4-10.3,17.7-21.4,23.9-34.1
			c4.1-8.4,6.3-17.2,6-26.6c-0.5-15.9-10.4-27.7-26.1-30.4c-4.5-0.8-9.2-0.9-13.7-0.5c-10.1,0.8-19.2,4.2-26.2,11.9
			c-5.8,6.3-8.9,13.8-10.4,22.1c-0.4,2.4-0.6,4.8-0.9,7.4c1.9,0,3.3,0,4.4,0c1.2-3.7,2.1-7.1,3.5-10.4c4.8-11.3,13.2-18.1,25.7-19.2
			c14.9-1.4,25.7,8.9,26.6,21.9c0.4,5.6-0.5,11-2.1,16.3c-2.8,9-7.4,17.1-12.5,24.9c-13,20-29.1,37.2-47.5,52.2
			c-3.2,2.7-3.6,5.3-2.7,9.1c27.3,0,54.6,0,82,0c3.1-9.2,6.1-18.2,9.2-27.5C3129,3098.3,3126.6,3098.3,3123.9,3098.3z"/>
		<path class="st0" d="M2527.2,3052.6c-7.8-5.6-15.3-11.1-22.9-16.6c0-5.6,0-11.4,0-17.5c7.1,0,14,0,21,0c0-2.3,0-4.2,0-6.6
			c-7.1,0-14,0-21.2,0c0-4.3,0-8.1,0-11.9c0-3.7,0-7.4,0-11c0-3.7,0.2-7.5-0.1-11.2c-4.5,0-8.6,0-13.1,0c0,11.4,0,22.6,0,34.2
			c-7.8,0-15.1,0-22.5,0c0,2.4,0,4.2,0,6.5c7.6,0,14.8,0,22.4,0c-3,28.5-9.3,55.7-23,80.7c2.4,1.2,3.5-0.2,4.4-1.7
			c5.5-8.1,11.1-16.3,16.6-24.4c0.5-0.7,1-1.3,1.5-1.9c0.2,0.1,0.4,0.1,0.7,0.2c0,20.9,0,41.9,0,63c4.5,0,8.6,0,12.6,0
			c0.2-0.4,0.2-0.5,0.3-0.6c0.1-0.3,0.1-0.5,0.1-0.8c0-28.9,0-57.8,0-86.6c0-0.4,0-0.8,0-1.2c0-0.1,0-0.3,0.1-0.4
			c0-0.1,0.1-0.2,0.2-0.3c0.1-0.1,0.3-0.1,0.5-0.1c1.5,2.7,3,5.5,4.7,8.1c1.7,2.7,3.4,5.3,5.3,7.8c1.9,2.4,3.3,5.2,6.3,7.2
			C2523.3,3062.5,2525.2,3057.7,2527.2,3052.6z"/>
		<path class="st0" d="M2754,3070.4c4.4,0.3,4.5,0.4,5.8-0.8c10.4-9.9,17.9-21.3,17.4-36.5c-0.1-1.8,0.1-3.6,0.2-5.4
			c8.6,0,16.8,0,25.1,0c0.1,1.4,0.2,2.6,0.2,3.8c0,6.7-0.1,13.4,0.1,20.1c0,2.3-0.6,3.9-2.6,5.3c-1.8,1.3-3.8,2.5-5.6,4.6
			c6.4,0,12.1,0,18.2,0c0-13.9,0-27.5,0-41.3c8,0.2,13.4-4.3,18.5-9.1c5.3-5.1,7-11.8,7.4-18.9c5.6,0,10.9,0,16.6,0
			c0,2.2,0,4.2,0,6.1c0.1,2.8,0,5.5,0.3,8.3c0.4,3.6,2,5.4,5.5,5.5c6.3,0.3,12.5,0.1,19,0.1c0-3.1,0-5.9,0-9.1c-3.2,0-6.2,0.1-9.2,0
			c-2.9-0.1-4-1.2-4.1-4.2c-0.1-4.7,0-9.5,0-14.2c0-1.4,0-2.8,0-4.3c-4,0-7.5,0-11.2,0c-0.2,2.1-0.4,4-0.6,5.9c-5.6,0-10.9,0-16.3,0
			c-0.2-2.1-0.3-3.9-0.4-5.9c-3.6,0-7.1,0-10.9,0c-0.1,1.5-0.2,2.7-0.2,4c0,4.6-0.1,9.2,0,13.8c0.1,8.8-4.2,14.9-11.6,19.1
			c-0.7,0.4-1.6,0.5-2.9,0.9c0-9.9,0-19.2,0-28.7c-3.5,0-6.6,0-9.6,0c-0.3,1.7-0.5,3.1-0.7,4.4c-8.5,0-16.7,0-24.9,0
			c0-1,0-1.8,0-2.6c6.6-1.2,10-5.4,11.1-12.1c-3.9-0.1-7.5-0.5-11,0.2c-0.8,3.2,0.4,6.5-1.4,9.6c-3.2,0.1-6.4,0.3-9.9,0.4
			c0,3.9,0,7.5,0,11c0,3.7,0,7.4,0,11c0,3.5,0.2,7-0.2,10.8c-3.3,0-6.2,0-9.2,0c0,1.9,0,3.4,0,5c3.2,0.1,6.1,0.3,9.4,0.4
			c0,4.9,0,9.5,0,14.1c0.1,9.2-2.9,17.3-8.5,24.4C2756.5,3067.4,2755.4,3068.7,2754,3070.4z M2777.3,2999.7c8.4,0,16.6,0,25.1,0
			c0,7.3,0,14.5,0,22.2c-8.3,0.2-16.5,0-25.1,0.1C2777.3,3014.2,2777.3,3007.1,2777.3,2999.7z"/>
		<path class="st0" d="M2761.3,3079.4c7.9,0,15.6,0,23.5,0c0.1,2.8-1.2,4.6-2.2,6.5c-6.6,12.5-17.3,20.7-30.1,27.5
			c10,1.9,17.1-3.6,25.2-7.3c0,5.4,0,10.3,0,15.1c0,4.8,0,9.6,0,14.4c5,0,9.4,0,14.2,0c0-3.3,0-6.4,0-9.6c22.4,0,44.4,0,66.8,0
			c0,2.9,0,5.6,0,8.4c4.9,0,9.3,0,13.6,0c0.9-5,0.7-42.1-0.2-44.7c-4.4,0-8.8,0-13.3,0c-0.2,2.1-0.3,3.9-0.4,5.8
			c-21.8,0-43.4,0-65.3,0c2.1-2.7,4.2-5.1,5.8-7.7c1.7-2.6,2.9-5.5,4.6-8.7c25.4,0,50.9,0,76.5,0c0-1.7,0-3,0-4.6
			c-39.9,0-79.3,0-118.8,0C2761.3,3076.3,2761.3,3077.7,2761.3,3079.4z M2792,3101.8c2.9-0.8,58.7-1.2,66.2-0.4
			c0.9,3,0.3,6.1,0.4,9.2c0.1,3.1,0,6.3,0,9.3c-3.1,1-62.7,1.1-66.7,0.2C2792,3114.1,2792,3107.9,2792,3101.8z"/>
		<path class="st0" d="M2569.1,3121.8c0-11.8,0-23.1,0-34.7c8.2,0,16.1,0,24.3,0c0-2.3,0-4.2,0-6.5c-8.2,0-16.1,0-24.5,0
			c0-8.6,0-16.8,0-25.1c-4.5,0-8.5,0-12.9,0c0,8.4,0,16.4,0,25.1c-5.1,0-9.5-0.1-14,0c-4.4,0.1-8.8-0.3-13.2,0.2c0,2.2,0,4,0,6.2
			c9.1,0,17.9,0,26.9,0c0,11.8,0,23.1,0,34.9c-12.2,0-24.1,0-36.1,0c0,2.3,0,4.2,0,6.2c26.8,0,53.2,0,79.8,0c0-2.1,0-4,0-6.2
			C2589.2,3121.8,2579.2,3122.1,2569.1,3121.8z"/>
		<path class="st0" d="M2598,3048.5c0-1.9,0-3.8,0-6c-10.2,0-20.2,0-30.4,0c0-10.9,0-21,0-31.6c8.7,0,17.2,0,25.9,0
			c0-2.3,0-4.2,0-6.3c-8.8-0.4-17.4,0.2-26.3-0.4c0-9.1,0-17.7,0-26.3c-4.4,0-8.4,0-12.8,0c0,8.9,0,17.5,0,26.5
			c-8.7,0-17.1,0-25.4,0c0,2.4,0,4.2,0,6.5c8.5,0,16.7,0,25.4,0c-0.1,10.6,0.2,20.9-0.2,31.6c-9.2,0-17.9,0-26.8,0
			c0,2.4,0,4.4,0,6.3C2534.3,3049.6,2595.1,3049.3,2598,3048.5z"/>
		<path class="st0" d="M2817.6,3066.8c2.2-0.1,4.4,0,6.5-0.5c6.5-1.3,12.6-3.5,18.2-7.1c2.1-1.4,3.8-1.4,6.1-0.3
			c5.5,2.4,11.1,4.7,16.8,6.5c4.7,1.4,9.6,2,14.7,3c0-4.6,0-8.5,0-12.6c-8.2-0.4-16.1-1.5-24.2-4.4c12.3-8.4,17.8-19.6,16.9-34.3
			c-4.5,0-8.6-0.2-12.6,0.1c-0.2,1.7-0.4,2.8-0.6,4.4c-12.2,0-24.3,0-36.6,0c0,1.9,0,3.4,0,5c2,0.2,3.8,0.4,5.5,0.6
			c3.4,14.9,4.3,16.1,11.7,25.6C2836.3,3056.9,2830.5,3060.4,2817.6,3066.8z M2832.4,3027.1c9,0,18,0,27.4,0
			c-1.4,8.5-5.2,15-11.9,19.6C2839.5,3042.8,2833.6,3035.2,2832.4,3027.1z"/>
		<path class="st0" d="M2784.1,3030.4c-0.1,8.1,0.8,14.9,6.4,20.6c3-3.2,5.7-6.1,8.6-9.1C2794.2,3038.1,2789.5,3034.5,2784.1,3030.4
			z"/>
		<path class="st0" d="M2789.9,3019.8c2.2-2.8,4.2-5.2,6.2-7.7c-2.3-1.7-4.3-3.2-6.3-4.6c-2-1.5-4-3.1-6.5-5.1
			C2783.4,3009.5,2784.4,3015.3,2789.9,3019.8z"/>
		<rect x="2319" y="3016.2" class="st0" width="3.5" height="104"/>
		<rect x="2371.4" y="3016.2" class="st0" width="3.5" height="104"/>
		<rect x="2423.8" y="3016.2" class="st0" width="3.5" height="104"/>
		<polygon class="st0" points="2361.7,3116.1 2332.3,3116.1 2332.3,2982.9 2328.8,2982.9 2328.8,3120.2 2329.4,3120.2 
			2332.3,3120.2 2361.7,3120.2 2365.3,3120.2 2365.3,2982.9 2361.7,2982.9 		"/>
		<polygon class="st0" points="2350.9,3109.8 2354.6,3109.8 2355,3109.8 2355,2972.4 2350.9,2972.4 2350.9,3108.7 2343.3,3108.7 
			2343.3,2972.4 2339.3,2972.4 2339.3,3108.7 2339.3,3109.8 2343.3,3109.8 		"/>
		<rect x="2345.4" y="2958.5" class="st0" width="3.3" height="13.9"/>
		<polygon class="st0" points="2414.2,3116.1 2384.8,3116.1 2384.8,2982.9 2381.2,2982.9 2381.2,3120.2 2381.9,3120.2 
			2384.8,3120.2 2414.2,3120.2 2417.7,3120.2 2417.7,2982.9 2414.2,2982.9 		"/>
		<polygon class="st0" points="2403.3,3109.8 2407,3109.8 2407.4,3109.8 2407.4,2972.4 2403.3,2972.4 2403.3,3108.7 2395.8,3108.7 
			2395.8,2972.4 2391.7,2972.4 2391.7,3108.7 2391.7,3109.8 2395.8,3109.8 		"/>
		<rect x="2397.9" y="2958.5" class="st0" width="3.3" height="13.9"/>
		<path class="st0" d="M2322.9,3138.1c-0.5,0-0.9,0-1.3,0c-0.4,0-0.8,0-1.3,0c-0.5,0-1,0-1.4-0.1c0,0.1,0,0.2,0,0.3
			c0,0.1,0,0.2,0.1,0.3c0,0.1,0.1,0.1,0.2,0.1c0.5,0.1,0.9,0.2,1.1,0.3c0.2,0.1,0.3,0.4,0.3,0.8v3.3c-0.3,0.1-0.6,0.2-1.1,0.2
			c-0.4,0.1-0.8,0.1-1.2,0.1c-0.8,0-1.6-0.2-2.2-0.5c-0.7-0.3-1.3-0.8-1.8-1.4c-0.5-0.6-0.9-1.3-1.2-2.1c-0.3-0.8-0.4-1.7-0.4-2.7
			c0-0.8,0.1-1.6,0.3-2.3s0.6-1.3,1-1.9c0.4-0.5,1-0.9,1.7-1.2c0.7-0.3,1.5-0.4,2.4-0.4c1.1,0,2,0.2,2.6,0.6c0.6,0.4,1,1.1,1.3,2
			c0.1,0.2,0.2,0.3,0.4,0.3c0.1,0,0.1,0,0.2,0c0.1,0,0.1,0,0.2-0.1c-0.1-0.5-0.2-1-0.3-1.6c-0.1-0.5-0.1-1-0.2-1.5
			c-0.5-0.1-0.9-0.2-1.3-0.3c-0.4-0.1-0.8-0.1-1.2-0.2c-0.4-0.1-0.8-0.1-1.2-0.1c-0.4,0-0.8,0-1.2,0c-1.2,0-2.2,0.2-3.1,0.6
			c-0.9,0.4-1.6,1-2.2,1.7c-0.6,0.7-1,1.4-1.3,2.3c-0.3,0.9-0.4,1.7-0.4,2.6c0,1,0.1,2,0.4,2.8c0.3,0.9,0.7,1.6,1.3,2.3
			c0.6,0.6,1.3,1.1,2.2,1.5c0.9,0.4,2,0.6,3.2,0.6c0.9,0,1.7,0,2.3-0.1c0.7-0.1,1.3-0.2,2-0.3c0.3-0.1,0.5-0.1,0.6-0.2
			c0.1-0.1,0.1-0.2,0.1-0.3v-3.8c0-0.3,0.1-0.5,0.3-0.6c0.2-0.1,0.5-0.2,0.9-0.3c0.1,0,0.1,0,0.2-0.1c0,0,0.1-0.1,0.1-0.3
			c0-0.1,0-0.2,0-0.3C2323.8,3138.1,2323.4,3138.1,2322.9,3138.1z"/>
		<path class="st0" d="M2343.6,3143.6c-0.3-0.1-0.6-0.2-0.9-0.3c-0.3-0.1-0.6-0.4-0.9-0.8l-3.6-4.9c0.5-0.2,0.9-0.4,1.2-0.7
			c0.3-0.3,0.6-0.6,0.9-0.9c0.2-0.3,0.4-0.7,0.5-1c0.1-0.3,0.2-0.7,0.2-1c0-1.1-0.4-2.1-1.2-2.7c-0.8-0.7-1.9-1-3.5-1h-2.9
			c-0.4,0-0.8,0-1.3,0c-0.5,0-0.9,0-1.3-0.1c0,0.1,0,0.3,0,0.3c0,0.2,0.1,0.3,0.2,0.4c0.6,0.1,1,0.2,1.2,0.3
			c0.2,0.1,0.3,0.3,0.3,0.6v10.8c0,0.3-0.1,0.5-0.3,0.6c-0.2,0.1-0.6,0.2-1.1,0.3c-0.2,0-0.2,0.1-0.2,0.3c0,0.1,0,0.2,0,0.3
			c0.4,0,0.9-0.1,1.4-0.1c0.5,0,0.9,0,1.3,0c0.5,0,1.1,0,1.6,0c0.5,0,1,0,1.4,0.1c0-0.1,0-0.3,0-0.4c0-0.2-0.1-0.3-0.3-0.4
			c-0.6-0.1-1-0.2-1.3-0.3c-0.3-0.1-0.4-0.3-0.4-0.6v-4.7h1.6l3.4,4.9c0.3,0.4,0.6,0.7,0.9,1c0.3,0.3,0.6,0.4,0.9,0.4
			c0.4,0,0.8,0,1.3,0c0.5,0,0.9,0,1.2,0.1c0-0.1,0-0.3,0-0.4C2343.8,3143.7,2343.7,3143.6,2343.6,3143.6z M2337.9,3136.4
			c-0.5,0.4-1.3,0.6-2.3,0.6h-1.1v-5.9h1.1c0.6,0,1.1,0.1,1.5,0.2c0.4,0.2,0.7,0.4,1,0.6c0.2,0.3,0.4,0.6,0.5,1
			c0.1,0.4,0.2,0.8,0.2,1.2C2338.8,3135.2,2338.5,3136,2337.9,3136.4z"/>
		<path class="st0" d="M2359.1,3144.2c0.2,0,0.4,0,0.5,0c0.1,0,0.3-0.1,0.4-0.4c0.1-0.2,0.2-0.5,0.3-0.9c0.1-0.3,0.2-0.7,0.3-1.1
			c0.1-0.4,0.2-0.7,0.3-1c-0.1,0-0.1-0.1-0.2-0.1c-0.1,0-0.2-0.1-0.2-0.1c-0.2,0-0.3,0-0.3,0.1c-0.2,0.3-0.3,0.7-0.5,0.9
			c-0.2,0.3-0.4,0.5-0.6,0.7c-0.2,0.2-0.5,0.4-0.8,0.5c-0.3,0.1-0.7,0.2-1.1,0.2h-1.2c-0.9,0-1.5,0-1.9-0.1
			c-0.4-0.1-0.6-0.3-0.6-0.6v-5h3.3c0.3,0,0.5,0.1,0.6,0.4s0.2,0.6,0.3,1c0,0.2,0.2,0.3,0.4,0.3c0.1,0,0.2,0,0.3,0
			c0-0.4-0.1-0.8-0.1-1.2c0-0.3,0-0.6,0-0.9c0-0.3,0-0.6,0-1c0-0.4,0-0.8,0.1-1.1c0,0-0.1,0-0.2,0c-0.1,0-0.1,0-0.2,0
			c-0.2,0-0.3,0.1-0.4,0.3c-0.1,0.4-0.2,0.7-0.3,1s-0.3,0.4-0.6,0.4h-3.3v-5.4h3.1c0.4,0,0.8,0,1.1,0.1c0.3,0.1,0.5,0.2,0.7,0.4
			c0.2,0.2,0.4,0.4,0.5,0.6c0.2,0.3,0.3,0.6,0.5,0.9c0.1,0.1,0.2,0.2,0.4,0.2c0.1,0,0.3,0,0.4-0.1c-0.2-0.3-0.3-0.6-0.3-0.9
			c-0.1-0.4-0.1-0.7-0.1-1c0-0.3-0.1-0.6-0.2-0.8c-0.1-0.2-0.2-0.4-0.4-0.4c-0.2,0-0.5,0-0.9,0.1c-0.5,0-1,0.1-1.7,0.1h-4.2
			c-0.3,0-0.7,0-1.1,0c-0.4,0-0.9,0-1.5-0.1c0,0.1,0,0.1,0,0.2c0,0,0,0.1,0,0.2c0,0.2,0.1,0.3,0.2,0.4c0.6,0.1,1,0.2,1.2,0.3
			c0.2,0.1,0.3,0.3,0.3,0.6v10.8c0,0.3-0.1,0.5-0.4,0.6c-0.2,0.1-0.6,0.2-1.2,0.3c-0.1,0-0.2,0.1-0.2,0.3c0,0.1,0,0.2,0,0.3
			c0.4,0,0.9-0.1,1.3-0.1c0.5,0,0.9,0,1.3,0h4.7c0.2,0,0.4,0,0.7,0c0.3,0,0.5,0,0.8,0C2358.7,3144.2,2358.9,3144.2,2359.1,3144.2z"
			/>
		<path class="st0" d="M2380.9,3143.5c-0.3,0-0.6-0.1-0.9-0.2s-0.5-0.3-0.6-0.5l-5.1-12.7c-0.1,0-0.2,0-0.3,0
			c-0.2,0-0.3,0.1-0.4,0.4l-5.1,12.3c-0.1,0.2-0.3,0.4-0.5,0.5c-0.2,0.1-0.5,0.2-1,0.3c-0.1,0-0.2,0.1-0.2,0.1
			c0,0.1-0.1,0.2-0.1,0.3c0,0.1,0,0.2,0,0.3c0.3,0,0.6-0.1,0.9-0.1c0.3,0,0.6,0,0.9,0c0.4,0,0.8,0,1.3,0c0.4,0,0.8,0,1.2,0.1
			c0-0.1,0-0.3,0-0.3s0-0.2-0.1-0.2c0-0.1-0.1-0.1-0.2-0.1c-0.9-0.1-1.3-0.3-1.3-0.6c0-0.1,0-0.3,0.1-0.4l1.4-3.4h4.7l1.3,3.5
			c0.1,0.1,0.1,0.2,0.1,0.3c0,0.2-0.1,0.3-0.3,0.4c-0.2,0.1-0.5,0.2-0.9,0.2c0,0-0.1,0-0.1,0.1c-0.1,0-0.1,0.1-0.1,0.3
			c0,0.1,0,0.2,0,0.3c0.4,0,0.9-0.1,1.4-0.1c0.5,0,1,0,1.4,0c0.4,0,0.8,0,1.2,0c0.4,0,0.9,0,1.3,0.1c0-0.1,0-0.3,0-0.3
			c0-0.1,0-0.2-0.1-0.3C2381,3143.5,2380.9,3143.5,2380.9,3143.5z M2371.4,3138.2l2.1-5.2l2,5.2H2371.4z"/>
		<path class="st0" d="M2397.6,3133.2c0,0.1,0.1,0.1,0.1,0.1c0.1,0,0.1,0,0.2,0c0.1,0,0.2,0,0.2,0c0.1,0,0.1-0.1,0.2-0.1
			c-0.2-0.5-0.3-0.9-0.3-1.3c-0.1-0.4-0.1-0.7-0.2-1c-0.1-0.3-0.1-0.5-0.2-0.6s-0.2-0.2-0.3-0.2c-0.1,0-0.3,0-0.4,0
			c-0.2,0-0.4,0-0.6,0c-0.2,0-0.4,0-0.6,0c-0.2,0-0.4,0-0.6,0h-7.1c-0.2,0-0.4,0-0.6,0c-0.2,0-0.4,0-0.6,0c-0.2,0-0.4,0-0.6,0
			c-0.2,0-0.3,0-0.4,0c-0.1,0-0.2,0.1-0.3,0.2c-0.1,0.1-0.1,0.3-0.2,0.6c-0.1,0.3-0.1,0.6-0.2,1c-0.1,0.4-0.2,0.9-0.3,1.4
			c0.1,0.1,0.2,0.1,0.4,0.1c0.1,0,0.1,0,0.2,0c0.1,0,0.1-0.1,0.1-0.1c0.2-0.4,0.3-0.7,0.5-0.9c0.2-0.3,0.3-0.5,0.6-0.7
			c0.2-0.2,0.5-0.3,0.8-0.4c0.3-0.1,0.6-0.1,1.1-0.1h2.2v11.4c0,0.3-0.1,0.6-0.4,0.7c-0.3,0.1-0.7,0.2-1.4,0.3
			c-0.1,0-0.2,0.1-0.2,0.3c0,0.1,0,0.2,0,0.4c0.5,0,0.9-0.1,1.5-0.1c0.5,0,1,0,1.5,0c0.5,0,1,0,1.5,0c0.5,0,1,0,1.4,0.1
			c0-0.1,0-0.3,0-0.4c0-0.2-0.1-0.3-0.2-0.3c-0.6-0.1-1.1-0.2-1.4-0.3c-0.3-0.1-0.4-0.4-0.4-0.7v-11.4h2.2c0.4,0,0.8,0,1.1,0.1
			c0.3,0.1,0.5,0.2,0.7,0.4c0.2,0.2,0.4,0.4,0.5,0.7C2397.3,3132.6,2397.5,3132.9,2397.6,3133.2z"/>
		<path class="st0" d="M2415.3,3140.7c-0.2,0-0.3,0-0.3,0.1c-0.2,0.3-0.3,0.7-0.5,0.9c-0.2,0.3-0.4,0.5-0.6,0.7
			c-0.2,0.2-0.5,0.4-0.8,0.5c-0.3,0.1-0.7,0.2-1.1,0.2h-1.2c-0.9,0-1.5,0-1.9-0.1c-0.4-0.1-0.6-0.3-0.6-0.6v-5h3.3
			c0.3,0,0.5,0.1,0.6,0.4s0.2,0.6,0.3,1c0,0.2,0.2,0.3,0.4,0.3c0.1,0,0.2,0,0.3,0c0-0.4-0.1-0.8-0.1-1.2c0-0.3,0-0.6,0-0.9
			c0-0.3,0-0.6,0-1c0-0.4,0-0.8,0.1-1.1c0,0-0.1,0-0.2,0c-0.1,0-0.1,0-0.2,0c-0.2,0-0.3,0.1-0.4,0.3c-0.1,0.4-0.2,0.7-0.3,1
			s-0.3,0.4-0.6,0.4h-3.3v-5.4h3.1c0.4,0,0.8,0,1.1,0.1c0.3,0.1,0.5,0.2,0.7,0.4c0.2,0.2,0.4,0.4,0.5,0.6c0.2,0.3,0.3,0.6,0.5,0.9
			c0.1,0.1,0.2,0.2,0.4,0.2c0.1,0,0.3,0,0.4-0.1c-0.2-0.3-0.3-0.6-0.3-0.9c-0.1-0.4-0.1-0.7-0.1-1c0-0.3-0.1-0.6-0.2-0.8
			c-0.1-0.2-0.2-0.4-0.4-0.4c-0.2,0-0.5,0-0.9,0.1c-0.5,0-1,0.1-1.7,0.1h-4.2c-0.3,0-0.7,0-1.1,0c-0.4,0-0.9,0-1.5-0.1
			c0,0.1,0,0.1,0,0.2c0,0,0,0.1,0,0.2c0,0.2,0.1,0.3,0.2,0.4c0.6,0.1,1,0.2,1.2,0.3c0.2,0.1,0.3,0.3,0.3,0.6v10.8
			c0,0.3-0.1,0.5-0.4,0.6c-0.2,0.1-0.6,0.2-1.2,0.3c-0.1,0-0.2,0.1-0.2,0.3c0,0.1,0,0.2,0,0.3c0.4,0,0.9-0.1,1.3-0.1
			c0.5,0,0.9,0,1.3,0h4.7c0.2,0,0.4,0,0.7,0c0.3,0,0.5,0,0.8,0c0.2,0,0.5,0,0.7,0c0.2,0,0.4,0,0.5,0c0.1,0,0.3-0.1,0.4-0.4
			c0.1-0.2,0.2-0.5,0.3-0.9c0.1-0.3,0.2-0.7,0.3-1.1c0.1-0.4,0.2-0.7,0.3-1c-0.1,0-0.1-0.1-0.2-0.1
			C2415.4,3140.8,2415.4,3140.7,2415.3,3140.7z"/>
		<path class="st0" d="M2434.9,3130.2c-0.3,0-0.7,0-1,0c-0.3,0-0.7,0-1,0c-0.4,0-0.7,0-1.1-0.1c0,0.1,0,0.3,0,0.3
			c0,0.2,0.1,0.3,0.2,0.4c0.5,0.1,0.9,0.2,1.1,0.3c0.2,0.1,0.3,0.3,0.3,0.7v8.9l-7.6-10.2c-0.1-0.1-0.2-0.2-0.3-0.2
			c-0.1,0-0.4,0-0.8,0c-0.2,0-0.4,0-0.7,0c-0.3,0-0.5,0-0.7,0c-0.3,0-0.5,0-0.8-0.1c0,0.1,0,0.1,0,0.1c0,0.1,0,0.1,0,0.2
			c0,0.2,0.1,0.3,0.2,0.4c0.5,0.1,0.8,0.2,1,0.3c0.2,0.1,0.2,0.3,0.2,0.5v10.9c0,0.3-0.1,0.5-0.3,0.6c-0.2,0.1-0.5,0.2-1,0.3
			c-0.2,0-0.2,0.1-0.2,0.3c0,0.1,0,0.2,0,0.3c0.3,0,0.7-0.1,1-0.1c0.4,0,0.7,0,1,0c0.3,0,0.6,0,1,0c0.4,0,0.7,0,1.1,0.1
			c0-0.1,0-0.3,0-0.3c0-0.2-0.1-0.3-0.2-0.3c-0.6-0.1-1-0.2-1.1-0.3c-0.2-0.1-0.3-0.3-0.3-0.6v-10l8.6,11.4c0.1,0.2,0.2,0.3,0.3,0.3
			s0.2,0.1,0.3,0.1c0,0,0.1,0,0.2,0c0.1,0,0.1,0,0.1,0v-12.5c0-0.3,0.1-0.5,0.3-0.6c0.2-0.1,0.5-0.2,1-0.3c0.1,0,0.2-0.1,0.2-0.4
			c0-0.1,0-0.2,0-0.3C2435.6,3130.2,2435.3,3130.2,2434.9,3130.2z"/>
		<path class="st0" d="M2352,3154.7c-0.1,0-0.3,0-0.4,0c-0.1,0-0.3,0-0.4,0c-0.1,0-0.2,0-0.3,0s-0.2,0-0.3,0c-0.1,0-0.3,0-0.4,0
			c-0.1,0-0.3,0-0.4,0c-0.1,0-0.3,0-0.4,0c0,0,0,0.1,0,0.1c0,0,0,0.1,0,0.1c0,0,0,0.1,0,0.1c0,0,0.1,0.1,0.1,0.1
			c0.3,0,0.5,0.1,0.6,0.2c0.1,0.1,0.2,0.2,0.2,0.4v1.6c-0.1,0-0.3,0.1-0.4,0.1c-0.1,0-0.3,0-0.4,0c-0.4,0-0.8-0.1-1.2-0.2
			c-0.3-0.2-0.6-0.4-0.8-0.7c-0.2-0.3-0.4-0.7-0.5-1.1c-0.1-0.4-0.2-0.9-0.2-1.4c0-0.4,0.1-0.9,0.2-1.2c0.1-0.4,0.3-0.7,0.5-0.9
			c0.2-0.3,0.5-0.4,0.8-0.6c0.3-0.1,0.7-0.2,1.1-0.2c0.5,0,1,0.1,1.3,0.3c0.4,0.2,0.6,0.5,0.8,1c0,0.1,0,0.1,0.1,0.1
			c0,0,0.1,0,0.1,0c0,0,0.1,0,0.1,0c0.1,0,0.1,0,0.1,0c-0.1-0.3-0.1-0.6-0.2-0.9s-0.1-0.6-0.1-0.8c-0.4-0.1-0.8-0.2-1.3-0.2
			c-0.4-0.1-0.9-0.1-1.3-0.1c-0.6,0-1.2,0.1-1.6,0.3c-0.5,0.2-0.8,0.5-1.1,0.9c-0.3,0.4-0.5,0.8-0.7,1.2c-0.1,0.4-0.2,0.9-0.2,1.3
			c0,0.6,0.1,1.1,0.2,1.5c0.2,0.5,0.4,0.8,0.7,1.2c0.3,0.3,0.7,0.6,1.2,0.8c0.5,0.2,1.1,0.3,1.7,0.3c0.3,0,0.5,0,0.7,0
			c0.2,0,0.4,0,0.5,0c0.2,0,0.3,0,0.5-0.1c0.2,0,0.3,0,0.5-0.1c0.2,0,0.3-0.1,0.3-0.1c0,0,0.1-0.1,0.1-0.2v-1.9c0-0.2,0-0.3,0.1-0.3
			c0.1-0.1,0.3-0.1,0.5-0.1c0,0,0.1,0,0.1-0.1c0,0,0-0.1,0-0.1c0,0,0-0.1,0-0.1c0,0,0-0.1,0-0.1
			C2352.2,3154.7,2352.1,3154.7,2352,3154.7z"/>
		<path class="st0" d="M2364.9,3157.5c-0.1,0-0.3-0.1-0.5-0.2c-0.2-0.1-0.3-0.2-0.5-0.4l-1.7-2.5c0.4-0.2,0.7-0.4,1-0.7
			c0.2-0.3,0.4-0.7,0.4-1.1c0-0.3-0.1-0.6-0.2-0.8c-0.1-0.2-0.3-0.5-0.5-0.6c-0.2-0.2-0.5-0.3-0.8-0.4c-0.3-0.1-0.7-0.1-1-0.1h-1.7
			c-0.2,0-0.5,0-0.7,0c-0.3,0-0.5,0-0.7,0c0,0,0,0.1,0,0.1c0,0,0,0.1,0,0.1c0,0.1,0,0.1,0,0.2c0,0,0.1,0.1,0.1,0.1
			c0.3,0,0.5,0.1,0.6,0.2c0.1,0.1,0.2,0.2,0.2,0.3v5.5c0,0.1,0,0.1,0,0.2s-0.1,0.1-0.1,0.1c-0.1,0-0.1,0.1-0.2,0.1
			c-0.1,0-0.2,0.1-0.4,0.1c-0.1,0-0.1,0.1-0.1,0.2c0,0,0,0.1,0,0.1c0,0,0,0.1,0,0.1c0.2,0,0.4,0,0.7,0c0.2,0,0.5,0,0.8,0
			c0.4,0,0.7,0,1,0c0.3,0,0.6,0,0.8,0c0-0.1,0-0.1,0-0.2c0-0.1-0.1-0.2-0.2-0.2c-0.3,0-0.6-0.1-0.7-0.2c-0.1-0.1-0.2-0.2-0.2-0.4
			v-2.3h0.5l1.7,2.5c0.1,0.2,0.3,0.4,0.5,0.5c0.2,0.1,0.3,0.2,0.5,0.2c0.1,0,0.2,0,0.4,0c0.2,0,0.3,0,0.5,0c0.2,0,0.3,0,0.5,0
			c0.1,0,0.3,0,0.3,0c0,0,0-0.1,0-0.1c0,0,0-0.1,0-0.1C2365,3157.7,2365,3157.6,2364.9,3157.5
			C2364.9,3157.6,2364.9,3157.6,2364.9,3157.5z M2361.9,3153.4c-0.1,0.2-0.2,0.3-0.3,0.4c-0.1,0.1-0.3,0.2-0.5,0.2
			c-0.2,0-0.4,0.1-0.6,0.1h-0.3v-2.9h0.3c0.6,0,0.9,0.1,1.2,0.4c0.2,0.3,0.3,0.6,0.3,1.1C2362,3153,2362,3153.2,2361.9,3153.4z"/>
		<path class="st0" d="M2376.8,3151.6c-0.3-0.3-0.7-0.6-1.2-0.8c-0.5-0.2-0.9-0.3-1.5-0.3c-0.5,0-1,0.1-1.5,0.3
			c-0.5,0.2-0.8,0.5-1.2,0.8c-0.3,0.3-0.6,0.7-0.8,1.2c-0.2,0.4-0.3,0.9-0.3,1.4c0,0.5,0.1,1,0.3,1.5c0.2,0.5,0.5,0.8,0.8,1.2
			c0.3,0.3,0.7,0.6,1.2,0.8c0.5,0.2,0.9,0.3,1.5,0.3c0.5,0,1-0.1,1.5-0.3c0.5-0.2,0.9-0.5,1.2-0.8c0.3-0.3,0.6-0.7,0.8-1.2
			c0.2-0.5,0.3-0.9,0.3-1.5c0-0.5-0.1-1-0.3-1.5C2377.4,3152.3,2377.2,3151.9,2376.8,3151.6z M2376.2,3155.8
			c-0.1,0.3-0.2,0.6-0.4,0.8c-0.2,0.2-0.4,0.4-0.6,0.6c-0.2,0.1-0.5,0.2-0.8,0.2c-0.4,0-0.7-0.1-1-0.3c-0.3-0.2-0.5-0.4-0.7-0.8
			c-0.2-0.3-0.4-0.7-0.5-1.2c-0.1-0.5-0.2-1-0.2-1.5c0-0.4,0.1-0.7,0.2-1c0.1-0.3,0.3-0.6,0.4-0.8c0.2-0.2,0.4-0.4,0.6-0.5
			c0.2-0.1,0.5-0.2,0.8-0.2c0.4,0,0.8,0.1,1.1,0.3c0.3,0.2,0.6,0.4,0.8,0.8c0.2,0.3,0.4,0.7,0.5,1.2c0.1,0.4,0.1,0.9,0.1,1.5
			C2376.4,3155.2,2376.3,3155.5,2376.2,3155.8z"/>
		<path class="st0" d="M2390.9,3150.6c-0.2,0-0.4,0-0.5,0c-0.2,0-0.4,0-0.6,0c-0.2,0-0.4,0-0.6,0c-0.2,0-0.4,0-0.6,0
			c0,0,0,0.1,0,0.1c0,0,0,0.1,0,0.1c0,0.1,0,0.2,0.1,0.2c0.3,0,0.5,0.1,0.6,0.2c0.1,0.1,0.2,0.2,0.2,0.3v3.4c0,0.8-0.1,1.4-0.4,1.8
			c-0.3,0.4-0.8,0.6-1.5,0.6c-0.7,0-1.2-0.2-1.5-0.6c-0.3-0.4-0.4-1-0.4-1.7v-3.4c0-0.1,0.1-0.3,0.2-0.3c0.1-0.1,0.3-0.1,0.6-0.2
			c0.1,0,0.1-0.1,0.1-0.2c0,0,0-0.1,0-0.1c0,0,0-0.1,0-0.1c-0.2,0-0.5,0-0.8,0c-0.3,0-0.5,0-0.8,0c-0.3,0-0.6,0-0.9,0
			c-0.2,0-0.5,0-0.7,0c0,0,0,0.1,0,0.1c0,0,0,0.1,0,0.1c0,0.1,0,0.2,0.1,0.2c0.3,0,0.5,0.1,0.6,0.1s0.1,0.2,0.1,0.3v3.7
			c0,0.4,0,0.8,0.1,1.1c0.1,0.3,0.2,0.6,0.4,0.9s0.5,0.5,0.9,0.6c0.4,0.1,0.9,0.2,1.6,0.2c0.6,0,1-0.1,1.4-0.2s0.7-0.3,0.9-0.6
			c0.2-0.3,0.4-0.6,0.5-0.9c0.1-0.3,0.1-0.7,0.1-1.2v-3.6c0-0.1,0.1-0.3,0.2-0.3s0.3-0.1,0.6-0.1c0.1,0,0.1-0.1,0.1-0.2
			c0,0,0-0.1,0-0.1C2391,3150.7,2391,3150.7,2390.9,3150.6z"/>
		<path class="st0" d="M2399.8,3150.7h-1.7c-0.2,0-0.5,0-0.7,0c-0.3,0-0.5,0-0.7,0c0,0,0,0.1,0,0.1c0,0,0,0.1,0,0.1
			c0,0.1,0,0.1,0,0.2c0,0,0.1,0.1,0.1,0.1c0.3,0,0.5,0.1,0.6,0.2c0.1,0.1,0.2,0.2,0.2,0.3v5.5c0,0.1,0,0.1,0,0.2
			c0,0-0.1,0.1-0.1,0.1c-0.1,0-0.1,0.1-0.2,0.1c-0.1,0-0.2,0.1-0.4,0.1c-0.1,0-0.1,0.1-0.1,0.2c0,0,0,0.1,0,0.1c0,0,0,0.1,0,0.1
			c0.2,0,0.4,0,0.7,0c0.2,0,0.5,0,0.8,0c0.4,0,0.7,0,1,0c0.3,0,0.6,0,0.8,0c0-0.1,0-0.1,0-0.2c0-0.1-0.1-0.2-0.2-0.2
			c-0.3,0-0.6-0.1-0.7-0.2c-0.1-0.1-0.2-0.2-0.2-0.4v-2.1h0.8c0.4,0,0.8-0.1,1.1-0.2c0.3-0.1,0.6-0.3,0.8-0.5
			c0.2-0.2,0.4-0.4,0.5-0.7c0.1-0.3,0.2-0.5,0.2-0.8c0-0.6-0.2-1.1-0.7-1.5C2401.2,3150.9,2400.6,3150.7,2399.8,3150.7z
			 M2400.4,3153.9c-0.3,0.2-0.6,0.3-1.1,0.3h-0.3v-3.1h0.3c0.6,0,1,0.1,1.2,0.4c0.2,0.3,0.3,0.7,0.3,1.1
			C2400.8,3153.3,2400.7,3153.7,2400.4,3153.9z"/>
	</g>
	<g>
		<path class="st1" d="M2393.3,3229.4v-2.4h57v2.4H2393.3z"/>
		<path class="st1" d="M2508.6,3210.3l1.6-2.2c1.1-1.5,1.7-2.3,1.9-2.3c0.4,0,1.4,0.8,3.2,2.3c1.8,1.5,2.6,2.5,2.6,3
			c-0.1,0.6-0.6,0.9-1.4,0.9h-20.9v14.5c0.7,1.5,1.6,3.1,2.7,5c1-1.9,1.9-3.6,2.5-5.3c0.7-1.8,1.3-3.9,1.7-6.4
			c0.4-2.5,0.6-4.6,0.5-6.3c4.8,1.2,7.1,2.1,7.1,2.6c0,0.2-0.1,0.3-0.4,0.5l-0.9,0.5c-0.4,1.4-1,3.1-1.8,5c4.3,1.6,7,3.8,8,6.6
			c0.6,1.8,0.5,3.1-0.4,4.1c-1,1-2.2,1-3.6,0c-0.6-2.5-2.2-5.4-4.9-8.8c-1.9,3.7-4.2,6.6-7,8.7c2.4,3.4,5.4,6.4,8.9,9
			c3.5,2.6,7.2,4.5,10.9,5.7l-0.1,0.6c-1,0.2-1.9,0.8-2.7,1.7s-1.3,2-1.6,3.4c-8.7-4.6-15-12.5-18.9-23.8v10.3
			c0.1,5,0.2,9.7,0.4,14.1c-0.3,0.5-0.9,1.1-1.8,1.6c-1,0.5-1.9,0.8-2.8,0.8c-1,0-1.5-0.4-1.5-1.2c0.3-3.6,0.4-7.6,0.5-11.9v-6.6
			c-2.8,3.4-6.1,6.6-10,9.6c-3.9,3-8,5.4-12.3,7.1l-0.4-0.9c4.8-2.9,9.3-6.7,13.4-11.6c4.1-4.9,7.2-10.1,9.3-15.6V3212h-12.2
			c-2.4,0-5.3,0.3-8.6,0.9l-1.6-3c2.1,0.2,4.6,0.4,7.6,0.5h14.7c0-4.1-0.2-7.5-0.6-10.1c4.8,1.3,7.2,2.2,7.2,2.8
			c0,0.2-0.1,0.4-0.4,0.6l-1,0.6v6.1H2508.6z M2480.7,3224.1c-2.6,5-5.9,8.7-9.8,11.2l-0.7-0.6c1.8-2.2,3.4-5.1,5-8.5
			c0.8-1.8,1.5-3.9,2.1-6.4c0.6-2.5,0.9-4.6,0.9-6.3c4.6,1.4,6.9,2.4,7,2.9c0,0.2-0.2,0.3-0.5,0.5l-1,0.5c-0.3,0.9-0.9,2.5-1.9,4.6
			c3.3,1.4,5.2,3.3,5.7,5.5c0.3,1.5,0,2.6-1,3.3s-2.1,0.5-3.3-0.5C2482.9,3228.5,2482.1,3226.5,2480.7,3224.1z"/>
		<path class="st1" d="M2547.4,3210.8h14.5l1.2-1.7c0.9-1.1,1.5-1.7,1.7-1.7c0.4,0,1.4,0.7,3,2.2c1.6,1.4,2.4,2.4,2.4,2.8
			c-0.4,0.5-1.2,0.9-2.4,1.2v25.8c0.1,3.9,0.2,8.6,0.5,14.1c-0.3,0.4-1,0.9-2.1,1.4c-1.1,0.5-2.1,0.8-3,0.8c-0.7,0-1.1-0.4-1.1-1.2
			c0-0.1,0.1-0.6,0.2-1.6v-1.5h-23.8v2.3c0,0.4-0.5,0.8-1.4,1.4c-0.9,0.5-2,0.8-3,0.8c-0.4,0-0.8-0.1-1.1-0.4
			c-0.3-0.2-0.4-0.5-0.4-0.8c0.3-5.1,0.5-10.3,0.6-15.6v-19c0-5-0.2-9.1-0.7-12.3l6.5,3h6.3c0.9-4,1.3-7.6,1-10.8l8.9,1.9
			c-0.2,0.9-0.8,1.4-1.9,1.4C2551.4,3206,2549.5,3208.5,2547.4,3210.8z M2562.5,3223.5v-10.9h-23.8v10.9H2562.5z M2562.5,3236.6
			v-11.3h-23.8v11.3H2562.5z M2538.6,3238.2v11.6h23.8v-11.6H2538.6z"/>
		<path class="st1" d="M2595.6,3219.5c4.4-0.1,13-0.4,25.8-1c-2.7-3.9-5.6-7.1-8.5-9.6l0.6-0.5c7.6,2.6,12.7,6.2,15.4,10.7
			c1.5,2.6,1.9,4.8,1.2,6.7c-0.6,1.4-1.6,1.9-3,1.5c-0.4-0.1-0.9-0.3-1.3-0.6c-0.6-1.9-1.7-4.1-3.3-6.6c-7.9,1.5-19.8,3.5-35.8,5.8
			c-0.4,0.7-1,1.2-1.7,1.3l-1.7-7.4c0.8,0,2.3,0,4.6-0.1c2.2-0.1,4-0.1,5.1-0.1c4-7.9,6.5-14.6,7.5-20.3l8.8,3.4
			c-0.3,0.9-1,1.2-2.1,1.1C2603.8,3209.5,2599.9,3214.7,2595.6,3219.5z M2595.5,3250.5v1.2c0,0.4,0.1,0.7,0.1,1c0,0.3,0,0.6,0,0.7
			s0,0.3,0.1,0.5c-0.1,0.4-0.6,0.9-1.6,1.4c-1,0.5-2.1,0.8-3.1,0.8c-0.8,0-1.2-0.4-1.2-1.2c0.1-2.2,0.3-5.2,0.4-8.9v-5
			c0-4.8-0.3-8.9-0.8-12.3l6.5,2.9h22.8l1.2-1.6c0.1-0.1,0.2-0.3,0.4-0.5c0.1-0.2,0.3-0.4,0.4-0.5c0.1-0.1,0.2-0.2,0.3-0.4
			c0.1-0.1,0.2-0.2,0.3-0.3s0.2-0.1,0.3-0.1c0.4,0,1.4,0.7,3.1,2.1s2.5,2.3,2.5,2.8c-0.4,0.6-1.2,1-2.4,1.3v6.6
			c0.1,5.4,0.2,9.7,0.4,12.7c-0.3,0.4-0.9,0.7-2,1.1s-2.1,0.6-2.9,0.6c-0.7,0-1.1-0.4-1.1-1.2c0-0.2,0.1-0.4,0.1-0.6
			c0-0.2,0-0.4,0.1-0.7s0-0.6,0.1-0.8v-1.6H2595.5z M2595.5,3233.3v15.5h23.7v-15.5H2595.5z"/>
		<path class="st1" d="M2680,3217.8l1.1-1.6c0.1-0.1,0.3-0.3,0.4-0.6c0.2-0.3,0.3-0.4,0.4-0.6s0.2-0.2,0.3-0.4s0.3-0.2,0.4-0.2
			c0.4,0,1.4,0.7,3,2.1c1.6,1.4,2.4,2.3,2.4,2.7c-0.6,0.6-1.4,1-2.3,1.2v28.5c0,2.3-0.5,3.9-1.4,5c-0.9,1.1-2.9,1.8-6,2.1
			c-0.2-2-0.6-3.3-1.3-4c-1-0.9-2.7-1.6-5.1-1.9v-0.9c3.9,0.4,6.4,0.5,7.3,0.5c0.8,0,1.2-0.4,1.2-1.3v-28.9h-32.5v20.2
			c0.1,5,0.2,9.7,0.4,14.1c-0.3,0.5-0.9,1-1.8,1.5c-1,0.5-2,0.8-3,0.8c-0.4,0-0.8-0.1-1-0.4c-0.3-0.2-0.4-0.5-0.4-0.8
			c0.3-5.1,0.5-10.3,0.6-15.6v-12.1c0-5-0.2-9.1-0.7-12.2l6.4,2.9h12.9v-7.3h-13c-2.7,0-5.5,0.3-8.5,0.8l-1.4-3
			c2.1,0.2,4.6,0.4,7.6,0.5h15.4c0-3.4-0.2-6.2-0.5-8.6c4.8,1.2,7.2,2.1,7.2,2.6c0,0.2-0.1,0.4-0.4,0.6l-1,0.6v4.7h13.5l1.6-2.3
			c0.1-0.2,0.3-0.4,0.5-0.7s0.4-0.5,0.5-0.6c0.1-0.1,0.3-0.3,0.4-0.5c0.1-0.2,0.3-0.3,0.4-0.4c0.1-0.1,0.2-0.1,0.3-0.1
			c0.4,0,1.5,0.8,3.3,2.4c1.8,1.6,2.7,2.6,2.7,3c-0.1,0.7-0.6,1-1.5,1h-21.5v7.3H2680z M2670.9,3239.7l1.2-1.8
			c0.1-0.1,0.2-0.3,0.4-0.5c0.1-0.2,0.3-0.4,0.4-0.5c0.1-0.1,0.2-0.3,0.3-0.4c0.1-0.1,0.2-0.2,0.3-0.3c0.1-0.1,0.2-0.1,0.3-0.1
			c0.4,0,1.3,0.6,2.7,1.9c1.4,1.3,2.2,2.1,2.2,2.5c-0.1,0.6-0.6,0.9-1.4,0.9h-10.9v4c0.1,4.1,0.2,6.6,0.3,7.6
			c-0.2,0.4-0.7,0.7-1.5,1.1c-0.8,0.4-1.8,0.5-2.9,0.5c-0.9,0-1.3-0.4-1.3-1.2c0.2-1.9,0.3-4.4,0.4-7.6v-4.5h-3.7
			c-1.9,0-4,0.3-6.5,0.9l-1.4-3.1c2.1,0.2,4.6,0.4,7.6,0.5h4.1v-7.3h-3.4c-1.9,0-3.9,0.3-6.1,0.8l-1.5-3c2.1,0.2,4.6,0.4,7.6,0.5
			h7.8c1.4-3.7,2.2-7.2,2.3-10.7c4.3,1.4,6.5,2.3,6.5,2.8c0,0.2-0.2,0.3-0.5,0.4l-1,0.4c-1.6,2.3-3.5,4.6-5.8,7.1h3.9l1.1-1.6
			c0.8-1.1,1.3-1.6,1.5-1.6c0.4,0,1.2,0.5,2.5,1.6c1.3,1.1,2,1.9,2,2.3c-0.2,0.7-0.7,1-1.4,1h-10.4v7.3H2670.9z M2653.9,3220.9
			l0.6-0.4c3.8,1.2,6,3,6.7,5.4c0.5,1.5,0.2,2.7-0.8,3.6c-1.1,0.9-2.3,0.8-3.5-0.4C2656.7,3226.3,2655.7,3223.5,2653.9,3220.9z"/>
		<path class="st1" d="M2718.4,3231.2c-0.8-0.8-1.2-1.8-1.2-3s0.4-2.2,1.2-3s1.7-1.2,2.8-1.2s2.1,0.4,2.8,1.2s1.2,1.8,1.2,3
			s-0.4,2.2-1.2,3s-1.7,1.2-2.8,1.2S2719.2,3232,2718.4,3231.2z"/>
		<path class="st1" d="M2789.8,3233.2l1.4-2.2c0.1-0.2,0.3-0.4,0.4-0.6c0.2-0.3,0.3-0.5,0.4-0.6c0.1-0.1,0.2-0.3,0.4-0.5
			c0.1-0.2,0.3-0.3,0.4-0.4c0.1-0.1,0.2-0.1,0.3-0.1c0.4,0,1.4,0.8,3.2,2.3c1.8,1.5,2.7,2.5,2.7,2.9c-0.2,0.7-0.7,1-1.6,1h-16.5v14
			c2.3,0.4,5.5,0.5,9.5,0.5c6.7,0,11.2,0,13.4-0.1v0.8c-1.7,0.4-2.6,2-2.7,4.7h-11c-6.8,0-12-1-15.6-3c-3.6-2-6.4-5.9-8.5-11.6
			c-3.3,6.9-7.8,12.2-13.6,15.8l-0.5-0.6c4-3.9,7.1-9.3,9.4-16.2c1.4-4,2.1-7.9,2-11.8c5,1.2,7.5,2,7.5,2.5c0,0.2-0.2,0.3-0.5,0.5
			l-1.1,0.5c-0.6,2.5-1.5,5.1-2.6,7.7c2.1,4.4,5.1,7.3,9.1,8.8v-12.3c0-5-0.2-9.1-0.7-12.3c4.9,1.3,7.4,2.2,7.4,2.8
			c0,0.2-0.1,0.4-0.4,0.6l-1,0.6v6.2H2789.8z M2794.1,3221.3l1.4-2.2c0.1-0.2,0.3-0.4,0.4-0.6c0.2-0.3,0.3-0.5,0.4-0.6
			c0.1-0.1,0.2-0.3,0.4-0.5c0.1-0.2,0.3-0.3,0.4-0.4c0.1-0.1,0.2-0.1,0.3-0.1c0.4,0,1.4,0.8,3.2,2.3c1.8,1.5,2.7,2.5,2.7,2.9
			c-0.1,0.7-0.6,1-1.6,1H2763c-2.7,0-5.6,0.3-8.6,0.8l-1.5-3c2.1,0.2,4.6,0.4,7.6,0.5h14.9v-9.7h-7.2c-2.4,0-5.3,0.3-8.6,0.9
			l-1.4-3.1c2.5,0.3,5,0.5,7.6,0.5h9.6c0-4-0.2-7.2-0.6-9.7c4.8,1.2,7.2,2.1,7.2,2.6c0,0.2-0.1,0.4-0.4,0.6l-0.9,0.6v5.9h9l1.4-2.2
			c0.1-0.2,0.3-0.4,0.4-0.6c0.2-0.3,0.3-0.5,0.4-0.6c0.1-0.2,0.2-0.3,0.4-0.5s0.3-0.3,0.4-0.4c0.1-0.1,0.2-0.1,0.3-0.1
			c0.4,0,1.4,0.8,3.1,2.3c1.7,1.5,2.6,2.5,2.6,2.9c-0.1,0.6-0.7,0.9-1.6,0.9h-16.5v9.7H2794.1z"/>
		<path class="st1" d="M2831,3211.7h20.9l1.1-1.5c0.1-0.1,0.3-0.3,0.4-0.6c0.2-0.3,0.3-0.4,0.4-0.6s0.2-0.2,0.3-0.4s0.3-0.2,0.4-0.2
			c0.4,0,1.3,0.7,2.9,2c1.6,1.3,2.4,2.2,2.4,2.6c-0.4,0.6-1.2,1-2.2,1.2v34.3c0,2.3-0.5,4-1.4,5.1c-1,1.1-3,1.8-6.2,2.1
			c-0.3-2-0.8-3.3-1.5-4c-1-0.9-2.8-1.6-5.5-2.1v-0.9c4.4,0.4,7.1,0.5,8.1,0.5c0.5,0,0.9-0.1,1.1-0.3c0.2-0.2,0.3-0.5,0.3-1.1v-34.7
			h-34.1v26.1c0.1,5,0.2,9.7,0.4,14.1c-0.3,0.5-0.9,1.1-1.8,1.6c-0.9,0.5-1.9,0.8-3,0.8c-0.4,0-0.8-0.1-1.1-0.4
			c-0.3-0.2-0.4-0.5-0.4-0.8c0.4-5.9,0.6-11.1,0.7-15.6v-18.1c0-4.8-0.3-8.9-0.8-12.3l6.4,2.9h9.7c1.5-4.2,2.3-8.1,2.5-11.7l8.7,2.6
			c-0.3,0.8-1,1.2-2.1,1.2C2835.1,3207.1,2833,3209.7,2831,3211.7z M2840,3222.3l1.1-1.6c0.1-0.1,0.2-0.3,0.3-0.5
			c0.1-0.2,0.3-0.4,0.4-0.5c0.1-0.1,0.2-0.2,0.3-0.4c0.1-0.1,0.2-0.2,0.3-0.3s0.2-0.1,0.3-0.1c0.4,0,1.3,0.7,2.8,2.1
			c1.5,1.4,2.3,2.3,2.3,2.7c-0.5,0.6-1.2,1-2.3,1.3v5.6c0.1,4.7,0.2,8.4,0.4,10.9c-0.2,0.4-0.8,0.8-1.8,1.3c-1,0.4-1.9,0.7-2.6,0.7
			c-0.7,0-1.1-0.4-1.1-1.2l0.2-2.1v-1.7h-10.7v1.7c0.1,1.8,0.2,2.7,0.2,2.9c-0.1,0.5-0.6,0.9-1.5,1.4c-0.9,0.4-1.8,0.7-2.7,0.7
			c-0.4,0-0.7-0.1-0.9-0.4c-0.2-0.3-0.3-0.5-0.3-0.8c0.2-1.9,0.3-4.4,0.4-7.6v-4.4c0-4.8-0.3-8.9-0.8-12.3l5.8,2.6H2840z
			 M2829.9,3224v12.8h10.7V3224H2829.9z"/>
		<path class="st1" d="M2874.6,3251.7v2.3c0,0.4-0.4,0.8-1.3,1.3c-0.9,0.5-1.8,0.8-2.8,0.8c-0.4,0-0.7-0.1-1-0.4
			c-0.3-0.2-0.4-0.5-0.4-0.8c0.3-5.1,0.5-10.3,0.6-15.6v-25.7c0-5-0.2-9.1-0.7-12.3l6.1,2.8h34.3l1.2-1.5c0.1-0.1,0.2-0.3,0.3-0.5
			c0.1-0.2,0.3-0.3,0.4-0.4c0.1-0.1,0.2-0.2,0.3-0.3s0.2-0.2,0.3-0.3c0.1-0.1,0.2-0.1,0.2-0.1c0.4,0,1.3,0.7,2.8,2
			c1.5,1.3,2.3,2.2,2.3,2.6c-0.4,0.6-1.2,1-2.2,1.2v32.5c0.1,5,0.2,9.7,0.4,14.1c-0.3,0.5-0.9,0.9-1.9,1.4c-1,0.5-1.9,0.7-2.8,0.7
			c-0.7,0-1.1-0.4-1.1-1.2l0.2-1.4v-1.3H2874.6z M2874.6,3205.9v44.1h35.3v-44.1H2874.6z M2898.4,3230.2c1.8-3.9,2.9-7.8,3.1-11.5
			c4,1.8,6.1,2.9,6.1,3.5c0,0.2-0.1,0.3-0.5,0.4l-1.1,0.3c-1.6,4.7-3.6,8.8-6,12.2c1,2.1,2.2,3.9,3.7,5.5c0.3,0.4,0.5,0.6,0.7,0.6
			c0.2,0,0.4-0.3,0.6-0.7c0.9-2,1.6-4,2.1-5.9l0.7,0.1l-0.8,8c1.2,2.2,1.6,3.6,1,4.3c-0.5,0.7-1.2,0.9-2,0.8
			c-0.8-0.1-1.6-0.4-2.4-0.8s-1.5-1.1-2.2-1.8c-1.6-1.8-3-3.8-4.3-6.3c-3.3,3.8-7.4,6.8-12.3,9l-0.4-0.8c4.3-2.9,8.1-6.8,11.2-11.7
			c-1.8-4.6-3-10.9-3.5-18.6h-6.5c-2.4,0-5.3,0.3-8.5,0.9l-1.5-3.1c2.5,0.3,5,0.5,7.6,0.5h8.8c-0.1-1.8-0.1-4.5-0.2-8.1
			c3.9,0.6,5.9,1.2,5.8,1.7c0,0.2-0.1,0.3-0.4,0.5l-0.9,0.5c0,1.2,0,3,0.1,5.4h5.6l1.2-1.7c-0.3-0.1-0.6-0.2-0.9-0.4
			c-0.3-0.9-0.9-1.9-1.6-3c-0.7-1-1.5-1.8-2.2-2.4l0.4-0.6c1.2,0.1,2.3,0.3,3.2,0.6c0.9,0.3,1.6,0.7,2.1,1.1
			c0.5,0.4,0.8,0.9,1.1,1.3c0.2,0.5,0.4,0.9,0.3,1.4c0,0.4-0.1,0.8-0.4,1.2c1.7,1.4,2.8,2.5,3.5,3.3c-0.1,0.6-0.6,0.9-1.4,0.9h-10.9
			C2896.7,3222.1,2897.4,3226.6,2898.4,3230.2z M2878.6,3244.3c-0.9-2-1.9-3.9-2.8-5.9c3.9-0.5,9.4-1.4,16.7-2.9l0.1,0.8
			c-3,1.8-7.3,4-12.7,6.6C2879.6,3243.6,2879.2,3244.1,2878.6,3244.3z M2886.1,3221.2l0.9-1.2c0.1-0.1,0.2-0.2,0.2-0.4
			c0.1-0.2,0.2-0.3,0.3-0.4c0.1-0.1,0.1-0.2,0.2-0.3c0.1-0.1,0.2-0.2,0.3-0.2c0.1,0,0.2-0.1,0.2-0.1c0.4,0,1.1,0.5,2.2,1.5
			s1.7,1.7,1.7,2.1c-0.4,0.5-0.9,0.8-1.7,0.9v3c0.1,3,0.2,4.9,0.3,5.7c-0.2,0.4-0.7,0.8-1.4,1.2c-0.8,0.4-1.5,0.6-2.1,0.6h-0.6v-1.9
			h-4.5v1.8c0,0.1-0.1,0.3-0.4,0.5c-0.3,0.2-0.7,0.4-1.2,0.6c-0.5,0.2-1,0.3-1.5,0.3c-0.6,0-0.9-0.4-0.9-1.2
			c0.1-0.6,0.2-1.9,0.3-3.9v-2.7c0-3.4-0.1-6-0.4-8l4.5,2.1H2886.1z M2882.1,3222.9v7.3h4.5v-7.3H2882.1z"/>
		<path class="st1" d="M2930.6,3240.1v4.8c0.1,3.9,0.2,6.9,0.3,9.1c-0.2,0.4-0.7,0.9-1.5,1.3c-0.8,0.4-1.7,0.7-2.7,0.7
			c-0.4,0-0.7-0.1-1-0.4c-0.3-0.2-0.4-0.5-0.4-0.8c0.3-5.1,0.5-10.3,0.6-15.6V3214c0-5-0.2-9.1-0.7-12.3l6,2.6h3.8l1.2-1.3
			c0.1-0.1,0.3-0.3,0.4-0.5c0.2-0.2,0.3-0.4,0.4-0.5s0.2-0.2,0.4-0.3c0.1-0.1,0.2-0.1,0.4-0.1c0.3,0,1.2,0.7,2.6,2.2
			c1.4,1.5,2.1,2.4,2.1,2.9c-0.4,0.5-1.2,0.8-2.3,0.8c-2.9,6.6-5.2,11.3-6.9,14.2c4.5,4.2,6.7,9.1,6.7,14.6c0,3-0.5,5.2-1.5,6.6
			c-1.1,1.4-2.8,2.2-5.3,2.3c0-2-0.2-3.3-0.6-3.9C2932.3,3240.8,2931.6,3240.4,2930.6,3240.1z M2933.4,3239.2c0.9,0,1.4-0.3,1.8-1
			c0.3-0.7,0.5-1.7,0.5-3.1c0-5.1-1.2-9.6-3.6-13.3c1.4-5.4,2.5-10.6,3.3-15.6h-4.8v33.1H2933.4z M2952.2,3206.5
			c1.1-1.2,1.9-2.2,2.5-3.1l4.2,4.4c-0.4-1.5-0.7-3.3-0.9-5.2l0.8-0.5c1,5.3,3.1,9.9,6.2,13.9c1.4-3.2,2.4-5.9,3-8.2h-2.1
			c-1.1,0-2.2,0.3-3.4,0.8l-1.6-3c1.3,0.2,2.9,0.4,4.7,0.5h2.2l1.2-1.4c0.9-0.9,1.4-1.3,1.6-1.3c0.3,0,1.1,0.7,2.4,2.1
			c1.3,1.4,1.9,2.3,1.9,2.7c-0.3,0.3-1,0.5-2.1,0.6c-1.5,2.6-3.9,5.4-7,8.3c2.9,3.2,6.1,5.7,9.7,7.4l-0.1,0.7
			c-2.1,0.3-3.5,1.8-4.3,4.3c-6.1-4.8-10.2-11.9-12.3-21.4c-0.3,0.3-1,0.5-2,0.6c-3,10.2-8.7,17.6-17.3,22l-0.5-0.8
			c6.4-4.8,10.8-12,13.1-21.7h-5c-0.2,0.5-0.5,1.2-1.1,2.1c2.5,0.6,3.9,1.6,4.1,3c0.2,0.9-0.1,1.6-0.9,2c-0.7,0.4-1.4,0.2-2.2-0.4
			c-0.1-1.1-0.8-2.2-1.8-3.4c-0.7,1.2-1.5,2.4-2.4,3.5c2.4,0.9,3.8,2.1,4.1,3.8c0.2,1.1-0.1,1.8-0.9,2.2c-0.7,0.4-1.4,0.2-2.1-0.4
			c-0.2-1.2-0.8-2.6-1.9-4.4c-1.6,1.9-3.2,3.5-4.8,4.7l-0.7-0.6c1.6-1.9,3.3-4.6,5-8.1c0.8-1.8,1.5-3.8,2.1-6.2
			c0.6-2.4,0.9-4.4,1-6.1c4.2,1.1,6.2,1.8,6.2,2.3c0,0.1-0.1,0.2-0.4,0.3l-1,0.2c-0.1,0.4-0.4,1.1-0.8,1.9c-0.4,0.9-0.6,1.4-0.7,1.8
			H2952.2z M2949.1,3239.4c1.9,0.8,2.7,1.4,2.6,1.8c0,0.1-0.2,0.2-0.5,0.2l-0.9,0.1c-1.2,2-3,4-5.4,6c-2.4,2-4.9,3.6-7.4,4.9
			l-0.6-0.9c1.4-1.2,2.5-2.4,3.3-3.4c1.2-1.5,2.4-3.3,3.4-5.3c1-2,1.7-3.8,2.1-5.4L2949.1,3239.4z M2964.7,3233.4l1.3-2.1
			c0.9-1.4,1.5-2.1,1.7-2.1c0.4,0,1.3,0.7,2.8,2.1c1.5,1.4,2.2,2.3,2.2,2.8c-0.2,0.7-0.7,1-1.4,1h-11.9v14.2c0,2.1-0.4,3.7-1.3,4.7
			s-2.7,1.7-5.4,1.9c-0.1-1.7-0.4-2.9-0.9-3.5c-0.8-0.9-2.2-1.4-4.2-1.8v-0.8c3.2,0.2,5.1,0.4,5.8,0.4c0.7,0,1.1-0.4,1.1-1.1v-14.2
			h-3.7c-2.2,0-4.4,0.3-6.8,0.8l-1.4-3c2.1,0.2,4.6,0.4,7.6,0.5H2964.7z M2964.6,3226.8h-10.8c-1.3,0-2.9,0.3-4.8,0.9l-1.5-3.1
			c2.5,0.3,5,0.5,7.5,0.5h3.7l1.1-1.9c0.9-1.3,1.4-1.9,1.6-1.9c0.4,0,1.2,0.7,2.6,2c1.3,1.3,2,2.2,2,2.6
			C2965.9,3226.5,2965.4,3226.8,2964.6,3226.8z M2962.1,3238.7l0.6-0.4c5.5,2,8.9,4.6,10.5,8c0.9,2,0.9,3.6,0.1,4.8
			c-0.8,1.1-1.9,1.2-3.3,0.3c-0.1,0-0.2-0.1-0.3-0.2C2968.6,3247.8,2966.1,3243.6,2962.1,3238.7z"/>
		<path class="st1" d="M2992.2,3229.4v-2.4h57v2.4H2992.2z"/>
	</g>
	<g>
		<g>
			<path class="st1" d="M2358.7,3411.6l-1.1,4.5c-0.5,2.5-1.7,3.8-3.6,3.8c-1.5,0-2.5-0.7-3-2.1c0.4-2.9,1.7-5.2,3.9-6.7
				c2.2-1.5,4.9-2.3,8.1-2.3c3.8,0,6.8,1,8.9,2.9c2.2,2,3.2,4.6,3.2,7.9c0,2.6-0.8,4.8-2.3,6.8s-3.8,3.3-6.8,4.2
				c3.5,0.7,6.1,2,7.8,4.1c1.7,2.1,2.6,4.6,2.6,7.7c0,3.6-1.3,6.6-3.9,8.9c-2.6,2.3-6.1,3.5-10.4,3.5c-3.5,0-6.4-0.8-8.5-2.3
				c-2.1-1.6-3.4-3.9-3.9-7.1c0.6-1.5,1.6-2.2,3.1-2.2c1,0,1.7,0.3,2.2,1c0.5,0.6,1,1.8,1.3,3.4l1,4.5c1,0.3,2.2,0.4,3.3,0.4
				c3,0,5.3-0.9,6.9-2.8c1.7-1.8,2.5-4.3,2.5-7.4c0-3.3-0.8-5.8-2.4-7.6c-1.6-1.8-4-2.7-7.1-2.7h-2.8v-2.6h2.3c2.8,0,5-0.8,6.6-2.5
				c1.6-1.7,2.4-4,2.4-7.1c0-2.8-0.7-4.9-2-6.4c-1.3-1.5-3.2-2.2-5.6-2.2C2360.6,3411.2,2359.7,3411.3,2358.7,3411.6z"/>
			<path class="st1" d="M2395.2,3408.9c3.8,0,7,1.9,9.6,5.6c2.6,3.7,3.8,9.4,3.8,17.1c0,7.9-1.3,13.7-3.8,17.5s-5.8,5.7-9.6,5.7
				c-3.9,0-7.1-1.9-9.7-5.7c-2.6-3.8-3.9-9.7-3.9-17.5c0-7.7,1.3-13.3,3.9-17.1C2388.1,3410.8,2391.4,3408.9,2395.2,3408.9z
				 M2387.9,3431.6c0,13.9,2.4,20.9,7.3,20.9c4.8,0,7.2-7,7.2-20.9c0-13.6-2.4-20.3-7.2-20.3
				C2390.4,3411.3,2387.9,3418,2387.9,3431.6z"/>
			<path class="st1" d="M2455.6,3406.7l1.1-1.7c0.8-1.1,1.3-1.6,1.6-1.6c0.4,0,1.3,0.7,2.9,2.1c1.6,1.4,2.3,2.3,2.3,2.7
				c-0.5,0.6-1.2,1-2.3,1.2v2.6c0.1,2.9,0.2,4.5,0.2,4.8c-0.1,0.4-0.7,0.7-1.8,1.2c-1,0.4-1.9,0.6-2.8,0.6h-0.8v-2.5h-31.4v5.6
				c0,2.5-0.1,5.2-0.2,8.1c1-1.1,2.2-2.3,3.3-3.8v-0.1l0.2-0.1c2.3-3,3.8-5.8,4.5-8.3c4.1,2.5,6.2,3.9,6.1,4.4
				c0,0.2-0.2,0.2-0.4,0.2l-0.8,0.1c-1,1.3-2.7,2.7-5,4.5l0.5,0.2h20.7l0.5-0.6c-1.5-1.7-2.6-3.4-3.2-5.2h-3.9
				c-2.3,0-4.7,0.3-7.2,0.8l-1.5-3c2.1,0.2,4.6,0.4,7.6,0.5h3.7l1.6-2.8l4.6,3.3c-0.5,0.7-1.7,1.2-3.6,1.3c1.1,1.3,2.8,2.4,5.1,3.3
				c2.4,1,4.9,1.7,7.7,2.1v0.8c-0.9,0.3-1.7,0.9-2.4,1.6c-0.7,0.8-1.2,1.7-1.4,2.8c-1-0.5-1.8-1-2.4-1.4v9.3c0,0.2-0.4,0.5-1.2,0.8
				s-1.5,0.6-2.3,0.6c2.5,1.8,3.7,3,3.7,3.6c0,0.2-0.2,0.4-0.5,0.5l-0.9,0.4v4c0.1,4.1,0.2,6.6,0.3,7.6c-0.2,0.4-0.8,0.7-1.8,1.1
				c-1,0.4-1.9,0.6-2.6,0.6h-0.9v-2.9h-18.4v1.5c0,0.2-0.2,0.4-0.6,0.6c-0.4,0.3-0.9,0.5-1.6,0.7c-0.7,0.2-1.3,0.3-2,0.3
				c-0.3,0-0.6-0.1-0.8-0.4s-0.3-0.5-0.3-0.8c0.3-4.2,0.4-7.7,0.5-10.4v-5.8c-0.2,0-0.5,0.1-0.8,0.1h-0.7v-12.2
				c-1.6,0.9-2.7,1.5-3.5,1.9c-0.9,11.9-4.2,20.9-10.1,27.1l-0.7-0.5c2.4-4.9,4-10.3,4.8-16.2c0.8-5.9,1.2-12.6,1.2-20.2v-8.8
				c0-3.3-0.2-6.3-0.6-9.1l6.4,2.8H2455.6z M2456.1,3414.4v-6h-31.4v6H2456.1z M2430.8,3441.5l3.7,1.6h17.5l1.9-2.2v-1.4h-21.4v0.8
				C2432.6,3440.7,2432,3441.1,2430.8,3441.5z M2441.3,3437.9v-9.2h-8.7v9.2H2441.3z M2434.2,3429.8l0.7-0.3
				c2.9,1.3,4.4,2.9,4.6,4.8c0.1,1.2-0.3,2-1.2,2.4c-0.8,0.4-1.6,0.2-2.3-0.6C2436,3434.1,2435.5,3432,2434.2,3429.8z
				 M2434.2,3448.7h18.4v-3.9h-18.4V3448.7z M2434.2,3450.4v3.9h18.4v-3.9H2434.2z M2454,3431.8c-0.3,0.4-0.8,0.5-1.5,0.4
				c-1.1,1.4-2.6,3-4.6,4.9l-0.6-0.3c0.9-3.3,1.3-5.9,1.3-7.9l5.3,2.2v-2.4h-8.7v9.2h8.7V3431.8z"/>
			<path class="st1" d="M2485.1,3430.1l2.6-3.9c1.8,1.8,3.2,3.3,4.3,4.6v-13.4c0-5-0.2-9.1-0.7-12.3l5.3,2.5h18.5l0.9-1.4
				c0.1-0.1,0.2-0.3,0.5-0.6c0.2-0.4,0.4-0.6,0.6-0.7c0.1-0.1,0.3-0.2,0.4-0.2c0.4,0,1.3,0.6,2.8,1.8c1.5,1.2,2.2,2.1,2.2,2.5
				c-0.5,0.6-1.3,1-2.3,1.2v42.2c0,2.1-0.4,3.7-1.2,4.7c-0.8,1-2.6,1.7-5.3,1.9c-0.2-1.7-0.6-2.9-1.2-3.6c-0.9-0.9-2.5-1.5-4.7-1.9
				v-0.9c3.7,0.3,5.9,0.5,6.6,0.5c0.9,0,1.3-0.4,1.3-1.3v-27.1c-0.3,0.2-0.6,0.3-1,0.3h-7.1v19.8h2.8v-3.8c0-4.8-0.3-8.9-0.8-12.3
				c3.1,1.1,4.6,1.9,4.6,2.4c0,0.1-0.1,0.2-0.2,0.4l-0.6,0.4v17.1c0,0.2-0.3,0.5-0.8,0.8c-0.5,0.3-1,0.4-1.6,0.4h-0.7v-3.5h-8.9v3.2
				c0,0.2-0.3,0.5-0.9,0.8c-0.6,0.3-1.1,0.5-1.6,0.5h-0.6V3440c0-4.3-0.2-8-0.7-11.2c3.1,1.1,4.6,1.9,4.6,2.4c0,0.1-0.1,0.2-0.2,0.4
				l-0.6,0.4v13h2.8V3425h-2.2c-1.1,0-2.4,0.3-3.8,0.9l-1.4-3c2.1,0.2,4.6,0.4,7.6,0.5h5.4l2.3-3.4c1.4,1.4,2.7,2.7,3.7,3.8v-14.5
				h-19.3v33.6c0.1,4.9,0.2,9.6,0.4,14.1c-0.3,0.5-0.8,1-1.5,1.4c-0.7,0.4-1.5,0.7-2.4,0.7c-0.7,0-1.1-0.4-1.1-1.2
				c0.1-1.6,0.3-3.6,0.3-6.1v-3.6c-5.4,3.2-10.9,6.2-16.6,9.2c-0.2,0.8-0.6,1.3-1.2,1.5l-3.3-6.3c2.4-0.5,5.3-1.1,8.4-1.9v-18.6
				h-2.4c-1.2,0-2.6,0.3-4.2,0.9l-1.5-3.1c1.5,0.2,3.4,0.4,5.5,0.5h2.6v-7.5h-3.9l-0.4-1.6c-1.4,1.7-2.9,3.1-4.3,4.3l-0.7-0.6
				c1.6-2.3,3.4-5.6,5.2-10c1.7-4.2,2.7-8.1,2.8-11.7c4.5,1.6,6.8,2.6,6.8,3.1c0,0.2-0.2,0.3-0.5,0.5l-1.1,0.4
				c4.8,1.7,7.6,3.9,8.4,6.5c0.5,1.4,0.2,2.6-0.8,3.3c-0.9,0.8-1.9,0.7-3-0.2c-1-2.7-2.7-5.5-5.2-8.3c-2,4.6-4.5,8.8-7.6,12.5h8.3
				l1.2-1.9c0.1-0.1,0.2-0.3,0.3-0.5c0.1-0.2,0.3-0.4,0.4-0.6c0.1-0.1,0.2-0.3,0.3-0.4c0.1-0.2,0.2-0.3,0.3-0.3
				c0.1-0.1,0.2-0.1,0.3-0.1c0.3,0,1.1,0.7,2.4,2c1.3,1.3,1.9,2.2,1.9,2.6c0,0.6-0.5,0.9-1.3,0.9h-5.6v7.5H2485.1z M2472.8,3434.9
				l0.7-0.2c3.1,3.2,4.5,6.4,4.3,9.6c-0.1,1.9-0.6,3-1.6,3.5c-0.8,0.4-1.6,0-2.3-0.9C2474.3,3443.3,2473.9,3439.3,2472.8,3434.9z
				 M2492.1,3431.4c-0.2,0.4-0.6,0.5-1.2,0.5h-7.2v17.5c1.3-0.3,4.1-1.1,8.4-2.3V3431.4z M2489.3,3435.4c2,0.4,2.7,0.9,2.2,1.3
				c-0.1,0.1-0.2,0.2-0.4,0.3l-1,0.5c-1.7,4.3-3.2,7.4-4.5,9.3l-0.9-0.4v-0.1c0.8-4.5,1.2-8.6,1.1-12.4L2489.3,3435.4z
				 M2498.8,3411.6l0.7-0.3c3.3,2.3,5,4.7,5.1,7.4c0.1,1.6-0.4,2.6-1.3,3.1c-0.9,0.5-1.7,0.2-2.6-0.8
				C2500.8,3418.3,2500.1,3415.1,2498.8,3411.6z M2512,3412.1c2.1,0.6,2.9,1.1,2.4,1.6c-0.1,0.1-0.3,0.2-0.4,0.3l-0.9,0.4
				c-1.5,2.8-3.3,5.6-5.5,8.5l-0.7-0.4c1.1-4.3,1.6-8.3,1.6-12L2512,3412.1z"/>
			<path class="st1" d="M2561.8,3406.6l1.2-1.8c0.1-0.1,0.2-0.3,0.4-0.5c0.1-0.2,0.3-0.4,0.4-0.5c0.1-0.1,0.2-0.2,0.3-0.4
				c0.1-0.1,0.2-0.2,0.3-0.3s0.2-0.1,0.3-0.1c0.4,0,1.3,0.7,2.8,2.1c1.5,1.4,2.3,2.3,2.3,2.7c-0.4,0.5-1.1,0.9-2.2,1.2v13.4h3.5
				l1.3-1.5c0.9-1.1,1.5-1.6,1.7-1.6c0.3,0,1.2,0.8,2.6,2.3c1.4,1.5,2.1,2.5,2.1,2.9c-0.4,0.4-1.1,0.7-2.1,0.7
				c-2.1,2.3-4.2,4.3-6.3,5.9l-0.6-0.4c0.4-1.5,0.9-3.7,1.5-6.6h-35c0.3,3.6-0.3,6.3-1.9,8c-0.7,0.7-1.6,1.1-2.6,1
				c-1-0.1-1.7-0.6-2.1-1.6c-0.3-0.9-0.4-1.8-0.1-2.6c0.3-0.8,0.8-1.4,1.6-2c0.9-0.8,1.6-2,2.2-3.6c0.6-1.6,0.8-3.2,0.7-4.8h0.8
				c0.6,1.7,0.9,3,1.1,3.9h3.8v-6.4c0-5-0.2-9.1-0.7-12.3l6.5,2.8H2561.8z M2545.2,3446.5v3.5c0.1,2.9,0.2,5.2,0.3,6.8
				c-0.1,0.5-0.7,0.9-1.7,1.4c-1,0.5-2,0.7-3,0.7c-0.4,0-0.7-0.1-0.9-0.4c-0.3-0.2-0.4-0.5-0.4-0.8c0.3-3.6,0.4-7.6,0.5-11.9v-6.6
				c0-5-0.2-9.1-0.7-12.3l6.3,2.9h16l1.1-1.5c0.1-0.1,0.2-0.4,0.5-0.7c0.3-0.4,0.5-0.6,0.6-0.7c0.1-0.1,0.3-0.2,0.4-0.2
				c0.4,0,1.4,0.7,3,2c1.6,1.3,2.4,2.2,2.4,2.6c-0.4,0.6-1.1,1-2.2,1.2v19.8c0,2.1-0.4,3.7-1.3,4.8c-0.9,1-2.8,1.7-5.8,2
				c-0.2-1.8-0.6-3-1.2-3.7c-0.9-0.9-2.4-1.6-4.6-1.9v-0.9c3.5,0.3,5.7,0.4,6.5,0.4c0.8,0,1.2-0.4,1.2-1.2v-5.4H2545.2z
				 M2562.4,3408.3h-17.5v14.2h6.5c0-4.4-0.2-8.1-0.7-11.1l5.8,2.6h5.9V3408.3z M2562.2,3437.2v-5.5h-17v5.5H2562.2z M2545.2,3438.9
				v5.8h17v-5.8H2545.2z M2562.4,3415.7h-6.5v6.8h6.5V3415.7z"/>
			<path class="st1" d="M2585.9,3421.7c1-2.3,1.8-5,2.6-8.3c0.8-3.3,1.2-6.1,1.2-8.5c4.6,1.4,6.9,2.3,6.9,2.9c0,0.2-0.1,0.3-0.4,0.5
				l-1.1,0.5c-0.4,1.1-1.2,2.8-2.4,5.2h5.6c0-4.3-0.2-7.8-0.6-10.4c4.6,1.2,6.9,2.1,6.9,2.7c0,0.2-0.2,0.4-0.5,0.6l-0.9,0.6v6.4h4.8
				l1.2-2.1c0.9-1.4,1.5-2.1,1.7-2.1c0.4,0,1.3,0.7,2.8,2.1c1.5,1.4,2.2,2.3,2.2,2.8c-0.1,0.7-0.6,1-1.4,1h-11.4v7.9h6.2l1.3-2.1
				c0.9-1.4,1.5-2.1,1.7-2.1c0.4,0,1.3,0.7,2.8,2.1c1.5,1.4,2.3,2.3,2.3,2.7c-0.1,0.6-0.6,0.9-1.5,0.9h-12.9v7.1h5.5l1-1.4
				c0.1-0.1,0.3-0.3,0.5-0.6c0.2-0.3,0.4-0.5,0.5-0.7c0.1-0.1,0.3-0.2,0.4-0.2c0.4,0,1.3,0.6,2.9,1.8s2.3,2.1,2.3,2.5
				c-0.4,0.6-1.2,1-2.3,1.2v13.1c0,2.1-0.4,3.6-1.1,4.6c-0.7,1-2.2,1.6-4.5,1.8c-0.1-1.8-0.3-3.1-0.7-3.8c-0.4-0.7-1.2-1.2-2.6-1.5
				v-0.9c1.6,0.1,2.7,0.2,3.2,0.2c0.5,0,0.8-0.3,0.8-1v-13.5h-6v8.7c0.1,5,0.2,9.7,0.4,14.1c-0.2,0.5-0.8,1.1-1.7,1.6
				c-0.9,0.5-1.8,0.7-2.7,0.7c-0.4,0-0.8-0.1-1.1-0.4c-0.3-0.2-0.4-0.5-0.4-0.8c0.3-5.6,0.5-10.8,0.6-15.5v-8.4h-6v6.4
				c0.1,5.3,0.2,9.4,0.4,12.4c-0.2,0.4-0.8,0.9-1.6,1.3c-0.9,0.4-1.8,0.7-2.7,0.7c-0.3,0-0.6-0.1-0.8-0.4s-0.3-0.5-0.3-0.8
				c0.1-1.8,0.3-4.2,0.4-7.3v-4.3c0-5-0.2-9.1-0.7-12.3l5.8,2.6h5.6v-7.1h-4.3c-2.3,0-5,0.3-8.1,0.9l-1.5-3c2.1,0.2,4.6,0.4,7.6,0.5
				h6.3v-7.9h-6.6c-1.6,2.6-3.3,4.8-5.1,6.7L2585.9,3421.7z M2619.1,3433.6v-13.5c0-4.8-0.3-8.8-0.8-12.2c4.5,1.2,6.7,2.1,6.7,2.6
				c0,0.2-0.1,0.3-0.4,0.5l-0.9,0.6v18.5c0.1,3.9,0.2,8.6,0.5,14.1c-0.2,0.5-0.8,0.9-1.6,1.3c-0.9,0.4-1.7,0.6-2.6,0.6
				c-0.4,0-0.7-0.1-1-0.4c-0.3-0.3-0.4-0.5-0.4-0.8C2618.8,3440.8,2619,3437,2619.1,3433.6z M2627,3459.1c-0.1-2-0.6-3.4-1.4-4.2
				c-0.8-0.7-2.2-1.3-4.3-1.6v-0.9c3.5,0.3,5.6,0.5,6.5,0.5c0.8,0,1.2-0.4,1.2-1.2v-35.2c0-4.8-0.3-8.9-0.8-12.3
				c4.7,1.3,7.1,2.1,7,2.7c0,0.2-0.1,0.3-0.4,0.5l-0.9,0.7v44c0,2.3-0.4,3.9-1.3,5C2631.6,3458.1,2629.8,3458.8,2627,3459.1z"/>
			<path class="st1" d="M2684.1,3441.2l1.2-1.8c0.1-0.1,0.2-0.3,0.4-0.5s0.3-0.4,0.4-0.5s0.2-0.3,0.3-0.4c0.1-0.2,0.2-0.3,0.3-0.3
				s0.2-0.1,0.3-0.1c0.4,0,1.3,0.6,2.8,1.9c1.5,1.3,2.2,2.1,2.2,2.5c-0.1,0.7-0.6,1-1.3,1h-6.5c2.8,1.7,4.2,2.8,4.2,3.2
				c0,0.2-0.2,0.3-0.6,0.3l-1,0.1c-2.3,1.3-5.2,2.4-8.7,3.5c3.7,1.6,8.7,2.7,15.1,3.2v0.6c-2,0.7-3.2,2.4-3.7,5.2
				c-5.6-1.2-10-3-13.4-5.4s-5.9-5.9-7.6-10.6h-5.4v9.1c1.9-0.2,5-0.6,9.2-1.2l0.1,0.9c-5.4,2.1-11.1,4.2-17,6.2
				c-0.3,0.7-0.8,1.1-1.4,1.2l-2.5-5.9c0.4,0,1-0.1,1.7-0.2c0.7-0.1,1.5-0.2,2.5-0.3c1-0.1,1.8-0.2,2.5-0.3v-9.7h-5.3
				c-1.2,7-4.6,12.3-10.4,15.7l-0.5-0.6c2.5-2.9,4.2-6.2,5.1-9.7c0.9-3.5,1.3-7.4,1.3-11.7v-4.6c0-2-0.1-3.7-0.3-4.9l6,2.8h28.7
				l1.2-1.7c0.1-0.1,0.2-0.3,0.3-0.4c0.1-0.2,0.2-0.3,0.3-0.4c0.1-0.1,0.2-0.2,0.3-0.4c0.1-0.1,0.2-0.2,0.3-0.3
				c0.1-0.1,0.2-0.1,0.3-0.2c0.1-0.1,0.2-0.1,0.3-0.1c0.4,0,1.3,0.6,2.7,1.8c1.4,1.2,2.1,2.1,2.1,2.5c-0.1,0.6-0.6,0.9-1.5,0.9
				h-35.7v4.9c0,1.6-0.1,3.1-0.2,4.6H2684.1z M2678.7,3418.9l2.2-2.7c1.6,1.2,2.9,2.3,4,3.4c0-0.1,0.1-0.8,0.4-2
				c0.3-1.3,0.5-2.2,0.7-2.8H2670v4.1c0.1,3.3,0.2,5.9,0.3,7.9c-0.2,0.4-0.7,0.7-1.6,1.1c-0.8,0.4-1.8,0.6-3,0.6
				c-0.4,0-0.7-0.1-0.9-0.4c-0.2-0.3-0.3-0.5-0.3-0.8c0.2-2,0.3-4.6,0.4-7.8v-4.6H2650c0.1,1.8-0.1,3.3-0.6,4.6
				c-0.6,1.3-1.3,2.2-2.3,2.8c-0.8,0.4-1.6,0.5-2.4,0.4c-0.8-0.2-1.4-0.7-1.6-1.6c-0.5-1.6,0.1-2.9,1.9-3.9c1-0.5,1.8-1.4,2.4-2.6
				c0.6-1.2,0.9-2.5,0.8-4l0.9-0.1c0.3,1.1,0.6,2,0.7,2.6h15.2v-4.3h-7.1c-2.7,0-5.6,0.3-8.6,0.8l-1.4-3c2.1,0.2,4.6,0.4,7.6,0.5
				h25.3l1.3-1.9c0.9-1.2,1.5-1.9,1.7-1.9c0.4,0,1.3,0.6,2.9,1.9c1.5,1.3,2.3,2.1,2.3,2.5c-0.1,0.7-0.6,1-1.5,1H2670v4.3h15.6
				l1.2-1.5c0.1-0.1,0.3-0.3,0.6-0.6c0.3-0.4,0.5-0.6,0.7-0.7c0.1-0.1,0.3-0.2,0.4-0.2c0.3,0,1.2,0.7,2.5,2.2c1.4,1.5,2,2.4,2,2.8
				c-0.3,0.4-1,0.6-2.1,0.7c-1.9,2.1-3.8,3.8-5.8,5l-0.6-0.4v-0.1c-0.2,0.3-0.6,0.5-1.1,0.5h-3.9c-2.2,0-4.5,0.3-7,0.8l-1.5-3
				c1.4,0.2,3.2,0.4,5.2,0.5H2678.7z M2657.7,3424.5l0.9-1.3c0.8-0.9,1.3-1.3,1.4-1.3c0.4,0,1.1,0.5,2.2,1.4
				c1.1,0.9,1.6,1.6,1.6,2.1c-0.1,0.6-0.6,0.9-1.4,0.9h-4.2c-2.4,0-5,0.3-7.6,0.8l-1.5-3c1.6,0.2,3.6,0.4,5.8,0.5H2657.7z
				 M2662.3,3420.6h-7.5c-1,0-2.1,0.3-3.1,0.8l-1.4-3c1.4,0.2,3.1,0.4,5,0.5h2.3l0.9-1.3c0.7-0.9,1.1-1.3,1.4-1.3
				c0.4,0,1.1,0.5,2.1,1.4c1,0.9,1.6,1.6,1.6,2C2663.5,3420.3,2663.1,3420.6,2662.3,3420.6z M2679.9,3435.5l1.2-1.6
				c0.1-0.1,0.3-0.3,0.4-0.6c0.2-0.3,0.3-0.4,0.4-0.6c0.1-0.1,0.2-0.2,0.3-0.4c0.1-0.1,0.3-0.2,0.4-0.2c0.4,0,1.2,0.6,2.6,1.7
				c1.4,1.1,2.1,1.9,2.1,2.3c-0.1,0.6-0.6,0.9-1.4,0.9h-21.6c-2.4,0-5.3,0.3-8.6,0.9l-1.5-3.1c2.5,0.3,5,0.4,7.6,0.5H2679.9z
				 M2683.1,3443h-13.3c1.5,2.5,3.8,4.6,6.8,6.3C2679,3447.4,2681.1,3445.3,2683.1,3443z M2685,3426.3h-8.7c-1.2,0-2.4,0.3-3.8,0.8
				l-1.5-3c1.7,0.2,3.7,0.4,6.1,0.5h2.9l1.1-1.3c0.1-0.1,0.2-0.3,0.4-0.5c0.1-0.2,0.3-0.4,0.4-0.5c0.1-0.1,0.2-0.2,0.3-0.3
				c0.1-0.1,0.2-0.1,0.3-0.1c0.4,0,1.1,0.5,2.3,1.5s1.8,1.7,1.8,2.1C2686.3,3426,2685.8,3426.3,2685,3426.3z"/>
			<path class="st1" d="M2721.9,3434.2c-0.8-0.8-1.2-1.8-1.2-3s0.4-2.2,1.2-3s1.7-1.2,2.8-1.2s2.1,0.4,2.8,1.2s1.2,1.8,1.2,3
				s-0.4,2.2-1.2,3s-1.7,1.2-2.8,1.2S2722.7,3435,2721.9,3434.2z"/>
			<path class="st1" d="M2778.9,3412.6c-7.2,0.7-13.3,1.1-18.3,1.1l-0.1-1.1c6.2-0.7,12.6-2,19.3-3.6c6.7-1.7,12.1-3.4,16-5.1
				l5.5,5.7c-0.6,0.6-1.7,0.6-3.4-0.1c-4.2,1-8.7,1.8-13.5,2.5v15.9h12.9l1.6-2.5c1.1-1.7,1.8-2.5,2.1-2.5c0.4,0,1.5,0.9,3.4,2.6
				c1.9,1.7,2.8,2.8,2.8,3.2c-0.1,0.6-0.7,0.9-1.6,0.9h-21.2v13.3c0.1,4.9,0.2,9.6,0.4,14.1c-0.3,0.5-0.9,0.9-1.8,1.4
				c-0.9,0.5-2,0.7-3.2,0.7c-0.5,0-0.9-0.1-1.2-0.4c-0.3-0.2-0.4-0.5-0.4-0.8c0.3-5.1,0.5-10.3,0.6-15.6v-12.7h-12.7
				c-2.4,0-5.3,0.3-8.5,0.9l-1.5-3.1c2.5,0.3,5,0.5,7.6,0.5h15.1V3412.6z"/>
			<path class="st1" d="M2826.1,3421.1l1.1-2.2c0.9-1.5,1.4-2.2,1.6-2.2c0.3,0,1.1,0.8,2.4,2.3c1.3,1.5,1.9,2.5,1.9,2.9
				c-0.1,0.7-0.6,1-1.4,1h-7v18.9c2.8-0.9,5.8-2,9-3l0.2,0.7c-6.5,4.6-12.3,8.4-17.4,11.4c-0.3,0.8-0.7,1.4-1.3,1.6l-2.6-6.9
				c1-0.2,3.3-1,7.1-2.2v-20.6h-2.1c-1.2,0-2.3,0.3-3.5,0.8l-1.4-3c1.4,0.2,3,0.4,4.8,0.5h2.2v-4.1c0-5-0.2-9.1-0.7-12.3
				c4.8,1.2,7.2,2.1,7.2,2.8c0,0.2-0.1,0.3-0.4,0.5l-1.1,0.6v12.5H2826.1z M2855,3408.4l1.3-2.3c1-1.5,1.6-2.3,1.8-2.3
				c0.4,0,1.4,0.8,3,2.3c1.6,1.6,2.4,2.6,2.4,3c-0.1,0.6-0.6,0.9-1.5,0.9h-12.5v24.7h6.7l1.5-2.3c1.1-1.6,1.7-2.3,1.9-2.3
				c0.4,0,1.4,0.8,3,2.4c1.7,1.6,2.5,2.6,2.5,3.1c-0.1,0.6-0.7,0.9-1.6,0.9h-14.1v7c0.1,4.8,0.2,9.3,0.4,13.6
				c-0.3,0.5-0.9,0.9-1.8,1.3c-0.9,0.4-1.9,0.6-3,0.6c-0.4,0-0.8-0.1-1-0.4c-0.3-0.2-0.4-0.5-0.4-0.8c0.3-5,0.5-9.6,0.6-13.8v-7.6
				h-5.3c-2.7,0-5.6,0.3-8.6,0.8l-1.4-3c2.1,0.2,4.6,0.4,7.6,0.5h7.8v-24.7h-4.3c-2.3,0-4.9,0.3-7.9,0.9l-1.4-3
				c2.1,0.2,4.6,0.4,7.6,0.5H2855z M2840.3,3414.7c2.2,0.5,3.3,1.1,3.1,1.5c0,0.2-0.2,0.3-0.6,0.5l-1.1,0.4
				c-2.8,6.6-6.2,11.7-10.2,15.2l-0.7-0.5c1-2.2,1.9-4.2,2.5-6c1.6-4.3,2.4-8.6,2.6-12.7L2840.3,3414.7z M2851.8,3414.4l0.7-0.4
				c5,2.7,8.1,6,9.4,9.7c0.9,2.4,0.8,4.2-0.2,5.6c-0.9,1.2-2,1.3-3.3,0.4c-0.2-0.1-0.4-0.3-0.6-0.5
				C2857.2,3424.9,2855.2,3420,2851.8,3414.4z"/>
			<path class="st1" d="M2902.8,3432.6l1.3-1.8c0.1-0.2,0.3-0.4,0.6-0.8c0.3-0.4,0.5-0.7,0.6-0.8c0.1-0.2,0.3-0.2,0.4-0.2
				c0.4,0,1.3,0.6,2.7,1.9c1.4,1.3,2.2,2.1,2.2,2.5c-0.1,0.6-0.6,0.9-1.4,0.9h-9.3c1,3,2.6,5.8,4.8,8.3c3.5-3,5.9-5.8,7.4-8.4
				c3.5,2.9,5.3,4.5,5.3,5c0,0.2-0.2,0.3-0.5,0.3l-1.1,0.1c-3.1,1.7-6.5,3.1-10,4.2c3.6,3.6,8.5,6.3,14.6,8l-0.1,0.6
				c-2,0.5-3.5,2.1-4.2,5c-4.6-2.3-8.4-5.2-11.2-8.8c-2.8-3.6-4.9-8.4-6.2-14.3h-1.7c-1,0.7-2.2,1.4-3.5,2c2.3,2,4.1,4.5,5.2,7.3
				c1.1,2.9,1.6,5.5,1.5,7.9c-0.1,2.4-0.7,4.2-1.8,5.5c-1,1.4-3.2,2.1-6.6,2.1c0-1.4-0.4-2.5-1.1-3.2c-0.6-0.5-2-1.1-4-1.6v-0.8
				c2.4,0.2,4.5,0.4,6.5,0.4c0.6,0,0.9-0.2,1.2-0.5c0.7-1.1,1.1-2.9,1-5.4c-7.1,4.2-15.2,7.2-24.3,9.1l-0.3-1
				c4.4-1.3,8.8-3.2,13.1-5.6c4.4-2.4,8-4.9,10.8-7.5c-0.3-0.9-0.4-1.4-0.6-1.6c-6.4,3.7-13.7,6.4-21.9,8l-0.3-1.1
				c3.7-1.1,7.5-2.6,11.3-4.5c3.8-2,6.9-4,9.3-6.1l-0.5-0.7c-5.2,2.3-11.5,4-18.8,4.9l-0.4-0.9c6.2-1.6,11.6-3.8,16.2-6.6h-2.8
				c-1.6,0-3.3,0.3-5.1,0.8l-1.4-3c2.1,0.2,4.6,0.4,7.6,0.5H2902.8z M2913.2,3427l1.3-1.4c1-1,1.5-1.5,1.7-1.5
				c0.3,0,1.2,0.7,2.6,2.2c1.4,1.5,2.1,2.4,2.1,2.9c-0.3,0.3-1,0.5-2.1,0.6c-2.3,1.9-4.6,3.4-6.8,4.5l-0.6-0.4
				c0.8-2.1,1.4-3.8,1.8-5.1h-34.7c0,1.9-0.2,3.5-0.8,4.7c-0.6,1.3-1.4,2.2-2.4,2.8c-0.9,0.5-1.7,0.6-2.6,0.3
				c-0.9-0.3-1.5-0.8-1.7-1.7c-0.4-1.7,0.2-3,2.1-3.9c1-0.5,1.9-1.5,2.7-2.8s1.1-2.7,1-4.2l0.8-0.1c0.4,1.1,0.6,2.1,0.8,3H2913.2z
				 M2911.4,3410.1l1.4-2.2c0.1-0.2,0.3-0.4,0.4-0.6c0.2-0.3,0.3-0.5,0.4-0.6c0.1-0.2,0.2-0.3,0.4-0.5s0.3-0.3,0.4-0.4
				c0.1-0.1,0.2-0.1,0.3-0.1c0.4,0,1.4,0.8,3.1,2.3c1.7,1.5,2.5,2.5,2.5,3c-0.1,0.6-0.6,0.9-1.4,0.9H2881c-2.7,0-5.6,0.3-8.6,0.8
				l-1.4-3c2.1,0.2,4.6,0.4,7.6,0.5h14.2c0-2.9-0.1-5.3-0.4-7.1c4.8,1.1,7.1,2,7.1,2.6c0,0.2-0.1,0.4-0.4,0.6l-1,0.6v3.3H2911.4z
				 M2904.9,3415.4l1.1-1.6c0.1-0.1,0.3-0.3,0.4-0.6c0.2-0.3,0.3-0.4,0.4-0.6c0.1-0.1,0.2-0.2,0.3-0.4c0.1-0.1,0.2-0.2,0.4-0.2
				c0.4,0,1.3,0.7,2.8,2c1.5,1.3,2.2,2.2,2.2,2.6c-0.4,0.5-1,0.9-1.9,1.1v2.1c0.1,2.3,0.2,3.6,0.2,3.9c-0.1,0.3-0.8,0.7-1.8,1.1
				c-1.1,0.4-2,0.6-2.8,0.6h-0.8v-1.8h-19.3v0.6c0,0.2-0.2,0.4-0.7,0.6c-0.4,0.3-1,0.5-1.8,0.7c-0.7,0.2-1.4,0.3-2.1,0.3
				c-0.6,0-0.9-0.4-0.9-1.2c0.1-0.4,0.2-1.4,0.3-3.1v-2.2c0-2.7-0.1-5-0.4-6.8l5.9,2.8H2904.9z M2886.1,3417v4.9h19.3v-4.9H2886.1z"
				/>
			<path class="st1" d="M2936.6,3442c2.1-0.4,5.5-1.1,10.4-2.1l0.1,0.8c-4.5,2.5-9.8,5.3-15.8,8.2c-0.3,0.7-0.8,1.2-1.4,1.4
				l-2.8-6.6c2.4-0.4,4-0.6,4.7-0.8v-24.1c0-5-0.2-9.1-0.7-12.3l6.7,3.5c6.3-2.3,11.1-4.5,14.4-6.6l5.6,5.6c-0.6,0.6-1.6,0.6-3.2,0
				c-1.7,0.5-3.5,0.9-5.3,1.2c-0.2,4.6-0.2,9.2,0.2,14h2.5l1.2-1.9c0.9-1.3,1.4-1.9,1.6-1.9c0.3,0,1.2,0.7,2.5,2
				c1.4,1.3,2,2.2,2,2.6c-0.2,0.7-0.7,1-1.4,1h-8.3c0.7,7.5,2.1,12.9,4.2,16c0.5,0.8,0.9,0.7,1.2-0.2c0.6-1,1.2-2.9,2-5.6l0.7,0.1
				l-0.8,8.1c0.6,1.4,0.9,2.4,1,3.1s-0.1,1.3-0.5,1.9c-1.1,0.8-2.3,0.9-3.5,0.4s-2.2-1.4-3-2.7c-3.2-4.8-5.2-11.9-5.9-21.2h-8.2
				V3442z M2953.4,3455.9h-15.3c-2.2,0-4.5,0.3-7,0.8l-1.4-3c2.1,0.2,4.6,0.4,7.6,0.5h9.2l1.4-2.2c0.1-0.2,0.3-0.4,0.4-0.6
				c0.2-0.3,0.3-0.5,0.4-0.6c0.1-0.2,0.2-0.3,0.3-0.5s0.2-0.3,0.3-0.4c0.1-0.1,0.2-0.1,0.3-0.1c0.4,0,1.3,0.8,2.9,2.3
				c1.5,1.5,2.3,2.5,2.3,2.9C2954.7,3455.5,2954.2,3455.9,2953.4,3455.9z M2944.2,3411.1c-2.7,0.5-5.3,0.8-7.6,1v12.1h8.1
				C2944.3,3420.4,2944.2,3416,2944.2,3411.1z M2971.4,3410h-7.2v33c0.1,4.9,0.2,9.6,0.4,14.1c-0.3,0.5-0.8,0.9-1.6,1.4
				c-0.8,0.4-1.7,0.7-2.8,0.7c-0.4,0-0.8-0.1-1.1-0.4c-0.3-0.2-0.4-0.5-0.4-0.8c0.4-5.9,0.6-11.1,0.7-15.6v-25
				c0-4.8-0.3-8.9-0.8-12.3l6.3,3.3h6.2l1.3-1.6c1-1.1,1.6-1.6,1.8-1.6c0.3,0,1.3,0.8,2.9,2.5c1.6,1.7,2.4,2.7,2.4,3.1
				c-0.4,0.4-1.2,0.7-2.5,0.8c-2.9,6.6-5.5,11.7-7.7,15.1c5.6,4.4,8.5,9.6,8.5,15.6c0,3.2-0.5,5.5-1.8,7.1c-1.2,1.5-3.3,2.4-6.2,2.4
				c0-2.3-0.3-3.8-0.8-4.5c-0.4-0.6-1.3-1.1-2.7-1.3v-0.9h3.8c0.6,0,1-0.1,1.3-0.3c0.9-0.6,1.3-1.9,1.3-3.9c0-5.1-1.6-9.8-4.8-14
				C2969.2,3421.2,2970.4,3415.6,2971.4,3410z"/>
			<path class="st1" d="M3018.2,3440.1l1-1.5c0.8-1.1,1.3-1.6,1.5-1.6c0.4,0,1.3,0.6,2.7,1.9c1.4,1.3,2.1,2.1,2.1,2.5
				c-0.3,0.4-0.8,0.7-1.6,0.9v4.9c0.1,4.1,0.2,7.2,0.3,9.6c-0.2,0.4-0.9,0.8-1.9,1.3c-1,0.5-2,0.7-2.8,0.7h-0.9v-2.9h-18v1.3
				c0,0.3-0.5,0.7-1.5,1.1c-1,0.4-2,0.7-3,0.7c-0.3,0-0.6-0.1-0.9-0.4s-0.4-0.5-0.4-0.8c0.3-3.9,0.4-8.2,0.5-12.9v-7
				c-0.8,0.5-1.7,0.8-2.8,0.8h-0.9v-16.7c-2.7,1.3-5,2.3-6.9,3l-0.4-0.8c5.8-3,11.2-7.3,16.1-12.7c2.9-3.1,4.6-6.2,5.3-9.2l8.8,2.8
				c-0.1,0.7-1,1.1-2.5,1.2c2.4,2.5,5.7,4.6,9.9,6.5s8.6,3.4,13.2,4.5v0.9c-1.1,0.3-2,1-2.7,2c-0.7,1-1.2,2.1-1.4,3.3
				c-1.9-0.8-3.8-1.8-5.8-2.9c2.9,2.2,4,3.4,3.4,3.8c-0.1,0-0.1,0.1-0.2,0.1l-0.7,0.2v3.9c0.1,4,0.2,6.5,0.3,7.5
				c-0.2,0.4-0.8,0.7-1.7,1.2c-0.9,0.4-1.8,0.6-2.5,0.6h-0.8v-1.9h-26.4v0.7c0,0.3-0.3,0.6-0.8,1l5.2,2.3H3018.2z M2993.7,3421.1
				l3.5,1.5h25.3l2.1-2.3c-6-3.6-10.5-8-13.3-13.2C3007.5,3412.1,3001.7,3416.7,2993.7,3421.1z M3007.4,3424.3h-11v10h11V3424.3z
				 M2998.5,3425.4l0.7-0.4c3.3,1.4,5.1,3.2,5.5,5.3c0.3,1.4-0.1,2.4-0.9,3c-0.9,0.6-1.9,0.4-2.8-0.6
				C3000.9,3430.5,3000.1,3428.1,2998.5,3425.4z M3017.4,3419.3h-10.6c-1.5,0-3,0.3-4.7,0.8l-1.5-3c2.1,0.2,4.6,0.4,7.5,0.5h3.7
				l1.1-1.6c0.9-1.1,1.4-1.7,1.6-1.7c0.4,0,1.2,0.6,2.4,1.7c1.2,1.2,1.9,1.9,1.9,2.4C3018.6,3419,3018.2,3419.3,3017.4,3419.3z
				 M3018.6,3447.2v-5.4h-18v5.4H3018.6z M3000.6,3448.9v5.3h18v-5.3H3000.6z M3011.8,3434.4h2.1c1.4-3.7,2.2-6.9,2.4-9.8
				c3.8,1.3,5.7,2.3,5.7,2.8c0,0.2-0.2,0.3-0.6,0.5l-1,0.4c-1.2,1.7-2.9,3.7-5.2,6.2h7.5v-10h-11V3434.4z"/>
			<path class="st1" d="M3058.8,3419.2l1.1-1.8c0.1-0.1,0.2-0.3,0.3-0.5c0.1-0.2,0.3-0.4,0.4-0.5c0.1-0.1,0.2-0.2,0.3-0.4
				c0.1-0.1,0.2-0.2,0.3-0.3s0.2-0.1,0.3-0.1c0.4,0,1.3,0.7,2.9,2.1c1.6,1.4,2.3,2.4,2.3,2.8c-0.4,0.6-1.2,1-2.3,1.2v5.6
				c0.1,4.8,0.2,8.4,0.4,10.9c-0.2,0.4-0.9,0.7-1.9,1.1c-1,0.4-2,0.6-2.8,0.6c-0.7,0-1.1-0.4-1.1-1.2c0,0,0.1-0.4,0.2-1.1v-1.2h-9.4
				c-0.6,9.8-3.4,17.4-8.2,22.7l-0.7-0.6c1.3-2.9,2.2-6.2,2.9-10.2s1.1-7.3,1.2-10.2c0.1-2.9,0.2-6.5,0.2-11v-9.4
				c0-4-0.2-7.2-0.6-9.7l5,1.9c4.6-2.5,8.1-4.7,10.2-6.6c3.3,2.7,4.9,4.4,5,4.9c0,0.2-0.3,0.3-0.9,0.3l-1.6-0.1
				c-3.5,1.2-7.6,2.2-12.2,3.1v7.5H3058.8z M3050,3434.8h9.3v-13.9h-9.1v6.5C3050.1,3430.6,3050.1,3433.1,3050,3434.8z
				 M3073.7,3423.8h10.9l1.3-2.1c0.1-0.2,0.2-0.4,0.4-0.6c0.2-0.3,0.3-0.5,0.4-0.6c0.1-0.2,0.2-0.3,0.3-0.5c0.1-0.2,0.3-0.3,0.4-0.4
				c0.1-0.1,0.2-0.1,0.3-0.1c0.4,0,1.3,0.7,2.8,2.2c1.5,1.4,2.3,2.4,2.3,2.8c-0.2,0.7-0.7,1-1.5,1h-5.2v17.6
				c0.1,4.9,0.2,9.6,0.4,14.1c-0.3,0.4-0.9,0.9-1.7,1.3c-0.9,0.4-1.9,0.6-3,0.6c-0.4,0-0.8-0.1-1.1-0.4c-0.3-0.2-0.4-0.5-0.4-0.8
				c0.3-5.1,0.5-10.3,0.6-15.6v-16.8h-7.2c0,2.5-0.1,4.8-0.3,6.9c-0.2,2.1-0.6,4.4-1.2,7c-0.6,2.6-1.4,5-2.4,7.1
				c-1,2.1-2.4,4.3-4.1,6.5s-3.8,4.1-6.3,5.9l-0.6-0.6c2-2.4,3.7-5,5.1-7.8c1.4-2.8,2.4-5.7,3-8.8c0.6-3,1.1-5.9,1.3-8.6
				c0.2-2.7,0.3-5.6,0.3-9v-8.2c0-3.3-0.2-6.2-0.5-8.5l6.2,2.4c4.8-2.3,8.5-4.4,11.2-6.3l5.9,5.6c-0.7,0.6-1.7,0.6-3.2,0.1
				c-4.7,1.3-9.5,2.2-14.4,2.8V3423.8z"/>
		</g>
		<g>
			<path class="st1" d="M2354.3,3548.4h22.2v5.6h-26.4v-4.3c0.8-1,2.3-2.8,4.6-5.5c2.2-2.7,3.9-4.6,4.9-5.9c3.2-3.8,5.5-7,6.9-9.6
				c1.4-2.6,2.1-5.3,2.1-8c0-2.9-0.7-5.1-2-6.9c-1.4-1.7-3.2-2.6-5.5-2.6c-1,0-2,0.1-3,0.4l-1.4,5.1c-0.6,2.9-1.8,4.3-3.6,4.3
				c-1.4,0-2.5-0.7-3.2-2.2c0.3-3.2,1.7-5.7,4.2-7.4c2.5-1.8,5.4-2.6,8.9-2.6c4,0,7,1.1,9,3.2c2,2.1,3,5,3,8.6
				c0,2.7-0.9,5.4-2.8,8.1c-1.9,2.6-5.4,6.7-10.6,12c-0.6,0.6-1.8,1.8-3.5,3.7C2356.3,3546.2,2355.1,3547.5,2354.3,3548.4z"/>
			<path class="st1" d="M2381.6,3539.3v-3.9h15v3.9H2381.6z"/>
			<path class="st1" d="M2430.1,3536.5v4.5h-6.5v13.1h-5.7v-13.1h-16.9v-3.6l18.5-28h4.2v27.2H2430.1z M2404.1,3536.5h13.7v-21
				L2404.1,3536.5z"/>
			<path class="st1" d="M2474.7,3515.5l1.1-1.7c0.1-0.2,0.3-0.4,0.5-0.8c0.2-0.4,0.4-0.6,0.6-0.8c0.1-0.1,0.3-0.2,0.4-0.2
				c0.4,0,1.4,0.7,3,2.1c1.6,1.4,2.4,2.3,2.4,2.7c-0.3,0.6-1,1-2.1,1.2v3c0.1,3,0.2,4.9,0.3,5.7c-0.2,0.4-0.8,0.8-1.9,1.3
				c-1.1,0.4-2,0.7-2.9,0.7h-0.8v-2.6h-29.5c0,2.5-0.1,5.1-0.3,7.7h13.8c0-2.8-0.1-5.2-0.4-7c4.4,1.2,6.6,2,6.6,2.6
				c0,0.1-0.1,0.3-0.3,0.4l-0.7,0.6v3.5h12.5l1.3-1.9c0.1-0.2,0.2-0.3,0.4-0.6c0.1-0.2,0.3-0.4,0.4-0.6c0.1-0.2,0.2-0.3,0.3-0.4
				c0.1-0.1,0.2-0.2,0.3-0.3c0.1-0.1,0.2-0.1,0.3-0.1c0.4,0,1.3,0.7,2.9,2c1.5,1.3,2.3,2.2,2.3,2.7c-0.2,0.7-0.7,1-1.5,1h-21
				c-0.2,2-0.5,3.9-0.9,5.5h11.4l1.2-1.4c0.9-0.9,1.4-1.3,1.6-1.3c0.4,0,1.3,0.6,2.8,1.9c1.5,1.3,2.2,2.1,2.2,2.5
				c-0.4,0.5-1.1,0.8-2.2,0.9c-0.6,7.4-2,12-4.3,13.7c-1.7,1.1-3.7,1.6-6.1,1.6c0-1.8-0.3-3-1-3.7c-0.9-0.9-2.6-1.5-5-1.9v-0.9
				c4.3,0.4,6.7,0.5,7,0.5c0.8,0,1.4-0.2,1.9-0.5c1-0.9,1.8-4.1,2.3-9.6h-12.2c-1.1,3.4-3.2,6.4-6.2,9.1s-7.4,5-13.3,7l-0.6-0.8
				c2.6-1.3,4.9-2.8,6.8-4.3c1.9-1.5,3.4-3,4.5-4.3c1.1-1.4,1.9-2.9,2.6-4.6c0.6-1.7,1.1-3.2,1.3-4.6c0.2-1.3,0.3-2.9,0.4-4.7h-11.4
				c-1.3,10.1-4.9,17.7-10.9,22.9l-0.7-0.5c2.8-4.3,4.6-9.2,5.5-14.5c0.9-5.4,1.4-11.5,1.4-18.5v-8.9c0-3.6-0.2-6.7-0.5-9.2l5.3,2.3
				c12.3-1.6,22.2-3.6,29.8-6l5.1,5.7c-0.7,0.6-1.8,0.5-3.3-0.2c-10.5,1.2-21,1.8-31.3,1.6v5.1H2474.7z M2475.3,3524.4v-7.3h-29.5
				v7.3H2475.3z"/>
			<path class="st0" d="M2515.6,3561.2v-60h2.2v60H2515.6z"/>
			<path class="st0" d="M2556,3554.7v2.3c0,0.4-0.4,0.8-1.3,1.3c-0.9,0.5-1.8,0.8-2.8,0.8c-0.4,0-0.7-0.1-1-0.4
				c-0.3-0.2-0.4-0.5-0.4-0.8c0.3-5.1,0.5-10.3,0.6-15.6v-25.7c0-5-0.2-9.1-0.7-12.3l6.1,2.8h34.3l1.2-1.5c0.1-0.1,0.2-0.3,0.3-0.5
				c0.1-0.2,0.3-0.3,0.4-0.4c0.1-0.1,0.2-0.2,0.3-0.3s0.2-0.2,0.3-0.3c0.1-0.1,0.2-0.1,0.3-0.1c0.4,0,1.3,0.7,2.8,2
				c1.5,1.3,2.3,2.2,2.3,2.6c-0.4,0.6-1.2,1-2.2,1.2v32.5c0.1,5,0.2,9.7,0.4,14.1c-0.3,0.5-0.9,0.9-1.9,1.4c-1,0.5-1.9,0.7-2.8,0.7
				c-0.7,0-1.1-0.4-1.1-1.2l0.2-1.4v-1.3H2556z M2556,3508.9v44.1h35.3v-44.1H2556z M2579.9,3533.2c1.8-3.9,2.9-7.8,3.1-11.5
				c4,1.8,6.1,2.9,6.1,3.5c0,0.2-0.1,0.3-0.5,0.4l-1.1,0.3c-1.6,4.7-3.6,8.8-6,12.2c1,2.1,2.2,3.9,3.7,5.5c0.3,0.4,0.5,0.6,0.7,0.6
				c0.2,0,0.4-0.3,0.6-0.7c0.9-2,1.6-4,2.1-5.9l0.7,0.1l-0.8,8c1.2,2.2,1.6,3.6,1,4.3c-0.5,0.7-1.2,0.9-2,0.8
				c-0.8-0.1-1.6-0.4-2.4-0.8c-0.8-0.5-1.5-1.1-2.2-1.8c-1.6-1.8-3-3.8-4.3-6.3c-3.3,3.8-7.4,6.8-12.3,9l-0.4-0.8
				c4.3-2.9,8.1-6.8,11.2-11.7c-1.8-4.6-3-10.9-3.5-18.6h-6.5c-2.4,0-5.3,0.3-8.5,0.9l-1.5-3.1c2.5,0.3,5,0.5,7.6,0.5h8.8
				c-0.1-1.8-0.1-4.5-0.2-8.1c3.9,0.6,5.9,1.2,5.8,1.7c0,0.2-0.1,0.3-0.4,0.5l-0.9,0.5c0,1.2,0,3,0.1,5.4h5.6l1.2-1.7
				c-0.3-0.1-0.6-0.2-0.9-0.4c-0.3-0.9-0.9-1.9-1.6-3c-0.7-1-1.5-1.8-2.2-2.4l0.4-0.6c1.2,0.1,2.3,0.3,3.2,0.6
				c0.9,0.3,1.6,0.7,2.1,1.1c0.5,0.4,0.8,0.9,1.1,1.3c0.2,0.5,0.4,0.9,0.3,1.4c0,0.4-0.1,0.8-0.4,1.2c1.7,1.4,2.8,2.5,3.5,3.3
				c-0.1,0.6-0.6,0.9-1.4,0.9h-10.9C2578.2,3525.1,2578.9,3529.6,2579.9,3533.2z M2560.1,3547.3c-0.9-2-1.9-3.9-2.8-5.9
				c3.9-0.5,9.4-1.4,16.7-2.9l0.1,0.8c-3,1.8-7.3,4-12.7,6.6C2561.1,3546.6,2560.7,3547.1,2560.1,3547.3z M2567.6,3524.2l0.9-1.2
				c0.1-0.1,0.2-0.2,0.3-0.4c0.1-0.2,0.2-0.3,0.3-0.4c0.1-0.1,0.1-0.2,0.2-0.3c0.1-0.1,0.2-0.2,0.3-0.2c0.1,0,0.2-0.1,0.3-0.1
				c0.4,0,1.1,0.5,2.2,1.5s1.7,1.7,1.7,2.1c-0.4,0.5-0.9,0.8-1.7,0.9v3c0.1,3,0.2,4.9,0.3,5.7c-0.2,0.4-0.7,0.8-1.4,1.2
				c-0.8,0.4-1.5,0.6-2.1,0.6h-0.6v-1.9h-4.5v1.8c0,0.1-0.1,0.3-0.4,0.5c-0.3,0.2-0.7,0.4-1.2,0.6c-0.5,0.2-1,0.3-1.5,0.3
				c-0.6,0-0.9-0.4-0.9-1.2c0.1-0.6,0.2-1.9,0.3-3.9v-2.7c0-3.4-0.1-6-0.4-8l4.5,2.1H2567.6z M2563.6,3525.9v7.3h4.5v-7.3H2563.6z"
				/>
			<path class="st0" d="M2612.1,3543.1v4.8c0.1,3.9,0.2,6.9,0.3,9.1c-0.2,0.4-0.7,0.9-1.5,1.3c-0.8,0.4-1.7,0.7-2.7,0.7
				c-0.4,0-0.7-0.1-1-0.4c-0.3-0.2-0.4-0.5-0.4-0.8c0.3-5.1,0.5-10.3,0.6-15.6V3517c0-5-0.2-9.1-0.7-12.3l6,2.6h3.8l1.2-1.3
				c0.1-0.1,0.3-0.3,0.4-0.5c0.2-0.2,0.3-0.4,0.4-0.5s0.2-0.2,0.4-0.3c0.1-0.1,0.3-0.1,0.4-0.1c0.3,0,1.2,0.7,2.6,2.2
				c1.4,1.5,2.1,2.4,2.1,2.9c-0.4,0.5-1.2,0.8-2.3,0.8c-2.9,6.6-5.2,11.3-6.9,14.2c4.5,4.2,6.7,9.1,6.7,14.6c0,3-0.5,5.2-1.5,6.6
				c-1.1,1.4-2.8,2.2-5.3,2.3c0-2-0.2-3.3-0.6-3.9C2613.8,3543.8,2613.1,3543.4,2612.1,3543.1z M2614.9,3542.2c0.9,0,1.4-0.3,1.8-1
				c0.3-0.7,0.5-1.7,0.5-3.1c0-5.1-1.2-9.6-3.6-13.3c1.4-5.4,2.5-10.6,3.3-15.6h-4.8v33.1H2614.9z M2633.6,3509.5
				c1.1-1.2,1.9-2.2,2.5-3.1l4.2,4.4c-0.4-1.5-0.7-3.3-0.9-5.2l0.8-0.5c1,5.3,3.1,9.9,6.2,13.9c1.4-3.2,2.4-5.9,3-8.2h-2.1
				c-1.1,0-2.2,0.3-3.4,0.8l-1.6-3c1.3,0.2,2.9,0.4,4.7,0.5h2.2l1.2-1.4c0.9-0.9,1.4-1.3,1.6-1.3c0.3,0,1.1,0.7,2.4,2.1
				c1.3,1.4,1.9,2.3,1.9,2.7c-0.3,0.3-1,0.5-2.1,0.6c-1.5,2.6-3.9,5.4-7,8.3c2.9,3.2,6.1,5.7,9.7,7.4l-0.1,0.7
				c-2.1,0.3-3.5,1.8-4.3,4.3c-6.1-4.8-10.2-11.9-12.3-21.4c-0.3,0.3-1,0.5-2,0.6c-3,10.2-8.7,17.6-17.3,22l-0.5-0.8
				c6.4-4.8,10.8-12,13.1-21.7h-5c-0.2,0.5-0.5,1.2-1.1,2.1c2.5,0.6,3.9,1.6,4.1,3c0.2,0.9-0.1,1.6-0.9,2c-0.7,0.4-1.4,0.2-2.2-0.4
				c-0.1-1.1-0.8-2.2-1.8-3.4c-0.7,1.2-1.5,2.4-2.4,3.5c2.4,0.9,3.8,2.1,4.1,3.8c0.2,1.1-0.1,1.8-0.9,2.2c-0.7,0.4-1.4,0.2-2.1-0.4
				c-0.2-1.2-0.8-2.6-1.9-4.4c-1.6,1.9-3.2,3.5-4.8,4.7l-0.7-0.6c1.6-1.9,3.3-4.6,5-8.1c0.8-1.8,1.5-3.8,2.1-6.2
				c0.6-2.4,0.9-4.4,1-6.1c4.2,1.1,6.2,1.8,6.2,2.3c0,0.1-0.1,0.2-0.4,0.3l-1,0.2c-0.1,0.4-0.4,1.1-0.8,1.9
				c-0.4,0.9-0.6,1.4-0.7,1.8H2633.6z M2630.6,3542.4c1.9,0.8,2.7,1.4,2.6,1.8c0,0.1-0.2,0.2-0.5,0.2l-0.9,0.1c-1.2,2-3,4-5.4,6
				c-2.4,2-4.9,3.6-7.4,4.9l-0.6-0.9c1.4-1.2,2.5-2.4,3.3-3.4c1.2-1.5,2.4-3.3,3.4-5.3c1-2,1.7-3.8,2.1-5.4L2630.6,3542.4z
				 M2646.2,3536.4l1.3-2.1c0.9-1.4,1.5-2.1,1.7-2.1c0.4,0,1.3,0.7,2.8,2.1c1.5,1.4,2.2,2.3,2.2,2.8c-0.2,0.7-0.7,1-1.4,1h-11.9
				v14.2c0,2.1-0.4,3.7-1.3,4.7c-0.9,1.1-2.7,1.7-5.4,1.9c-0.1-1.7-0.4-2.9-0.9-3.5c-0.8-0.9-2.2-1.4-4.2-1.8v-0.8
				c3.2,0.2,5.1,0.4,5.8,0.4c0.7,0,1.1-0.4,1.1-1.1v-14.2h-3.7c-2.2,0-4.4,0.3-6.8,0.8l-1.4-3c2.1,0.2,4.6,0.4,7.6,0.5H2646.2z
				 M2646.1,3529.8h-10.8c-1.3,0-2.9,0.3-4.8,0.9l-1.5-3.1c2.5,0.3,5,0.5,7.5,0.5h3.7l1.1-1.9c0.9-1.3,1.4-1.9,1.6-1.9
				c0.4,0,1.2,0.7,2.6,2c1.3,1.3,2,2.2,2,2.6C2647.4,3529.5,2646.9,3529.8,2646.1,3529.8z M2643.6,3541.7l0.6-0.4
				c5.5,2,8.9,4.6,10.5,8c0.9,2,0.9,3.6,0.1,4.8c-0.8,1.1-1.9,1.2-3.3,0.3c-0.1,0-0.2-0.1-0.3-0.2
				C2650.1,3550.8,2647.6,3546.6,2643.6,3541.7z"/>
			<path class="st0" d="M2703.5,3520.8l1.1-1.6c0.1-0.1,0.3-0.3,0.4-0.6c0.2-0.3,0.3-0.4,0.4-0.6c0.1-0.1,0.2-0.2,0.3-0.4
				c0.1-0.1,0.3-0.2,0.4-0.2c0.4,0,1.4,0.7,3,2.1c1.6,1.4,2.4,2.3,2.4,2.7c-0.6,0.6-1.4,1-2.3,1.2v28.5c0,2.3-0.5,3.9-1.4,5
				c-0.9,1.1-2.9,1.8-6,2.1c-0.2-2-0.6-3.3-1.3-4c-1-0.9-2.7-1.6-5.1-1.9v-0.9c3.9,0.4,6.4,0.5,7.3,0.5c0.8,0,1.2-0.4,1.2-1.3v-28.9
				h-32.5v20.2c0.1,5,0.2,9.7,0.4,14.1c-0.3,0.5-0.9,1-1.8,1.5c-1,0.5-2,0.8-3,0.8c-0.4,0-0.8-0.1-1-0.4s-0.4-0.5-0.4-0.8
				c0.3-5.1,0.5-10.3,0.6-15.6v-12.1c0-5-0.2-9.1-0.7-12.2l6.4,2.9h12.9v-7.3h-13c-2.7,0-5.5,0.3-8.5,0.8l-1.4-3
				c2.1,0.2,4.6,0.4,7.6,0.5h15.4c0-3.4-0.2-6.2-0.5-8.6c4.8,1.2,7.2,2.1,7.2,2.6c0,0.2-0.1,0.4-0.4,0.6l-1,0.6v4.7h13.5l1.6-2.3
				c0.1-0.2,0.3-0.4,0.5-0.7c0.2-0.3,0.4-0.5,0.5-0.6c0.1-0.1,0.3-0.3,0.4-0.5c0.1-0.2,0.3-0.3,0.4-0.4c0.1-0.1,0.2-0.1,0.3-0.1
				c0.4,0,1.5,0.8,3.3,2.4c1.8,1.6,2.7,2.6,2.7,3c-0.1,0.7-0.6,1-1.5,1h-21.5v7.3H2703.5z M2694.4,3542.7l1.2-1.8
				c0.1-0.1,0.2-0.3,0.4-0.5c0.1-0.2,0.3-0.4,0.4-0.5c0.1-0.1,0.2-0.3,0.3-0.4c0.1-0.1,0.2-0.2,0.3-0.3c0.1-0.1,0.2-0.1,0.3-0.1
				c0.4,0,1.3,0.6,2.7,1.9c1.4,1.3,2.2,2.1,2.2,2.5c-0.1,0.6-0.6,0.9-1.4,0.9h-10.9v4c0.1,4.1,0.2,6.6,0.3,7.6
				c-0.2,0.4-0.7,0.7-1.5,1.1c-0.8,0.4-1.8,0.5-2.9,0.5c-0.9,0-1.3-0.4-1.3-1.2c0.2-1.9,0.3-4.4,0.4-7.6v-4.5h-3.7
				c-1.9,0-4,0.3-6.5,0.9l-1.4-3.1c2.1,0.2,4.6,0.4,7.6,0.5h4.1v-7.3h-3.4c-1.9,0-3.9,0.3-6.1,0.8l-1.5-3c2.1,0.2,4.6,0.4,7.6,0.5
				h7.8c1.4-3.7,2.2-7.2,2.3-10.7c4.3,1.4,6.5,2.3,6.5,2.8c0,0.2-0.2,0.3-0.5,0.4l-1,0.4c-1.6,2.3-3.5,4.6-5.8,7.1h3.9l1.1-1.6
				c0.8-1.1,1.3-1.6,1.5-1.6c0.4,0,1.2,0.5,2.5,1.6c1.3,1.1,2,1.9,2,2.3c-0.2,0.7-0.7,1-1.4,1h-10.4v7.3H2694.4z M2677.4,3523.9
				l0.6-0.4c3.8,1.2,6,3,6.7,5.4c0.5,1.5,0.2,2.7-0.8,3.6c-1.1,0.9-2.3,0.8-3.5-0.4C2680.2,3529.3,2679.2,3526.5,2677.4,3523.9z"/>
			<path class="st0" d="M2735.7,3521.7l1.2-2.1c0.1-0.2,0.2-0.4,0.4-0.6c0.1-0.2,0.3-0.4,0.4-0.6c0.1-0.2,0.2-0.3,0.3-0.4
				c0.1-0.1,0.2-0.2,0.3-0.3c0.1-0.1,0.2-0.1,0.3-0.1c0.3,0,1.2,0.7,2.6,2.1s2.1,2.3,2.1,2.8c-0.2,0.7-0.7,1-1.4,1h-7.8v3.6
				c4.3,1.7,6.9,3.9,7.8,6.7c0.6,1.6,0.4,2.9-0.6,3.7c-0.9,0.8-2,0.7-3.2-0.3c-0.5-2.5-1.8-5.3-4-8.4v14.4c0.1,3.8,0.2,8.5,0.5,14.1
				c-0.3,0.4-0.9,0.9-1.7,1.3c-0.9,0.4-1.8,0.6-3,0.6c-0.4,0-0.7-0.1-1-0.4s-0.4-0.5-0.4-0.8c0.3-5.3,0.5-10.2,0.6-14.7v-8
				c-2.7,4.8-5.9,8.9-9.7,12.4l-0.7-0.7c4.3-6.1,7.5-13.9,9.6-23.4h-2.7c-1.5,0-3,0.3-4.7,0.8l-1.5-3c1.8,0.2,4,0.4,6.6,0.5h3.1
				v-9.8c-3.2,0.6-6.3,1.1-9.2,1.3l-0.2-0.9c3-1,6.2-2.4,9.5-4c3.3-1.7,5.9-3.2,7.8-4.7l5.9,5.6c-0.6,0.6-1.7,0.6-3.2,0.1
				c-2,0.7-3.8,1.2-5.5,1.6v10.9H2735.7z M2762.8,3538.3l1.3-0.3l1.1-2.5c0.7-1.7,1.2-2.5,1.4-2.5c0.4,0,1.3,0.6,2.7,1.8
				c1.4,1.2,2.1,2,2.1,2.4c0,0.7-0.4,1.2-1.2,1.3l-7.5,1.5v5.7c0.1,4.8,0.2,8.5,0.4,11c-0.2,0.5-0.8,1-1.7,1.5
				c-0.9,0.5-1.8,0.7-2.7,0.7c-0.5,0-0.9-0.1-1.1-0.4c-0.3-0.3-0.4-0.5-0.4-0.8c0.2-3.5,0.4-7.1,0.4-10.7v-5.9l-18,3.8l-0.8-1.6
				l18.8-4v-22.7c0-5-0.2-9.1-0.7-12.3c4.8,1.3,7.2,2.2,7.2,2.8c0,0.2-0.1,0.4-0.4,0.6l-0.9,0.7V3538.3z M2742.9,3524.6l0.5-0.4
				c5,0.8,8.3,2.6,9.6,5.3c0.8,1.6,0.8,2.9-0.1,4.1c-0.9,1.2-2,1.3-3.3,0.6c-0.2-0.1-0.4-0.2-0.5-0.3c-0.4-1.5-1.2-3.1-2.4-4.8
				C2745.5,3527.3,2744.2,3525.8,2742.9,3524.6z M2744.1,3510.1l0.5-0.5c5,1,8.2,2.9,9.5,5.7c0.8,1.6,0.7,3-0.2,4.2
				c-0.9,1.1-2,1.2-3.3,0.4c-0.1-0.1-0.3-0.2-0.4-0.3c-0.3-1.6-1.1-3.2-2.3-5C2746.7,3512.8,2745.4,3511.3,2744.1,3510.1z"/>
		</g>
		<g>
			<path class="st1" d="M2814,3510.2l-0.9,14.8c2.6-0.8,5.3-1.3,8.1-1.3c5.2,0,9.2,1.5,12.3,4.4c3,2.9,4.5,7,4.5,12.2
				c0,5.2-1.7,9.4-5,12.5c-3.3,3.1-7.7,4.6-13.1,4.6c-4,0-7.3-1-9.8-2.9c-2.5-1.9-4-4.7-4.6-8.4c0.6-1.8,1.8-2.7,3.7-2.7
				c1.2,0,2.1,0.4,2.7,1.1c0.6,0.7,1.2,2.1,1.6,3.9l1.1,5.4c1.5,0.4,3,0.6,4.5,0.6c3.6,0,6.3-1.2,8.3-3.6c2-2.4,3-5.8,3-10.1
				c0-4.1-1-7.3-3.1-9.6s-4.9-3.5-8.4-3.5c-2.3,0-4.7,0.4-7.3,1.3l-2-0.8l1.6-24.8h25.3v6.8H2814z"/>
			<path class="st1" d="M2864.6,3527.6c4,2,6.9,4.3,8.8,6.7c1.8,2.5,2.8,5.4,2.8,8.9c0,4.3-1.5,7.7-4.4,10.3
				c-3,2.6-6.9,3.9-11.7,3.9c-4.8,0-8.6-1.1-11.4-3.4c-2.8-2.3-4.2-5.4-4.2-9.4c0-5.8,3.7-10.4,11-13.8c-6.4-3.6-9.5-8.7-9.5-15.2
				c0-4,1.4-7.3,4.2-9.7c2.8-2.5,6.3-3.7,10.4-3.7c4.2,0,7.5,1.2,9.9,3.5c2.4,2.3,3.6,5.3,3.6,8.9
				C2874.1,3519.9,2870.9,3524.2,2864.6,3527.6z M2860.4,3554.7c2.7,0,4.9-0.9,6.4-2.6s2.4-4.1,2.4-7c0-2.6-0.9-4.9-2.6-6.9
				c-1.7-2-4.7-4-9.1-6.1c-2.3,1.6-3.9,3.4-4.9,5.2c-1,1.8-1.5,4-1.5,6.6c0,3.4,0.8,6,2.5,8
				C2855.3,3553.7,2857.6,3554.7,2860.4,3554.7z M2860.4,3505.3c-2.2,0-4.1,0.8-5.6,2.4c-1.6,1.6-2.4,3.6-2.4,6.2
				c0,5.3,3.4,9.6,10.1,12.8c2-1.8,3.3-3.6,4.1-5.5c0.8-1.9,1.2-4.1,1.2-6.7c0-2.7-0.7-4.9-2-6.6
				C2864.6,3506.1,2862.8,3505.3,2860.4,3505.3z"/>
			<path class="st1" d="M2893.5,3505.6l-1.3,5.3c-0.6,3-2,4.6-4.3,4.6c-1.8,0-3-0.8-3.5-2.5c0.5-3.5,2.1-6.2,4.7-8
				c2.6-1.8,5.9-2.7,9.7-2.7c4.5,0,8.1,1.2,10.7,3.5c2.6,2.3,3.9,5.5,3.9,9.4c0,3.1-0.9,5.8-2.8,8.1c-1.9,2.3-4.6,4-8.2,5.1
				c4.2,0.8,7.4,2.4,9.4,4.9c2,2.5,3.1,5.6,3.1,9.3c0,4.4-1.6,7.9-4.7,10.7c-3.1,2.8-7.3,4.2-12.4,4.2c-4.2,0-7.6-0.9-10.2-2.8
				c-2.6-1.9-4.1-4.7-4.6-8.5c0.7-1.8,1.9-2.7,3.7-2.7c1.2,0,2,0.4,2.7,1.2c0.6,0.8,1.2,2.1,1.6,4.1l1.2,5.3c1.2,0.3,2.6,0.5,4,0.5
				c3.6,0,6.3-1.1,8.3-3.3c2-2.2,3-5.1,3-8.8c0-3.9-1-7-2.9-9.1c-2-2.2-4.8-3.2-8.5-3.2h-3.3v-3.2h2.8c3.3,0,6-1,7.9-3
				c1.9-2,2.9-4.8,2.9-8.5c0-3.3-0.8-5.9-2.4-7.6c-1.6-1.8-3.8-2.7-6.7-2.7C2895.9,3505.2,2894.7,3505.3,2893.5,3505.6z"/>
			<path class="st1" d="M2924.7,3557.8l-0.5-2.2c6.2-2.2,10.9-5.3,14.2-9.2c3.3-3.9,5.4-8.8,6.4-14.6c-2.6,2.4-5.8,3.6-9.7,3.6
				c-4.3,0-7.8-1.4-10.6-4.3c-2.8-2.9-4.2-6.7-4.2-11.5c0-5.2,1.6-9.4,4.7-12.5c3.1-3.1,7-4.7,11.7-4.7c5.1,0,9.1,1.9,12,5.8
				c2.9,3.9,4.3,9.1,4.3,15.8c0,8.3-2.4,15.5-7.2,21.5C2941,3551.5,2934,3555.6,2924.7,3557.8z M2937.8,3531.6c2.8,0,5.3-1,7.5-2.9
				c0.1-1.6,0.2-3.3,0.2-4.8c0-6.3-0.8-11-2.4-14.1c-1.6-3.1-3.8-4.6-6.5-4.6c-2.5,0-4.6,1.1-6.3,3.4c-1.6,2.3-2.5,5.6-2.5,9.9
				c0,4.2,0.9,7.4,2.7,9.7C2932.4,3530.5,2934.8,3531.6,2937.8,3531.6z"/>
			<path class="st1" d="M2959.5,3538.8v-4.7h18v4.7H2959.5z"/>
			<path class="st1" d="M3013.3,3502.3l0.4,2c-13.6,3.3-21.1,11.5-22.5,24.6c3.2-3.3,6.9-5,11.2-5c4.1,0,7.4,1.5,9.9,4.4
				c2.5,2.9,3.7,6.8,3.7,11.6c0,5.4-1.5,9.6-4.4,12.8c-2.9,3.1-6.7,4.7-11.5,4.7c-5.2,0-9.4-2-12.4-6c-3-4-4.5-9.5-4.5-16.6
				c0-8.5,2.7-15.7,8.1-21.8C2996.9,3507,3004.2,3503.4,3013.3,3502.3z M3000.3,3554.6c2.5,0,4.5-1.1,6-3.4
				c1.5-2.3,2.2-5.6,2.2-10.1c0-4.3-0.7-7.5-2.2-9.7c-1.5-2.2-3.6-3.2-6.3-3.2c-3.6,0-6.6,1.2-9,3.5c0,0.5-0.1,1.1-0.1,2
				c0,6.9,0.8,12.1,2.5,15.6C2995.1,3552.8,2997.4,3554.6,3000.3,3554.6z"/>
			<path class="st1" d="M3032.9,3505.6l-1.3,5.3c-0.6,3-2,4.6-4.3,4.6c-1.8,0-3-0.8-3.5-2.5c0.5-3.5,2.1-6.2,4.7-8
				c2.6-1.8,5.9-2.7,9.7-2.7c4.5,0,8.1,1.2,10.7,3.5c2.6,2.3,3.9,5.5,3.9,9.4c0,3.1-0.9,5.8-2.8,8.1c-1.9,2.3-4.6,4-8.2,5.1
				c4.2,0.8,7.4,2.4,9.4,4.9c2,2.5,3.1,5.6,3.1,9.3c0,4.4-1.6,7.9-4.7,10.7c-3.1,2.8-7.3,4.2-12.4,4.2c-4.2,0-7.6-0.9-10.2-2.8
				c-2.6-1.9-4.1-4.7-4.6-8.5c0.7-1.8,1.9-2.7,3.7-2.7c1.2,0,2,0.4,2.7,1.2c0.6,0.8,1.2,2.1,1.6,4.1l1.2,5.3c1.2,0.3,2.6,0.5,4,0.5
				c3.6,0,6.3-1.1,8.3-3.3c2-2.2,3-5.1,3-8.8c0-3.9-1-7-2.9-9.1c-2-2.2-4.8-3.2-8.5-3.2h-3.3v-3.2h2.8c3.3,0,6-1,7.9-3
				c1.9-2,2.9-4.8,2.9-8.5c0-3.3-0.8-5.9-2.4-7.6c-1.6-1.8-3.8-2.7-6.7-2.7C3035.2,3505.2,3034.1,3505.3,3032.9,3505.6z"/>
			<path class="st1" d="M3064.1,3557.8l-0.5-2.2c6.2-2.2,10.9-5.3,14.2-9.2c3.3-3.9,5.4-8.8,6.4-14.6c-2.6,2.4-5.8,3.6-9.7,3.6
				c-4.3,0-7.8-1.4-10.6-4.3c-2.8-2.9-4.2-6.7-4.2-11.5c0-5.2,1.6-9.4,4.7-12.5c3.1-3.1,7-4.7,11.7-4.7c5.1,0,9.1,1.9,12,5.8
				c2.9,3.9,4.3,9.1,4.3,15.8c0,8.3-2.4,15.5-7.2,21.5C3080.4,3551.5,3073.4,3555.6,3064.1,3557.8z M3077.2,3531.6
				c2.8,0,5.3-1,7.5-2.9c0.1-1.6,0.2-3.3,0.2-4.8c0-6.3-0.8-11-2.4-14.1c-1.6-3.1-3.8-4.6-6.5-4.6c-2.5,0-4.6,1.1-6.3,3.4
				c-1.6,2.3-2.5,5.6-2.5,9.9c0,4.2,0.9,7.4,2.7,9.7C3071.8,3530.5,3074.2,3531.6,3077.2,3531.6z"/>
		</g>
	</g>
</g>
</svg>
