<?xml version="1.0" encoding="utf-8"?>
<!-- Generator: Adobe Illustrator 21.0.0, SVG Export Plug-In . SVG Version: 6.00 Build 0)  -->
<svg version="1.1" id="圖層_1" xmlns="http://www.w3.org/2000/svg" xmlns:xlink="http://www.w3.org/1999/xlink" x="0px" y="0px"
	 viewBox="0 0 2000 486" enable-background="new 0 0 2000 486" xml:space="preserve">
<g>
	<path d="M984.1,76.4c-14.8,1.9-179.9,1.3-188.1-0.8c0-6.2,0-12.7,0-19.3c-11.6,0-22,0-32.8,0c0,124.4,0,248.3,0,372.7
		c11,0,21.4,0,33.1,0c0-6.4,0-12.4,0-18.3c0.1-6,0.2-11.9,0.4-17.6c14.2-1.9,180-1.3,187.6,0.8c0,11.4,0,23.1,0,35.1
		c11.6,0,22.3,0,33.2,0c0-124.5,0-248.4,0-372.5c-11.3,0-22,0-33.4,0C984.1,63.3,984.1,69.6,984.1,76.4z M872,378.4
		c-24.6,0-49.3,0-75.1,0c0-45.4,0-89.9,0-135.1c25.3,0,50,0,74.6,0C873.6,250.5,874,366.9,872,378.4z M872.1,229.5
		c-25.1,0-49.6,0-74,0c-2.2-6.8-2.8-124.6-0.8-138.3c24.6,0,49.4,0,74.1,0C873.5,97.7,874.2,216,872.1,229.5z M983.5,379
		c-25.2,0.1-50.2,0.1-75.7-0.1c0-45.6,0-90.2,0-135.6c25.7,0,50.5,0,75.7,0C983.5,288.5,983.5,333,983.5,379z M983,229.8
		c-24.9,0.3-49.9,0.1-75.3,0.1c0-47,0-92.6,0-139.1c25.7,0,50.3,0,74.7,0C984.3,97.9,984.9,216.7,983,229.8z"/>
	<path d="M1660.6,119.3c-10.5,0-21.1,0.1-31.6,0c-10.4-0.1-20.8,0.3-32.1-0.3c0-24.8,0-48.3,0-72.4c-11.6-0.1-22.3-0.3-33.9,0.1
		c0,24.8,0,48.3,0,72.6c-10.8,0-20.6,0-30.4,0c-9.6,0-19.2,0-28.8,0c-9.9,0-19.8-0.1-29.7,0c-9.8,0.1-19.6-0.4-29.2,0.3
		c0,4.7,0,8.1,0,12.8c39.5,0,78.6,0,118.1,0c0,35.7,0,70.1,0,105.1c-15.5,1.8-61.9,1.2-68.6-0.8c-0.3-4.3-0.6-8.7-1-13.8
		c-6,0-11.3,0-16.7,0c-5.6,0-11.2,0.1-16.7,0.1c0,68.3,0,135.3,0,202.8c11.6,0.4,22.5,0.7,34.5-0.2c0-10.1,0-19.2,0-29
		c60,0.1,118.9-0.3,178.9,0.2c0,10.5,0,19.6,0,29.2c11.8,0,22.4,0.4,32.9-0.2c0-68.3,0-135.3,0-203c-6,0-11.4,0-16.8,0
		c-5.3,0-10.6,0-16.1,0c-0.4,5.8-0.7,10.1-0.9,14.7c-25.2,0-49.9,0-74.5,0c-1.7-17.3-1-97.8,1.1-105.6c41.1,0,82.5,0,124.3,0
		c0-4.6,0-8.3,0-12.7c-11.1,0-21.6,0-32.1,0C1681,119.3,1670.8,119.3,1660.6,119.3z M1672.5,252.1c0,43.9,0,87.2,0,132
		c-59.2,0.1-118.3,0-178,0c0-44.4,0-87.7,0-131C1501.7,251,1647.2,250.1,1672.5,252.1z"/>
	<path d="M1980.3,340.4c-2.6,6.6-5.2,13-7.8,19.5c-3.8,9.5-10.9,14.6-21.1,15.6c-1.9,0.2-3.8,0.2-5.7,0.2c-34.8,0-69.7,0-104.5,0
		c-2.2,0-4.3-0.2-8.8-0.5c3.4-3.6,5.3-5.7,7.2-7.7c21.8-22.9,44.2-45.3,65.4-68.8c22.8-25.2,43.2-52.2,58.1-82.9
		c9.9-20.4,15.2-41.9,14.5-64.8c-1.3-38.8-25.3-67.5-63.5-74.1c-10.9-1.9-22.3-2.1-33.4-1.3c-24.6,1.8-46.7,10.3-63.9,29
		c-14.1,15.3-21.7,33.7-25.3,53.9c-1,5.8-1.4,11.8-2.1,18.1c4.7,0,7.9,0,10.7,0c3-9,5.2-17.4,8.6-25.3c11.7-27.6,32.2-44,62.5-46.7
		c36.2-3.3,62.6,21.7,64.7,53.3c0.9,13.6-1.1,26.7-5.2,39.6c-6.9,21.8-18,41.6-30.3,60.7c-31.6,48.7-70.9,90.5-115.8,127.1
		c-7.9,6.5-8.7,13-6.7,22.1c66.5,0,132.8,0,199.7,0c7.5-22.3,14.8-44.3,22.4-67C1992.8,340.4,1986.8,340.4,1980.3,340.4z"/>
	<path d="M527.6,229.2c-18.9-13.7-37.3-27-55.7-40.3c0-13.7,0-27.6,0-42.7c17.3,0,34,0,51.1,0c0-5.7,0-10.3,0-16.1
		c-17.3,0-34.1,0-51.6,0c0-10.4,0-19.7,0-28.9c0-8.9,0.1-17.9,0-26.8c-0.1-9.1,0.4-18.3-0.3-27.2c-11.1,0-20.8,0-31.9,0
		c0,27.8,0,55,0,83.4c-19,0-36.8,0-54.7,0c0,5.7,0,10.3,0,15.9c18.4,0,36.1,0,54.5,0c-7.4,69.5-22.6,135.5-55.9,196.4
		c6,2.9,8.4-0.5,10.8-4.1c13.5-19.8,27-39.6,40.5-59.4c1.1-1.6,2.4-3.2,3.7-4.7c0.5,0.2,1.1,0.4,1.6,0.5c0,51,0,102,0,153.5
		c11,0,21,0,30.7,0c0.4-1,0.6-1.3,0.6-1.6c0.1-0.6,0.3-1.2,0.3-1.9c0-70.3,0.1-140.6,0.1-210.9c0-1,0-1.9,0.1-2.9
		c0-0.3,0.1-0.6,0.2-0.9c0.1-0.2,0.3-0.5,0.5-0.6c0.3-0.1,0.6-0.1,1.2-0.3c3.8,6.6,7.4,13.3,11.4,19.8c4.1,6.5,8.3,12.9,13,19
		c4.5,5.9,8.1,12.7,15.3,17.5C518.1,253.2,522.8,241.4,527.6,229.2z"/>
	<path d="M1079.6,272.3c10.7,0.8,10.9,1,14.1-2c25.4-24.2,43.6-51.8,42.3-88.8c-0.2-4.4,0.3-8.7,0.4-13.2c20.9,0,40.9,0,61.2,0
		c0.2,3.5,0.5,6.3,0.5,9.2c0,16.3-0.2,32.6,0.1,48.9c0.1,5.7-1.6,9.6-6.3,12.8c-4.5,3.1-9.2,6.1-13.6,11.2c15.5,0,29.4,0,44.3,0
		c0-33.8,0-66.9,0-100.5c19.6,0.5,32.6-10.4,44.9-22.1c13-12.3,17.1-28.6,17.9-46.1c13.7,0,26.7,0,40.4,0c0,5.4-0.1,10.2,0,14.9
		c0.1,6.7,0,13.5,0.7,20.1c1,8.7,4.8,13.1,13.5,13.4c15.2,0.6,30.5,0.2,46.2,0.2c0-7.6,0-14.4,0-22.2c-7.9,0-15.2,0.3-22.5-0.1
		c-7.1-0.3-9.7-3-9.9-10.2c-0.2-11.5-0.1-23-0.1-34.5c0-3.4,0-6.8,0-10.4c-9.8,0-18.3,0-27.2,0c-0.5,5.1-0.9,9.7-1.4,14.3
		c-13.6,0-26.5,0-39.7,0c-0.4-5-0.7-9.4-1-14.3c-8.9,0-17.3,0-26.5,0c-0.2,3.5-0.5,6.7-0.5,9.8c-0.1,11.2-0.1,22.4,0,33.6
		c0.3,21.4-10.2,36.3-28.2,46.6c-1.7,1-3.9,1.2-7.2,2.3c0-24,0-46.9,0-69.9c-8.6,0-16,0-23.4,0c-0.6,4.1-1.2,7.5-1.7,10.7
		c-20.6,0-40.6,0-60.7,0c0-2.5,0-4.3,0-6.4c16.1-3,24.3-13,27-29.4c-9.5-0.3-18.2-1.2-26.9,0.6c-2,7.9,0.9,15.9-3.5,23.3
		c-7.8,0.3-15.6,0.7-24.2,1.1c0,9.6,0,18.2,0,26.7c0,9,0.1,17.9,0,26.9c-0.1,8.5,0.4,17-0.5,26.2c-8.1,0-15.1,0-22.3,0
		c0,4.5,0,8.2,0,12.3c7.7,0.3,14.9,0.7,22.8,1c0,12-0.1,23.2,0,34.3c0.2,22.3-7,42-20.7,59.4C1085.7,265.1,1083,268.2,1079.6,272.3z
		 M1136.5,100.3c20.5,0,40.5,0,61,0c0,17.8,0,35.2,0,54c-20.2,0.5-40.1,0.1-61,0.2C1136.5,135.6,1136.5,118.3,1136.5,100.3z"/>
	<path d="M1097.4,294.4c19.3,0,38,0,57.1,0c0.4,6.7-2.9,11.2-5.3,15.9c-16.1,30.5-42.2,50.4-73.2,67c24.3,4.7,41.7-8.8,61.3-17.7
		c0,13.3,0,25.1,0,36.9c0,11.7,0,23.4,0,35c12.1,0,22.8,0,34.6,0c0-8.1,0-15.6,0-23.4c54.6,0,108,0,162.7,0c0,7.2,0,13.7,0,20.5
		c11.9,0,22.6,0,33.1,0c2.2-12.2,1.6-102.6-0.5-108.9c-10.8,0-21.5,0-32.3,0c-0.4,5.1-0.7,9.4-1.1,14.2c-53.1,0-105.6,0-159,0
		c5.2-6.7,10.2-12.4,14.2-18.7c4.1-6.4,7.1-13.5,11.1-21.3c61.8,0,123.9,0,186.3,0c0-4.2,0-7.3,0-11.1c-97.1,0-193.1,0-289.2,0
		C1097.4,286.8,1097.4,290.1,1097.4,294.4z M1172.2,349c7-2,142.9-2.9,161.2-1c2.2,7.2,0.8,14.9,1,22.4c0.2,7.6,0.1,15.3,0.1,22.7
		c-7.6,2.4-152.6,2.7-162.3,0.5C1172.2,378.7,1172.2,363.8,1172.2,349z"/>
	<path d="M629.6,397.6c0-28.8,0-56.1,0-84.4c19.9,0,39.2,0,59.1,0c0-5.5,0-10.2,0-15.9c-19.9,0-39.2,0-59.7,0c0-21,0-40.9,0-61.1
		c-10.9,0-20.6,0-31.3,0c0,20.3,0,40,0,61.2c-12.4,0-23.2-0.1-34.1,0c-10.7,0.2-21.5-0.7-32,0.5c0,5.4,0,9.8,0,15.2
		c22.1,0,43.6,0,65.4,0c0,28.7,0,56.3,0,84.9c-29.7,0-58.7,0-87.9,0c0,5.6,0,10.1,0,15c65.1,0,129.6,0,194.4,0c0-5.2,0-9.8,0-15.1
		C678.5,397.6,654.1,398.3,629.6,397.6z"/>
	<path d="M699.9,219c0-4.6,0-9.2,0-14.7c-24.9,0-49.1,0-74,0c0-26.4,0-51.2,0-77c21.2,0,41.9,0,63,0c0-5.6,0-10.2,0-15.4
		c-21.4-1-42.4,0.5-64.1-0.9c0-22.1,0-43,0-63.9c-10.8,0-20.5,0-31.3,0c0,21.6,0,42.5,0,64.6c-21.3,0-41.5,0-61.8,0
		c0,5.7,0,10.3,0,15.7c20.7,0,40.7,0,61.9,0c-0.2,25.9,0.5,50.9-0.5,76.9c-22.3,0-43.6,0-65.2,0c0,5.8,0,10.6,0,15.4
		C544.7,221.7,692.9,221,699.9,219z"/>
	<path d="M1234.4,263.6c5.3-0.3,10.7-0.1,15.9-1.1c15.7-3.2,30.8-8.6,44.3-17.4c5.2-3.4,9.2-3.3,14.9-0.8c13.4,5.9,27,11.5,41,15.7
		c11.4,3.5,23.4,4.9,35.8,7.3c0-11.1,0-20.8,0-30.7c-20.1-1-39.2-3.5-58.9-10.7c30-20.5,43.3-47.8,41.1-83.4
		c-10.9,0-20.9-0.4-30.7,0.2c-0.5,4.1-0.9,6.9-1.4,10.7c-29.7,0-59.2,0-89.1,0c0,4.7,0,8.3,0,12.2c4.9,0.5,9.2,0.9,13.3,1.3
		c8.4,36.3,10.4,39.2,28.5,62.3C1280,239.6,1265.9,248.1,1234.4,263.6z M1270.5,167c21.9,0,43.8,0,66.6,0
		c-3.4,20.7-12.7,36.4-29,47.8C1287.9,205.2,1273.5,186.8,1270.5,167z"/>
	<path d="M1153.1,174.9c-0.2,19.6,2,36.2,15.5,50.3c7.3-7.7,14-14.8,21-22.2C1177.5,193.7,1166.1,185,1153.1,174.9z"/>
	<path d="M1167.1,149.3c5.4-6.7,10.1-12.6,15.1-18.8c-5.6-4.2-10.5-7.7-15.3-11.3c-4.9-3.7-9.7-7.5-15.9-12.4
		C1151.4,124.1,1153.7,138.3,1167.1,149.3z"/>
	<rect x="20.7" y="140.4" width="8.6" height="253.3"/>
	<rect x="148.3" y="140.4" width="8.6" height="253.3"/>
	<rect x="275.9" y="140.4" width="8.6" height="253.3"/>
	<polygon points="124.6,383.7 53,383.7 53,59.5 44.4,59.5 44.4,393.6 46,393.6 53,393.6 124.6,393.6 133.2,393.6 133.2,59.5 
		124.6,59.5 	"/>
	<polygon points="98.2,368.4 107.2,368.4 108.1,368.4 108.1,33.9 98.2,33.9 98.2,365.8 79.8,365.8 79.8,33.9 69.9,33.9 69.9,365.8 
		69.9,368.4 79.8,368.4 	"/>
	<rect x="85" width="8" height="33.9"/>
	<polygon points="252.4,383.7 180.7,383.7 180.7,59.5 172.1,59.5 172.1,393.6 173.7,393.6 180.7,393.6 252.4,393.6 261,393.6 
		261,59.5 252.4,59.5 	"/>
	<polygon points="226,368.4 234.9,368.4 235.9,368.4 235.9,33.9 226,33.9 226,365.8 207.6,365.8 207.6,33.9 197.7,33.9 197.7,365.8 
		197.7,368.4 207.6,368.4 	"/>
	<rect x="212.7" width="8" height="33.9"/>
	<path d="M30.1,437.3c-1.2,0.1-2.2,0.1-3.1,0.1s-2,0-3.2-0.1c-1.2-0.1-2.3-0.1-3.3-0.2c-0.1,0.3-0.1,0.6-0.1,0.8s0.1,0.4,0.2,0.6
		c0.1,0.2,0.3,0.3,0.6,0.4c1.3,0.2,2.2,0.4,2.8,0.8c0.6,0.4,0.8,1,0.8,1.9v7.9c-0.7,0.2-1.5,0.4-2.6,0.5c-1,0.1-2,0.2-3,0.2
		c-2,0-3.8-0.4-5.5-1.2s-3.1-1.9-4.4-3.4c-1.2-1.5-2.2-3.2-2.9-5.2c-0.7-2-1.1-4.2-1.1-6.6c0-2,0.3-3.9,0.8-5.7
		c0.6-1.7,1.4-3.2,2.5-4.5c1.1-1.3,2.5-2.3,4.1-3c1.7-0.7,3.6-1.1,5.8-1.1c2.8,0,4.9,0.5,6.4,1.5s2.5,2.7,3.2,5
		c0.1,0.4,0.5,0.7,1,0.7c0.1,0,0.3,0,0.5-0.1c0.2,0,0.3-0.1,0.4-0.2c-0.3-1.2-0.6-2.5-0.8-3.8s-0.3-2.5-0.4-3.8
		c-1.1-0.3-2.1-0.5-3.1-0.7s-1.9-0.4-2.8-0.5c-0.9-0.1-1.9-0.2-2.8-0.3c-1-0.1-1.9-0.1-3-0.1c-2.9,0-5.4,0.5-7.6,1.6
		c-2.2,1.1-4,2.4-5.4,4.1c-1.4,1.7-2.5,3.5-3.2,5.6C0.4,430.9,0,433,0,435c0,2.5,0.4,4.8,1.1,6.9c0.7,2.1,1.8,4,3.2,5.5
		c1.5,1.6,3.3,2.8,5.5,3.7s4.8,1.3,7.7,1.3c2.2,0,4.1-0.1,5.7-0.2c1.6-0.2,3.2-0.4,4.8-0.6c0.8-0.1,1.3-0.3,1.5-0.5s0.3-0.5,0.3-0.8
		v-9.2c0-0.7,0.2-1.2,0.6-1.5c0.4-0.3,1.2-0.6,2.3-0.7c0.2,0,0.3-0.1,0.4-0.2c0.1-0.1,0.2-0.4,0.2-0.7c0-0.2,0-0.5-0.1-0.8
		C32.3,437.2,31.3,437.2,30.1,437.3z"/>
	<path d="M80.5,450.6c-0.7-0.2-1.4-0.4-2.2-0.8c-0.8-0.3-1.5-1-2.2-1.9l-8.7-12c1.1-0.4,2.1-1,3-1.6c0.8-0.7,1.5-1.4,2.1-2.2
		c0.5-0.8,0.9-1.6,1.2-2.4s0.4-1.6,0.4-2.4c0-2.8-1-5-2.8-6.7c-1.9-1.6-4.7-2.5-8.4-2.5h-7c-1,0-2.1,0-3.2-0.1
		c-1.1-0.1-2.2-0.1-3.2-0.2c-0.1,0.3-0.1,0.6-0.1,0.8c0,0.6,0.2,0.8,0.5,0.9c1.5,0.2,2.4,0.4,2.9,0.8c0.5,0.3,0.8,0.8,0.8,1.5v26.4
		c0,0.7-0.3,1.2-0.8,1.5s-1.5,0.5-2.8,0.8c-0.4,0.1-0.6,0.3-0.6,0.8c0,0.2,0,0.5,0.1,0.8c1-0.1,2.1-0.1,3.3-0.2
		c1.2-0.1,2.2-0.1,3.1-0.1c1.3,0,2.6,0,3.9,0.1c1.3,0.1,2.5,0.1,3.4,0.2c0.1-0.3,0.1-0.6,0.1-0.9c0-0.5-0.2-0.8-0.6-0.9
		c-1.5-0.2-2.5-0.4-3.2-0.7s-1.1-0.8-1.1-1.6v-11.4h3.8l8.3,12c0.7,1,1.4,1.8,2.1,2.4c0.7,0.6,1.5,0.9,2.2,0.9c1,0,2,0,3.2,0.1
		c1.1,0.1,2.1,0.1,2.9,0.2c0.1-0.3,0.1-0.7,0.1-0.9C81,450.9,80.8,450.7,80.5,450.6z M66.7,433.1c-1.3,1-3.2,1.5-5.6,1.5h-2.7v-14.3
		H61c1.4,0,2.6,0.2,3.6,0.6c1,0.4,1.8,0.9,2.4,1.6s1,1.4,1.3,2.3c0.3,0.9,0.4,1.9,0.4,3C68.7,430.3,68,432.1,66.7,433.1z"/>
	<path d="M118.3,452.1c0.5,0,0.9,0.1,1.2,0.1s0.6-0.3,0.9-0.9c0.2-0.6,0.4-1.3,0.6-2.1s0.4-1.7,0.6-2.6c0.2-0.9,0.5-1.7,0.8-2.4
		c-0.2-0.1-0.4-0.2-0.5-0.3c-0.2-0.1-0.4-0.2-0.5-0.2c-0.4,0-0.7,0.1-0.8,0.4c-0.4,0.8-0.8,1.6-1.3,2.3c-0.4,0.7-1,1.3-1.5,1.8
		c-0.6,0.5-1.2,0.9-2,1.2c-0.7,0.3-1.6,0.4-2.6,0.4h-2.8c-2.1,0-3.7-0.1-4.6-0.4c-0.9-0.2-1.4-0.7-1.4-1.5v-12.2h8.1
		c0.7,0,1.2,0.3,1.5,1s0.5,1.5,0.7,2.5c0.1,0.4,0.4,0.7,1,0.7c0.2,0,0.5,0,0.8-0.1c-0.1-1.1-0.2-2-0.2-2.9c0-0.8-0.1-1.6-0.1-2.1
		c0-0.7,0-1.6,0.1-2.5c0.1-1,0.1-1.8,0.2-2.6c-0.1,0-0.2-0.1-0.4-0.1c-0.2,0-0.3-0.1-0.4-0.1c-0.5,0-0.8,0.2-0.9,0.7
		c-0.2,1-0.4,1.8-0.7,2.5s-0.8,1-1.5,1h-8.1v-13.3h7.7c1,0,1.9,0.1,2.6,0.3c0.7,0.2,1.3,0.5,1.8,0.9c0.5,0.4,0.9,0.9,1.3,1.6
		c0.4,0.6,0.8,1.4,1.2,2.3c0.1,0.3,0.4,0.5,0.9,0.5c0.3,0,0.7-0.1,0.9-0.3c-0.4-0.6-0.6-1.4-0.8-2.3c-0.1-0.9-0.3-1.7-0.4-2.5
		c-0.1-0.8-0.2-1.5-0.4-2c-0.2-0.6-0.5-0.9-0.9-0.9c-0.4,0-1.1,0.1-2.3,0.2c-1.1,0.1-2.5,0.2-4,0.2h-10.2c-0.8,0-1.7,0-2.7-0.1
		c-1,0-2.2-0.1-3.7-0.2c0,0.1-0.1,0.3-0.1,0.4c0,0.1,0,0.3,0,0.4c0,0.5,0.2,0.8,0.5,0.9c1.5,0.3,2.4,0.5,2.9,0.8s0.8,0.7,0.8,1.4
		v26.4c0,0.7-0.3,1.2-0.9,1.5c-0.6,0.3-1.5,0.5-2.8,0.8c-0.3,0.1-0.5,0.3-0.5,0.8c0,0.2,0,0.5,0.1,0.8c1-0.1,2.1-0.1,3.3-0.2
		c1.1-0.1,2.2-0.1,3.2-0.1h11.3c0.4,0,1,0,1.6,0.1c0.6,0,1.2,0.1,1.8,0.1C117.2,452,117.8,452,118.3,452.1z"/>
	<path d="M171.2,450.4c-0.7-0.1-1.4-0.3-2.1-0.6c-0.7-0.3-1.2-0.7-1.4-1.1l-12.5-31c-0.3-0.1-0.5-0.1-0.6-0.1c-0.4,0-0.7,0.3-1,0.9
		l-12.5,30c-0.2,0.6-0.6,1-1.2,1.2c-0.5,0.3-1.3,0.5-2.4,0.6c-0.3,0-0.5,0.1-0.5,0.3c-0.1,0.2-0.1,0.4-0.1,0.6c0,0.3,0,0.6,0.1,0.8
		c0.8-0.1,1.6-0.2,2.3-0.2c0.7,0,1.4-0.1,2.1-0.1c1,0,2,0,3.1,0.1c1,0.1,2,0.1,3,0.2c0.1-0.3,0.1-0.6,0.1-0.8s0-0.4-0.1-0.5
		c-0.1-0.2-0.3-0.3-0.5-0.3c-2.1-0.3-3.2-0.8-3.2-1.6c0-0.3,0.1-0.6,0.3-1l3.3-8.3H159l3.3,8.5c0.1,0.3,0.2,0.6,0.2,0.8
		c0,0.4-0.3,0.8-0.8,1c-0.6,0.2-1.3,0.4-2.2,0.6c-0.1,0-0.2,0.1-0.3,0.2c-0.1,0.1-0.2,0.3-0.2,0.6c0,0.2,0,0.5,0.1,0.8
		c1-0.1,2.1-0.1,3.4-0.2c1.2-0.1,2.3-0.1,3.3-0.1c0.9,0,1.9,0,3,0.1c1.1,0.1,2.2,0.1,3.3,0.2c0.1-0.3,0.1-0.6,0.1-0.8
		c0-0.3-0.1-0.5-0.2-0.6C171.6,450.5,171.4,450.4,171.2,450.4z M148.1,437.4l5-12.7l4.8,12.7H148.1z"/>
	<path d="M212.1,425.5c0.1,0.2,0.2,0.3,0.4,0.4c0.2,0.1,0.3,0.1,0.5,0.1s0.4,0,0.5-0.1c0.2-0.1,0.3-0.1,0.5-0.2
		c-0.4-1.2-0.6-2.2-0.8-3.2s-0.3-1.8-0.4-2.4c-0.1-0.7-0.3-1.2-0.4-1.5c-0.2-0.4-0.4-0.5-0.8-0.5c-0.3,0-0.6,0-1.1,0.1
		c-0.4,0-0.9,0.1-1.4,0.1s-1,0.1-1.6,0.1c-0.5,0-1,0.1-1.4,0.1h-17.3c-0.4,0-0.9,0-1.5-0.1c-0.5,0-1-0.1-1.5-0.1s-1-0.1-1.4-0.1
		c-0.4,0-0.8-0.1-1-0.1c-0.3,0-0.6,0.2-0.8,0.5c-0.2,0.3-0.3,0.8-0.4,1.5c-0.1,0.6-0.3,1.4-0.5,2.4s-0.4,2.1-0.8,3.3
		c0.3,0.2,0.6,0.3,1,0.3c0.1,0,0.3,0,0.4-0.1c0.2-0.1,0.3-0.2,0.3-0.4c0.4-0.9,0.8-1.6,1.2-2.3c0.4-0.7,0.8-1.2,1.3-1.6
		c0.5-0.4,1.1-0.7,1.8-0.9s1.6-0.3,2.6-0.3h5.3V448c0,0.8-0.3,1.3-1,1.7c-0.7,0.3-1.8,0.6-3.4,0.8c-0.3,0.1-0.5,0.3-0.5,0.8
		c0,0.2,0,0.5,0.1,0.9c1.1-0.1,2.3-0.1,3.5-0.2c1.3-0.1,2.5-0.1,3.7-0.1c1.2,0,2.5,0,3.7,0.1c1.2,0.1,2.4,0.1,3.5,0.2
		c0.1-0.3,0.1-0.6,0.1-0.9c0-0.6-0.2-0.8-0.6-0.8c-1.6-0.2-2.7-0.4-3.3-0.8c-0.7-0.3-1-0.9-1-1.7v-27.7h5.3c1,0,1.9,0.1,2.6,0.3
		c0.7,0.2,1.3,0.5,1.8,0.9c0.5,0.4,0.9,1,1.3,1.6C211.3,423.8,211.7,424.6,212.1,425.5z"/>
	<path d="M255,443.7c-0.4,0-0.7,0.1-0.8,0.4c-0.4,0.8-0.8,1.6-1.3,2.3c-0.4,0.7-1,1.3-1.5,1.8c-0.6,0.5-1.2,0.9-2,1.2
		c-0.7,0.3-1.6,0.4-2.6,0.4H244c-2.1,0-3.7-0.1-4.6-0.4c-0.9-0.2-1.4-0.7-1.4-1.5v-12.2h8.1c0.7,0,1.2,0.3,1.5,1
		c0.3,0.7,0.5,1.5,0.7,2.5c0.1,0.4,0.4,0.7,1,0.7c0.2,0,0.5,0,0.8-0.1c-0.1-1.1-0.2-2-0.2-2.9c0-0.8-0.1-1.6-0.1-2.1
		c0-0.7,0-1.6,0.1-2.5c0.1-1,0.1-1.8,0.2-2.6c-0.1,0-0.2-0.1-0.4-0.1s-0.3-0.1-0.4-0.1c-0.5,0-0.8,0.2-0.9,0.7
		c-0.2,1-0.4,1.8-0.7,2.5c-0.3,0.7-0.8,1-1.5,1H238v-13.3h7.7c1,0,1.9,0.1,2.6,0.3c0.7,0.2,1.3,0.5,1.8,0.9c0.5,0.4,0.9,0.9,1.3,1.6
		c0.4,0.6,0.8,1.4,1.2,2.3c0.1,0.3,0.4,0.5,0.9,0.5c0.3,0,0.7-0.1,0.9-0.3c-0.4-0.6-0.6-1.4-0.8-2.3c-0.1-0.9-0.3-1.7-0.4-2.5
		c-0.1-0.8-0.2-1.5-0.4-2c-0.2-0.6-0.5-0.9-0.9-0.9c-0.4,0-1.1,0.1-2.3,0.2c-1.1,0.1-2.5,0.2-4,0.2h-10.2c-0.8,0-1.7,0-2.7-0.1
		c-1,0-2.2-0.1-3.7-0.2c0,0.1-0.1,0.3-0.1,0.4c0,0.1,0,0.3,0,0.4c0,0.5,0.2,0.8,0.5,0.9c1.5,0.3,2.4,0.5,2.9,0.8s0.8,0.7,0.8,1.4
		v26.4c0,0.7-0.3,1.2-0.9,1.5s-1.5,0.5-2.8,0.8c-0.3,0.1-0.5,0.3-0.5,0.8c0,0.2,0,0.5,0.1,0.8c1-0.1,2.1-0.1,3.3-0.2
		c1.1-0.1,2.2-0.1,3.2-0.1h11.3c0.4,0,1,0,1.6,0.1c0.6,0,1.2,0.1,1.8,0.1c0.6,0,1.2,0,1.7,0.1c0.5,0,0.9,0.1,1.2,0.1
		s0.6-0.3,0.9-0.9c0.2-0.6,0.4-1.3,0.6-2.1c0.2-0.8,0.4-1.7,0.6-2.6c0.2-0.9,0.5-1.7,0.8-2.4c-0.2-0.1-0.4-0.2-0.5-0.3
		C255.4,443.7,255.2,443.7,255,443.7z"/>
	<path d="M302.9,418.1c-0.8,0.1-1.6,0.1-2.4,0.1s-1.6,0-2.5-0.1c-0.9-0.1-1.8-0.1-2.6-0.2c-0.1,0.3-0.1,0.6-0.1,0.8
		c0,0.6,0.2,0.8,0.6,0.9c1.3,0.2,2.2,0.4,2.8,0.7c0.6,0.3,0.8,0.8,0.8,1.6v21.7l-18.6-24.8c-0.2-0.3-0.5-0.4-0.8-0.5
		c-0.3-0.1-1-0.1-2-0.1c-0.5,0-1,0-1.7,0c-0.6,0-1.2,0-1.8-0.1c-0.6,0-1.3-0.1-2-0.2c0,0.1-0.1,0.3-0.1,0.4c0,0.1-0.1,0.3-0.1,0.5
		c0,0.5,0.2,0.8,0.6,0.9c1.2,0.2,2.1,0.4,2.5,0.7c0.4,0.3,0.6,0.7,0.6,1.3v26.6c0,0.7-0.2,1.2-0.6,1.5c-0.4,0.3-1.3,0.5-2.5,0.8
		c-0.4,0.1-0.6,0.3-0.6,0.8c0,0.2,0,0.5,0.1,0.8c0.8-0.1,1.6-0.1,2.5-0.2c0.9-0.1,1.7-0.1,2.4-0.1c0.8,0,1.6,0,2.5,0.1
		c0.9,0.1,1.8,0.1,2.6,0.2c0.1-0.3,0.1-0.6,0.1-0.8c0-0.5-0.2-0.8-0.5-0.8c-1.4-0.2-2.3-0.5-2.8-0.8s-0.7-0.8-0.7-1.5v-24.4l21,27.7
		c0.3,0.4,0.5,0.6,0.7,0.8c0.2,0.1,0.4,0.2,0.7,0.2c0.1,0,0.2,0,0.4,0s0.3,0,0.4-0.1V422c0-0.7,0.2-1.2,0.6-1.5
		c0.4-0.3,1.2-0.6,2.4-0.7c0.3,0,0.5-0.3,0.5-0.9c0-0.2,0-0.5-0.1-0.8C304.5,418,303.7,418.1,302.9,418.1z"/>
	<path d="M100.8,477.8c-0.3,0-0.6,0-1,0c-0.3,0-0.7,0-1,0c-0.3,0-0.6,0-0.8,0s-0.5,0-0.8,0s-0.7,0-1,0c-0.4,0-0.7,0-1,0
		s-0.6,0-0.9-0.1c0,0.1,0,0.1,0,0.2c0,0.1,0,0.2,0,0.2c0,0.1,0,0.2,0.1,0.3c0.1,0.1,0.2,0.2,0.3,0.2c0.7,0.1,1.2,0.2,1.4,0.4
		c0.3,0.2,0.4,0.5,0.4,1v3.9c-0.3,0.1-0.6,0.2-0.9,0.2c-0.3,0-0.6,0.1-1,0.1c-1.1,0-2-0.2-2.8-0.6c-0.8-0.4-1.5-1-2.1-1.7
		c-0.6-0.7-1-1.6-1.3-2.6c-0.3-1-0.4-2.1-0.4-3.3c0-1.1,0.1-2.1,0.4-2.9c0.3-0.9,0.6-1.6,1.1-2.2c0.5-0.6,1.1-1.1,1.9-1.4
		c0.7-0.3,1.6-0.5,2.6-0.5c1.3,0,2.3,0.2,3.2,0.7c0.9,0.5,1.5,1.3,1.9,2.5c0,0.1,0.1,0.2,0.2,0.3c0.1,0,0.2,0.1,0.4,0.1
		c0.1,0,0.2,0,0.3,0c0.1,0,0.2,0,0.3-0.1c-0.2-0.7-0.3-1.5-0.5-2.2c-0.1-0.8-0.2-1.4-0.2-1.9c-1-0.3-2-0.5-3.1-0.6
		c-1.1-0.2-2.1-0.2-3.2-0.2c-1.5,0-2.8,0.3-3.9,0.8c-1.1,0.5-2.1,1.3-2.8,2.1c-0.7,0.9-1.3,1.8-1.7,2.9c-0.4,1.1-0.5,2.1-0.5,3.2
		c0,1.4,0.2,2.6,0.6,3.7c0.4,1.1,0.9,2.1,1.7,2.9s1.7,1.4,2.9,1.8c1.2,0.4,2.6,0.6,4.2,0.6c0.6,0,1.2,0,1.7,0s0.9,0,1.3-0.1
		c0.4,0,0.8-0.1,1.2-0.1c0.4-0.1,0.8-0.1,1.2-0.2c0.4-0.1,0.7-0.2,0.8-0.3c0.1-0.1,0.1-0.2,0.1-0.4v-4.7c0-0.4,0.1-0.6,0.3-0.8
		c0.2-0.2,0.6-0.3,1.2-0.3c0.1,0,0.2-0.1,0.2-0.2c0-0.1,0.1-0.2,0.1-0.4c0-0.1,0-0.1,0-0.2c0-0.1,0-0.2-0.1-0.3
		C101.4,477.7,101.2,477.8,100.8,477.8z"/>
	<path d="M132.6,484.6c-0.2,0.1-0.2,0-0.3,0c-0.4-0.1-0.7-0.2-1.2-0.4c-0.4-0.2-0.8-0.5-1.1-1l-4.2-6.2c1-0.4,1.8-1,2.4-1.8
		s0.9-1.6,0.9-2.6c0-0.7-0.1-1.4-0.4-2c-0.3-0.6-0.7-1.1-1.2-1.5c-0.5-0.4-1.2-0.8-1.9-1c-0.8-0.2-1.6-0.3-2.6-0.3h-4.1
		c-0.5,0-1.1,0-1.8,0c-0.7,0-1.2-0.1-1.7-0.1c0,0.1-0.1,0.1-0.1,0.2c0,0.1,0,0.2,0,0.2c0,0.2,0,0.3,0.1,0.4c0.1,0.1,0.1,0.1,0.2,0.2
		c0.7,0.1,1.2,0.2,1.5,0.4c0.3,0.2,0.4,0.4,0.4,0.8v13.5c0,0.2,0,0.3-0.1,0.4c0,0.1-0.1,0.2-0.3,0.3c-0.2,0.1-0.3,0.2-0.5,0.2
		c-0.2,0.1-0.5,0.1-0.9,0.2c-0.2,0-0.3,0.2-0.3,0.5c0,0.1,0,0.1,0,0.2c0,0.1,0,0.2,0.1,0.2c0.5,0,1.1-0.1,1.7-0.1c0.6,0,1.2,0,1.9,0
		c0.9,0,1.8,0,2.5,0c0.8,0,1.4,0.1,1.9,0.1c0-0.2,0.1-0.3,0.1-0.5c0-0.3-0.1-0.5-0.4-0.5c-0.8-0.1-1.4-0.2-1.8-0.4
		c-0.3-0.2-0.5-0.5-0.5-0.9v-5.6h1.2l4.2,6.2c0.4,0.5,0.7,0.9,1.1,1.2c0.4,0.3,0.8,0.5,1.1,0.5s0.6,0,1,0c0.4,0,0.8,0,1.2,0
		c0.4,0,0.8,0,1.1,0c0.4,0,0.6,0,0.8,0c0-0.1,0.1-0.2,0.1-0.3c0-0.1,0-0.2,0-0.2C132.7,484.7,132.7,484.6,132.6,484.6z M125.1,474.5
		c-0.2,0.4-0.4,0.8-0.7,1c-0.3,0.3-0.7,0.4-1.2,0.6c-0.4,0.1-0.9,0.2-1.5,0.2h-0.8v-7h0.8c1.4,0,2.3,0.3,2.8,1
		c0.5,0.6,0.8,1.5,0.8,2.6C125.4,473.5,125.3,474.1,125.1,474.5z"/>
	<path d="M161.4,470.1c-0.8-0.8-1.8-1.4-2.9-1.9c-1.1-0.4-2.3-0.7-3.6-0.7c-1.3,0-2.4,0.2-3.5,0.7c-1.1,0.5-2.1,1.1-2.9,1.9
		s-1.5,1.8-1.9,2.9c-0.5,1.1-0.7,2.3-0.7,3.5c0,1.3,0.2,2.5,0.7,3.6c0.5,1.1,1.1,2.1,1.9,2.9s1.8,1.4,2.9,1.9
		c1.1,0.4,2.3,0.7,3.6,0.7s2.4-0.2,3.5-0.7c1.1-0.5,2.1-1.1,2.9-1.9s1.5-1.8,1.9-2.9c0.5-1.1,0.7-2.3,0.7-3.5c0-1.3-0.2-2.5-0.7-3.6
		C162.9,471.9,162.3,471,161.4,470.1z M160,480.4c-0.2,0.8-0.6,1.4-1,2c-0.4,0.6-1,1-1.6,1.4c-0.6,0.3-1.3,0.5-2,0.5
		c-0.9,0-1.7-0.2-2.4-0.7s-1.3-1.1-1.8-1.9s-0.9-1.8-1.1-2.9c-0.3-1.1-0.4-2.4-0.4-3.7c0-0.9,0.1-1.8,0.4-2.6
		c0.3-0.8,0.6-1.4,1.1-1.9c0.4-0.5,1-0.9,1.6-1.2c0.6-0.3,1.2-0.4,1.8-0.4c1,0,1.8,0.2,2.6,0.7c0.7,0.5,1.4,1.1,1.9,1.9
		s0.9,1.7,1.1,2.8s0.4,2.3,0.4,3.5C160.3,478.8,160.2,479.7,160,480.4z"/>
	<path d="M194.5,467.9c-0.4,0-1,0-1.5,0s-1,0-1.4,0c-0.4,0-0.9-0.1-1.4-0.1c0,0.1,0,0.2,0,0.3s0,0.2,0,0.2c0,0.3,0.1,0.5,0.3,0.5
		c0.7,0.1,1.2,0.2,1.4,0.4c0.3,0.2,0.4,0.4,0.4,0.8v8.2c0,2-0.4,3.5-1.1,4.4c-0.7,0.9-1.9,1.4-3.7,1.4c-1.7,0-2.9-0.5-3.6-1.5
		s-1-2.4-1-4.2V470c0-0.4,0.1-0.6,0.4-0.8s0.8-0.3,1.5-0.4c0.2,0,0.3-0.2,0.3-0.5c0-0.1,0-0.1,0-0.2c0-0.1,0-0.2,0-0.3
		c-0.5,0-1.1,0.1-1.8,0.1s-1.3,0-2,0c-0.8,0-1.5,0-2.1,0c-0.6,0-1.1-0.1-1.7-0.1c0,0.1-0.1,0.2-0.1,0.3s0,0.2,0,0.2
		c0,0.3,0.1,0.5,0.3,0.5c0.7,0.1,1.2,0.2,1.4,0.4c0.2,0.2,0.3,0.4,0.3,0.8v8.9c0,0.9,0.1,1.8,0.3,2.7c0.2,0.8,0.5,1.6,1.1,2.2
		c0.5,0.6,1.3,1.1,2.3,1.5c1,0.4,2.3,0.5,3.9,0.5c1.3,0,2.5-0.2,3.3-0.5c0.9-0.3,1.6-0.8,2.1-1.4c0.5-0.6,0.9-1.4,1.1-2.2
		c0.2-0.9,0.3-1.8,0.3-2.8v-8.8c0-0.4,0.1-0.6,0.4-0.8s0.7-0.3,1.4-0.4c0.2-0.1,0.3-0.2,0.3-0.5c0-0.1,0-0.1,0-0.2
		c-0.1-0.2-0.1-0.3-0.1-0.4C195.4,467.9,194.9,467.9,194.5,467.9z"/>
	<path d="M217.5,467.9h-4.1c-0.5,0-1.1,0-1.8,0c-0.7,0-1.2-0.1-1.7-0.1c0,0.1-0.1,0.1-0.1,0.2c0,0.1,0,0.2,0,0.2
		c0,0.2,0,0.3,0.1,0.4c0.1,0.1,0.1,0.1,0.2,0.2c0.7,0.1,1.2,0.2,1.5,0.4c0.3,0.2,0.4,0.4,0.4,0.8v13.5c0,0.2,0,0.3-0.1,0.4
		c0,0.1-0.1,0.2-0.3,0.3s-0.3,0.2-0.5,0.2c-0.2,0.1-0.5,0.1-0.9,0.2c-0.2,0-0.3,0.2-0.3,0.5c0,0.1,0,0.1,0,0.2c0,0.1,0,0.2,0.1,0.2
		c0.5,0,1.1-0.1,1.7-0.1c0.6,0,1.2,0,1.9,0c0.9,0,1.8,0,2.5,0c0.8,0,1.4,0.1,1.9,0.1c0-0.2,0.1-0.3,0.1-0.5c0-0.3-0.1-0.5-0.4-0.5
		c-0.8-0.1-1.4-0.2-1.8-0.4c-0.3-0.2-0.5-0.5-0.5-0.9V478h2c1,0,1.8-0.1,2.6-0.4s1.4-0.7,1.9-1.1c0.5-0.5,0.9-1,1.2-1.7
		c0.3-0.6,0.4-1.3,0.4-2c0-1.5-0.5-2.7-1.6-3.6C220.9,468.3,219.4,467.9,217.5,467.9z M218.9,475.9c-0.7,0.6-1.6,0.8-2.6,0.8h-0.8
		v-7.4h0.8c1.4,0,2.3,0.3,2.9,1c0.5,0.7,0.8,1.6,0.8,2.8C219.9,474.4,219.5,475.3,218.9,475.9z"/>
</g>
</svg>
